<?xml version="1.0" encoding="utf-8"?>
<!-- Generator: Adobe Illustrator 26.0.1, SVG Export Plug-In . SVG Version: 6.00 Build 0)  -->
<svg version="1.1" id="Layer_1" xmlns="http://www.w3.org/2000/svg" xmlns:xlink="http://www.w3.org/1999/xlink" x="0px" y="0px"
	 viewBox="0 0 523.6 249.9" style="enable-background:new 0 0 523.6 249.9;" xml:space="preserve">
<style type="text/css">
	.st0{fill:#893C29;}
	.st1{fill:#C25739;}
	.st2{fill:#F9735D;}
</style>
<g>
	<path class="st0" d="M474.2,45.4C436.6,27.1,82.7,21.8,39.3,48.6c-40.2,25.5-40.2,78.5-39,99c1.3,20.4,26.2,106,259.9,102.2
		c233.7-3.8,251.7-73.4,258.6-86.2C527.8,147,529.1,72.2,474.2,45.4z"/>
	<path class="st1" d="M239.2,0.1C84.7,2,10.6,51.2,10.6,103.5c0,48.6,89.4,84.3,222.2,88.1c132.8,3.8,262.5-31.9,272-84.9
		C514.2,55.2,442.3-2.5,239.2,0.1z"/>
	<path class="st2" d="M19.5,106.1c0.6,21.7,22.4,47.3,79.2,61.9c113.7,29.4,258.3,17.1,254.2,10.9c-5.1-7.7-61.2,16.5-231.8-15.3
		c-27.8-5.2-51.1-14.3-65.8-26.2c-16-13-22.2-28.9-22.4-36.4c-0.6-31.3,21.7-39.6,13.4-43.4C41.7,55.4,18.4,67.7,19.5,106.1z"/>
	<path class="st0" d="M134.3,16.4c-5.9,0.4-20,15.5-44.7,46.1C64.8,93,41.9,120.8,51.9,124.1s35.9-32.2,51.8-53.9
		S151.9,15.3,134.3,16.4z"/>
	<path class="st0" d="M209.8,11.5c-6.4,0.5-37.6,39.3-63.5,71.7c-25.9,32.3-52.9,65.9-41.9,69.1c11,3.2,40.9-38.5,57.5-61.4
		C178.5,68,228.9,9.9,209.8,11.5z"/>
	<path class="st0" d="M293.5,10.9c-6.4,0.7-39,48.6-63.4,81.9s-56.7,72.7-40.7,72.7c11.5,0,41.1-42.1,56.6-65.6
		C261.5,76.5,319.7,8,293.5,10.9z"/>
	<path class="st0" d="M380.5,19.1c-6.4-0.5-39.6,42.5-64.9,75.2c-25.3,32.7-58.7,71.4-42.8,71.7c11.5,0.3,42.2-41.1,58.4-64.2
		C347.5,78.7,399,20.7,380.5,19.1z"/>
	<path class="st0" d="M453.9,41.5c-5.1-0.3-30.8,34.4-50.5,60.8c-19.6,26.4-45.6,57.6-32.8,57.6c9.3,0,33-33.3,45.5-52
		C428.6,89.3,468.7,42.4,453.9,41.5z"/>
	<g>
		<g>
			<path class="st0" d="M55.4,72.3c1.7-0.8,3.6-1.2,5.4-1.8c1.9-0.6,1.1-3.7-0.8-3.1c-2,0.7-4.2,1.2-6.1,2.1
				C52,70.5,53.6,73.2,55.4,72.3L55.4,72.3z"/>
		</g>
		<g>
			<path class="st0" d="M57.8,58.5c1.6,0,3.1,0.7,4.7,1.2c2,0.7,2.8-2.4,0.8-3.1c-1.8-0.6-3.6-1.3-5.5-1.3
				C55.8,55.3,55.8,58.5,57.8,58.5L57.8,58.5z"/>
		</g>
		<g>
			<path class="st0" d="M72,46.6c1.5,1.4,3.2,2.3,5.2,3c2,0.7,2.8-2.4,0.8-3.1c-1.4-0.5-2.7-1.1-3.8-2.1
				C72.8,42.9,70.6,45.1,72,46.6L72,46.6z"/>
		</g>
		<g>
			<path class="st0" d="M72.5,62.3c2,0,4,0,5.9-0.9c0.8-0.4,1-1.5,0.6-2.2c-0.5-0.8-1.4-0.9-2.2-0.6c-1.3,0.6-2.9,0.4-4.3,0.4
				C70.5,59.2,70.5,62.3,72.5,62.3L72.5,62.3z"/>
		</g>
		<g>
			<path class="st0" d="M88.9,47.6c2.2-0.8,4.2-2.1,6.1-3.4c1.7-1.1,0.1-3.9-1.6-2.8c-1.7,1.1-3.4,2.3-5.4,3
				C86.1,45.2,87,48.3,88.9,47.6L88.9,47.6z"/>
		</g>
		<g>
			<path class="st0" d="M87.4,32.9c2.4,0.8,4.7,1.2,7.2,0.6c2-0.4,1.2-3.5-0.8-3.1c-2,0.4-3.7,0-5.5-0.6
				C86.3,29.2,85.5,32.3,87.4,32.9L87.4,32.9z"/>
		</g>
		<g>
			<path class="st0" d="M107.6,29.8c0.6,0,1.2-0.1,1.7-0.3c0.7-0.4,1.1-1.1,1.1-1.9c0-0.9-0.8-1.6-1.6-1.6c-0.9,0-1.6,0.7-1.6,1.6
				c0-0.3,0.2-0.6,0.6-0.9c-0.2,0.1,0.4-0.1,0.1,0c0.5-0.1,0.2,0,0,0c-0.1,0-0.2,0-0.3,0c-0.9,0-1.6,0.7-1.6,1.6
				C106,29.1,106.8,29.8,107.6,29.8L107.6,29.8z"/>
		</g>
		<g>
			<path class="st0" d="M44.7,95.9c0,1.9,1.1,3.1,2.7,3.9c0.8,0.4,1.7,0.2,2.2-0.6c0.4-0.7,0.2-1.8-0.6-2.2
				c-0.2-0.1-0.4-0.2-0.6-0.4c-0.1,0-0.4-0.3-0.1-0.1c-0.1-0.1-0.2-0.2-0.3-0.2c-0.3-0.3,0.2,0.3,0,0c-0.1-0.1-0.2-0.4,0,0
				c0-0.1-0.1-0.2-0.1-0.3c0.1,0.4,0,0,0-0.1c0-0.9-0.7-1.6-1.6-1.6C45.5,94.3,44.7,95,44.7,95.9L44.7,95.9z"/>
		</g>
		<g>
			<path class="st0" d="M47.1,82.3c0.9,0.8,1.9,1.1,3,1.1c0.9,0,1.6-0.7,1.6-1.6c0-0.9-0.7-1.6-1.6-1.6c-0.1,0-0.2,0-0.3,0
				c-0.1,0-0.6-0.1-0.1,0c-0.1,0-0.5-0.2-0.2,0c-0.1,0-0.1-0.1-0.2-0.1c0.1,0.1,0.1,0.1,0,0c-0.6-0.6-1.6-0.6-2.3,0
				C46.5,80.7,46.5,81.7,47.1,82.3L47.1,82.3z"/>
		</g>
		<g>
			<path class="st0" d="M104.4,87.9c1.3,0,2.6,0,3.8,0c2.1,0,2.1-3.2,0-3.2c-1.3,0-2.6,0-3.8,0C102.4,84.7,102.4,87.9,104.4,87.9
				L104.4,87.9z"/>
		</g>
		<g>
			<path class="st0" d="M112.5,72.5c1.9-0.6,3.9-0.7,5.7-1.3c2-0.6,1.1-3.7-0.8-3.1c-1.9,0.6-3.9,0.7-5.7,1.3
				C109.7,70,110.6,73.1,112.5,72.5L112.5,72.5z"/>
		</g>
		<g>
			<path class="st0" d="M145.5,66.8c1.8,0.6,3.6,1.3,5.5,1.3c2.1,0.1,2.1-3.1,0-3.2c-1.6,0-3.2-0.7-4.7-1.2
				C144.4,63,143.6,66.1,145.5,66.8L145.5,66.8z"/>
		</g>
		<g>
			<path class="st0" d="M135.2,54.9c0.6,0.6,1.3,1.3,1.9,1.9c0.6,0.6,1.6,0.6,2.3,0c0.6-0.6,0.6-1.6,0-2.3c-0.6-0.6-1.3-1.3-1.9-1.9
				c-0.6-0.6-1.6-0.6-2.3,0C134.6,53.2,134.6,54.2,135.2,54.9L135.2,54.9z"/>
		</g>
		<g>
			<path class="st0" d="M126.2,50.2c1.3-0.1,2.2-0.9,3-1.7c0.6-0.6,0.6-1.6,0-2.3c-0.6-0.6-1.6-0.6-2.3,0c-0.2,0.2-0.5,0.5-0.7,0.7
				c-0.1,0.1-0.1,0.1,0,0c-0.1,0-0.1,0.1-0.2,0.1c-0.2,0.1-0.1,0.1,0.1,0c-0.2,0-0.1,0,0.1,0c-0.9,0-1.6,0.7-1.6,1.6
				C124.6,49.5,125.3,50.3,126.2,50.2L126.2,50.2z"/>
		</g>
		<g>
			<path class="st0" d="M137,38.1c3.2,0,6.4,0,9.6,0c2.1,0,2.1-3.2,0-3.2c-3.2,0-6.4,0-9.6,0C135,34.9,135,38.1,137,38.1L137,38.1z"
				/>
		</g>
		<g>
			<path class="st0" d="M146,23.4c1.6,0,3.1,0.1,4.7,0.6c2,0.6,2.8-2.5,0.8-3.1c-1.8-0.6-3.6-0.7-5.5-0.7
				C143.9,20.2,143.9,23.4,146,23.4L146,23.4z"/>
		</g>
		<g>
			<path class="st0" d="M163.2,13.2c2.1,0,4.3,0,6.4,0c2.1,0,2.1-3.2,0-3.2c-2.1,0-4.3,0-6.4,0C161.1,10,161.1,13.2,163.2,13.2
				L163.2,13.2z"/>
		</g>
		<g>
			<path class="st0" d="M175.5,21c1.2,1.2,2.6,2,3.8,3.2c1.5,1.4,3.7-0.8,2.3-2.3c-1.2-1.2-2.6-2-3.8-3.2
				C176.3,17.3,174,19.6,175.5,21L175.5,21z"/>
		</g>
		<g>
			<path class="st0" d="M162.7,27.4c1.4,1.4,2.5,3.1,3.8,4.5c1.4,1.5,3.7-0.8,2.3-2.3c-1.4-1.4-2.5-3.1-3.8-4.5
				C163.5,23.7,161.3,25.9,162.7,27.4L162.7,27.4z"/>
		</g>
		<g>
			<path class="st0" d="M154.3,48.3c1.7,0,3.4,0,5.1,0c2.1,0,2.1-3.2,0-3.2c-1.7,0-3.4,0-5.1,0C152.2,45.1,152.2,48.3,154.3,48.3
				L154.3,48.3z"/>
		</g>
		<g>
			<path class="st0" d="M172.1,40.6c1.5,0,3,0,4.5,0c2.1,0,2.1-3.2,0-3.2c-1.5,0-3,0-4.5,0C170.1,37.4,170.1,40.6,172.1,40.6
				L172.1,40.6z"/>
		</g>
		<g>
			<path class="st0" d="M188.9,27.6c0.9-0.4,2-0.4,3-0.4c2.1,0,2.1-3.2,0-3.2c-1.6,0-3.1,0.2-4.6,0.9c-0.8,0.4-1,1.5-0.6,2.2
				C187.2,27.9,188.1,28,188.9,27.6L188.9,27.6z"/>
		</g>
		<g>
			<path class="st0" d="M190,13.2c1.9,0,3.8,0,5.7,0c2.1,0,2.1-3.2,0-3.2c-1.9,0-3.8,0-5.7,0C188,10,188,13.2,190,13.2L190,13.2z"/>
		</g>
		<g>
			<path class="st0" d="M221.3,6.8c1.8,0,3.4,0.1,4.9,1.1c1.8,1.1,3.4-1.7,1.6-2.8c-2-1.3-4.2-1.5-6.6-1.5
				C219.3,3.6,219.3,6.8,221.3,6.8L221.3,6.8z"/>
		</g>
		<g>
			<path class="st0" d="M221.8,18.1c1.4,0.7,2.4,1.9,3.5,2.9c1.5,1.5,3.7-0.8,2.3-2.3c-1.3-1.3-2.6-2.6-4.2-3.4
				C221.6,14.3,220,17.1,221.8,18.1L221.8,18.1z"/>
		</g>
		<g>
			<path class="st0" d="M207.3,38.7c1.6,0,3.1,0.1,4.7,0.6c2,0.6,2.8-2.5,0.8-3.1c-1.8-0.6-3.6-0.7-5.5-0.7
				C205.2,35.5,205.2,38.7,207.3,38.7L207.3,38.7z"/>
		</g>
		<g>
			<path class="st0" d="M187.9,60.2c1.2,0.6,2.6,0.7,3.8,1.3c0.8,0.4,1.7,0.2,2.2-0.6c0.4-0.7,0.2-1.8-0.6-2.2
				c-1.2-0.6-2.6-0.7-3.8-1.3c-0.8-0.4-1.7-0.2-2.2,0.6C187,58.7,187.1,59.8,187.9,60.2L187.9,60.2z"/>
		</g>
		<g>
			<path class="st0" d="M220.4,56.9c0,2.5,0.1,5,0.7,7.4c0.5,2,3.6,1.2,3.1-0.8c-0.5-2.2-0.6-4.4-0.6-6.6
				C223.5,54.9,220.4,54.9,220.4,56.9L220.4,56.9z"/>
		</g>
		<g>
			<path class="st0" d="M209.5,49.3c0,1.1,0,2.1,0,3.2c0,2.1,3.2,2.1,3.2,0c0-1.1,0-2.1,0-3.2C212.7,47.2,209.5,47.2,209.5,49.3
				L209.5,49.3z"/>
		</g>
		<g>
			<path class="st0" d="M201.3,70.4c1.9,0.9,3.8,1.4,5.9,1.5c2.1,0,2.1-3.1,0-3.2c-1.5,0-3-0.4-4.3-1.1
				C201.1,66.8,199.5,69.5,201.3,70.4L201.3,70.4z"/>
		</g>
		<g>
			<path class="st0" d="M242.2,56.4c1.2,0.6,2.6,0.7,3.8,1.3c0.8,0.4,1.7,0.2,2.2-0.6c0.4-0.7,0.2-1.8-0.6-2.2
				c-1.2-0.6-2.6-0.7-3.8-1.3c-0.8-0.4-1.7-0.2-2.2,0.6C241.2,54.9,241.4,56,242.2,56.4L242.2,56.4z"/>
		</g>
		<g>
			<path class="st0" d="M227.7,43.2c1.9,0,3.7-0.1,5.5-0.7c2-0.6,1.1-3.7-0.8-3.1c-1.6,0.5-3.1,0.6-4.7,0.6
				C225.6,40,225.6,43.2,227.7,43.2L227.7,43.2z"/>
		</g>
		<g>
			<path class="st0" d="M243.2,26.8c1.5,1.4,3.2,2.3,5.2,3c2,0.7,2.8-2.4,0.8-3.1c-1.4-0.5-2.7-1.1-3.8-2.1
				C244,23.1,241.7,25.3,243.2,26.8L243.2,26.8z"/>
		</g>
		<g>
			<path class="st0" d="M239.7,12.3c1.2,0.6,2.6,0.7,3.8,1.3c0.8,0.4,1.7,0.2,2.2-0.6c0.4-0.7,0.2-1.8-0.6-2.2
				c-1.2-0.6-2.6-0.7-3.8-1.3c-0.8-0.4-1.7-0.2-2.2,0.6C238.7,10.8,238.9,11.9,239.7,12.3L239.7,12.3z"/>
		</g>
		<g>
			<path class="st0" d="M261.3,7.5c0.6,2.1,0.8,4.3,1.3,6.4c0.5,2,3.6,1.2,3.1-0.8c-0.5-2.1-0.6-4.3-1.3-6.4
				C263.7,4.7,260.7,5.6,261.3,7.5L261.3,7.5z"/>
		</g>
		<g>
			<path class="st0" d="M277.8,9c0,1.3,0,2.6,0,3.8c0,2.1,3.2,2.1,3.2,0c0-1.3,0-2.6,0-3.8C281,7,277.8,7,277.8,9L277.8,9z"/>
		</g>
		<g>
			<path class="st0" d="M261.7,23.6c1.5,1.4,3.2,2.3,5.2,3c2,0.7,2.8-2.4,0.8-3.1c-1.4-0.5-2.7-1.1-3.8-2.1
				C262.5,19.9,260.2,22.1,261.7,23.6L261.7,23.6z"/>
		</g>
		<g>
			<path class="st0" d="M180.6,85.5c0.6,0.6,1.3,1.3,1.9,1.9c0.6,0.6,1.6,0.6,2.3,0c0.6-0.6,0.6-1.6,0-2.3c-0.6-0.6-1.3-1.3-1.9-1.9
				c-0.6-0.6-1.6-0.6-2.3,0C180,83.9,180,84.9,180.6,85.5L180.6,85.5z"/>
		</g>
		<g>
			<path class="st0" d="M169.1,104c0.9,0.8,1.9,1.1,3,1.1c0.9,0,1.6-0.7,1.6-1.6c0-0.9-0.7-1.6-1.6-1.6c-0.1,0-0.2,0-0.3,0
				c-0.1,0-0.6-0.1-0.1,0c-0.1,0-0.5-0.2-0.2,0c-0.1,0-0.1-0.1-0.2-0.1c0.1,0.1,0.1,0.1,0,0c-0.6-0.6-1.6-0.6-2.3,0
				C168.5,102.4,168.5,103.4,169.1,104L169.1,104z"/>
		</g>
		<g>
			<path class="st0" d="M190.4,114.7c3.2-0.6,6.5-0.6,9.8-0.6c2.1,0,2.1-3.2,0-3.2c-3.6,0-7.1,0-10.6,0.7
				C187.6,111.9,188.4,115,190.4,114.7L190.4,114.7z"/>
		</g>
		<g>
			<path class="st0" d="M204.7,87.3c1.3,0,2.6,0,3.8,0c2.1,0,2.1-3.2,0-3.2c-1.3,0-2.6,0-3.8,0C202.6,84.1,202.6,87.3,204.7,87.3
				L204.7,87.3z"/>
		</g>
		<g>
			<path class="st0" d="M227.7,87.3c-0.2,0-0.3,0-0.1,0c0.2,0.1,0.1,0-0.1,0c0.2,0.1,0.4,0.2,0.5,0.3c0.5,0.2,1,0.4,1.6,0.4
				c0.9,0,1.6-0.8,1.6-1.6c0-0.9-0.7-1.5-1.6-1.6c0.2,0,0.3,0,0.1,0c-0.2-0.1-0.1,0,0.1,0c-0.2-0.1-0.4-0.2-0.5-0.3
				c-0.5-0.2-1-0.4-1.6-0.4c-0.9,0-1.6,0.8-1.6,1.6C226.1,86.6,226.8,87.2,227.7,87.3L227.7,87.3z"/>
		</g>
		<g>
			<path class="st0" d="M69.5,128.3c0.9,0.9,1.8,1.6,2.9,2.2c0.8,0.4,1.7,0.2,2.2-0.6c0.4-0.7,0.2-1.8-0.6-2.2
				c-0.3-0.1-0.5-0.3-0.8-0.5c-0.1-0.1-0.2-0.1-0.3-0.2c0,0-0.4-0.3-0.2-0.1c-0.3-0.3-0.7-0.6-1-0.9C70.3,124.6,68,126.8,69.5,128.3
				L69.5,128.3z"/>
		</g>
		<g>
			<path class="st0" d="M84.8,111c1,1,2.2,1.7,3.7,1.7c0.9,0,1.6-0.7,1.6-1.6c0-0.9-0.7-1.6-1.6-1.6c-0.1,0-0.2,0-0.3,0
				c0.2,0,0.1,0,0,0c-0.1,0-0.2-0.1-0.3-0.1c0.3,0.1-0.1-0.1-0.1-0.1c-0.1-0.1-0.1-0.1,0,0c-0.1-0.1-0.1-0.1-0.2-0.2
				c-0.2-0.1-0.3-0.3-0.5-0.4C85.6,107.3,83.3,109.6,84.8,111L84.8,111z"/>
		</g>
		<g>
			<path class="st0" d="M101.3,131.3c1.6,0,3.1-0.2,4.6-0.9c0.8-0.4,1-1.5,0.6-2.2c-0.5-0.8-1.4-0.9-2.2-0.6c-0.9,0.4-2,0.4-3,0.4
				C99.2,128.1,99.2,131.3,101.3,131.3L101.3,131.3z"/>
		</g>
		<g>
			<path class="st0" d="M115.9,102.6c1.5,0,3,0,4.5,0c2.1,0,2.1-3.2,0-3.2c-1.5,0-3,0-4.5,0C113.9,99.4,113.9,102.6,115.9,102.6
				L115.9,102.6z"/>
		</g>
		<g>
			<path class="st0" d="M144.5,133c0.3,0.1,0.5,0.3,0.8,0.4c0,0,0.4,0.3,0.1,0.1c0.1,0.1,0.2,0.2,0.3,0.3c0.1,0.1,0.2,0.2,0.3,0.3
				c0.3,0.3-0.2-0.3,0.1,0.1c0.2,0.3,0.4,0.6,0.5,0.9c0.4,0.8,1.5,1,2.2,0.6c0.8-0.5,1-1.4,0.6-2.2c-0.7-1.4-1.7-2.4-3.1-3.1
				c-0.8-0.4-1.7-0.2-2.2,0.6C143.5,131.5,143.7,132.6,144.5,133L144.5,133z"/>
		</g>
		<g>
			<path class="st0" d="M137.9,149.8c2.3,0.7,4,2.4,5.7,4.1c1.5,1.5,3.7-0.8,2.3-2.3c-2.1-2.1-4.2-4.1-7.1-4.9
				C136.7,146.1,135.9,149.2,137.9,149.8L137.9,149.8z"/>
		</g>
		<g>
			<path class="st0" d="M171.5,151.7c2.1,0,4.3,0,6.4,0c2.1,0,2.1-3.2,0-3.2c-2.1,0-4.3,0-6.4,0
				C169.4,148.6,169.4,151.7,171.5,151.7L171.5,151.7z"/>
		</g>
		<g>
			<path class="st0" d="M161.3,119.8c0.1,0,0.2,0,0.3,0c0.1,0,0.6,0.1,0.1,0c0.1,0,0.5,0.2,0.2,0c0.1,0,0.1,0.1,0.2,0.1
				c-0.1-0.1-0.1-0.1,0,0c0.6,0.6,1.6,0.6,2.3,0c0.6-0.6,0.6-1.7,0-2.3c-0.9-0.8-1.9-1.1-3-1.1c-0.9,0-1.6,0.7-1.6,1.6
				C159.7,119.1,160.4,119.8,161.3,119.8L161.3,119.8z"/>
		</g>
		<g>
			<path class="st0" d="M295.5,39.5c1.8,1.6,4.2,2.2,6.5,3c2,0.6,2.8-2.4,0.8-3.1c-1.7-0.5-3.7-0.9-5-2.1
				C296.3,35.9,294,38.1,295.5,39.5L295.5,39.5z"/>
		</g>
		<g>
			<path class="st0" d="M306.4,21.6c2,2,4.3,3.5,7.1,4.2c2,0.5,2.8-2.5,0.8-3.1c-2.3-0.6-4-1.8-5.7-3.4
				C307.2,17.9,304.9,20.2,306.4,21.6L306.4,21.6z"/>
		</g>
		<g>
			<path class="st0" d="M300.1,9.9c2.2,0.7,4.5,0.7,6.8,0.7c2.1,0,2.1-3.2,0-3.2c-2,0-4,0-6-0.6C298.9,6.2,298.1,9.3,300.1,9.9
				L300.1,9.9z"/>
		</g>
		<g>
			<path class="st0" d="M324.9,15.5c1.4-0.7,3.2-0.6,4.7-1.1c2-0.6,1.1-3.7-0.8-3.1c-1.8,0.6-3.7,0.6-5.5,1.4
				c-0.8,0.4-1,1.5-0.6,2.2C323.2,15.7,324.1,15.9,324.9,15.5L324.9,15.5z"/>
		</g>
		<g>
			<path class="st0" d="M330,33.4c2.6-1.3,5.1-2.6,7.7-3.8c1.8-0.9,0.2-3.7-1.6-2.8c-2.6,1.3-5.1,2.6-7.7,3.8
				C326.6,31.6,328.2,34.3,330,33.4L330,33.4z"/>
		</g>
		<g>
			<path class="st0" d="M338.2,29.1c2.1,0,2.1-3.2,0-3.2C336.1,25.9,336.1,29.1,338.2,29.1L338.2,29.1z"/>
		</g>
		<g>
			<path class="st0" d="M314.5,53.4c1.4,0,3-0.2,4.3,0.4c0.8,0.4,1.7,0.2,2.2-0.6c0.4-0.7,0.2-1.8-0.6-2.2c-1.9-0.8-3.9-0.9-5.9-0.9
				C312.5,50.2,312.5,53.4,314.5,53.4L314.5,53.4z"/>
		</g>
		<g>
			<path class="st0" d="M313.6,36.9c0.9,2.5,3.2,3.5,5.6,4.3c2,0.7,2.8-2.4,0.8-3.1c-1.2-0.4-2.9-0.8-3.4-2.1
				c-0.3-0.8-1.1-1.4-2-1.1C314,35.2,313.3,36.1,313.6,36.9L313.6,36.9z"/>
		</g>
		<g>
			<path class="st0" d="M334.5,42.7c1.4,1.4,3.1,2.5,4.5,3.8c1.5,1.4,3.7-0.8,2.3-2.3c-1.4-1.4-3.1-2.5-4.5-3.8
				C335.3,39,333,41.3,334.5,42.7L334.5,42.7z"/>
		</g>
		<g>
			<path class="st0" d="M345.2,31.1c2.1,0,4.3,0,6.4,0c2.1,0,2.1-3.2,0-3.2c-2.1,0-4.3,0-6.4,0C343.1,27.9,343.1,31.1,345.2,31.1
				L345.2,31.1z"/>
		</g>
		<g>
			<path class="st0" d="M360.5,22.8c2.5,0,5-0.1,7.4-0.7c2-0.5,1.2-3.6-0.8-3.1c-2.2,0.5-4.4,0.6-6.6,0.6
				C358.5,19.6,358.5,22.8,360.5,22.8L360.5,22.8z"/>
		</g>
		<g>
			<path class="st0" d="M336.7,12.3c1.9,0.8,3.9,0.9,5.9,0.9c2.1,0,2.1-3.2,0-3.2c-1.4,0-3,0.2-4.3-0.4c-0.8-0.4-1.7-0.2-2.2,0.6
				C335.8,10.8,335.9,12,336.7,12.3L336.7,12.3z"/>
		</g>
		<g>
			<path class="st0" d="M361.6,14.9c1.5,0.7,3,0.9,4.6,0.9c2.1,0,2.1-3.2,0-3.2c-1,0-2.1,0-3-0.4c-0.8-0.4-1.7-0.2-2.2,0.6
				C360.7,13.4,360.8,14.5,361.6,14.9L361.6,14.9z"/>
		</g>
		<g>
			<path class="st0" d="M280.9,73c1.3-0.7,2.8-1,4.3-1.1c2.1,0,2.1-3.2,0-3.2c-2.1,0-4,0.6-5.9,1.5C277.4,71.1,279,73.9,280.9,73
				L280.9,73z"/>
		</g>
		<g>
			<path class="st0" d="M283.9,59.8c1.9,0,3.8,0,5.7,0c2.1,0,2.1-3.2,0-3.2c-1.9,0-3.8,0-5.7,0C281.8,56.6,281.8,59.8,283.9,59.8
				L283.9,59.8z"/>
		</g>
		<g>
			<path class="st0" d="M309,64.8c1.9,0.6,3.7,1.3,5.4,2.4c1.7,1.1,3.3-1.6,1.6-2.8c-1.9-1.2-4-2-6.1-2.7
				C307.9,61.1,307.1,64.2,309,64.8L309,64.8z"/>
		</g>
		<g>
			<path class="st0" d="M295.9,82.6c0.6,0.3,1.3,0.5,1.9,0.7c0.3,0.1,0.5,0.1,0.8,0.2c0.1,0,0.3,0.2,0.2,0.1c0.6,0.6,1.6,0.6,2.3,0
				c0.6-0.6,0.6-1.7,0-2.3c-1-0.9-2.3-1-3.5-1.5c-0.8-0.4-1.7-0.2-2.2,0.6C294.9,81.1,295.1,82.2,295.9,82.6L295.9,82.6z"/>
		</g>
		<g>
			<path class="st0" d="M253.2,100.7c1.1,0,2.1,0,3.2,0c2.1,0,2.1-3.2,0-3.2c-1.1,0-2.1,0-3.2,0C251.2,97.5,251.2,100.7,253.2,100.7
				L253.2,100.7z"/>
		</g>
		<g>
			<path class="st0" d="M266,87.3c1.7,0,3.4,0,5.1,0c2.1,0,2.1-3.2,0-3.2c-1.7,0-3.4,0-5.1,0C264,84.1,264,87.3,266,87.3L266,87.3z"
				/>
		</g>
		<g>
			<path class="st0" d="M255.8,124.9c1.5,0,3,0,4.5,0c2.1,0,2.1-3.2,0-3.2c-1.5,0-3,0-4.5,0C253.7,121.7,253.7,124.9,255.8,124.9
				L255.8,124.9z"/>
		</g>
		<g>
			<path class="st0" d="M232.3,130.8c1.3,1.3,3.1,1.9,4.5,3.2c1.5,1.4,3.8-0.8,2.3-2.3c-1.3-1.3-3.1-1.9-4.5-3.2
				C233.1,127.2,230.8,129.4,232.3,130.8L232.3,130.8z"/>
		</g>
		<g>
			<path class="st0" d="M223.1,155.4c1.9,0.8,3.9,0.9,5.9,0.9c2.1,0,2.1-3.2,0-3.2c-1.4,0-3,0.2-4.3-0.4c-0.8-0.4-1.7-0.2-2.2,0.6
				C222.1,153.9,222.3,155,223.1,155.4L223.1,155.4z"/>
		</g>
		<g>
			<path class="st0" d="M242.4,166.4c2,0,3.7-0.7,5.5-1.3c1.9-0.7,1.1-3.7-0.8-3.1c-1.5,0.5-3,1.2-4.7,1.2
				C240.3,163.3,240.3,166.5,242.4,166.4L242.4,166.4z"/>
		</g>
		<g>
			<path class="st0" d="M269.2,144.7c2.3,0,4.5-0.2,6.6-1.5c1.7-1.1,0.1-3.9-1.6-2.8c-1.6,1-3.2,1.1-4.9,1.1
				C267.1,141.5,267.1,144.7,269.2,144.7L269.2,144.7z"/>
		</g>
		<g>
			<path class="st0" d="M282.2,117.2c1.6,0.5,3.2,1,4.7,1.8c1.8,0.9,3.5-1.9,1.6-2.8c-1.8-0.9-3.6-1.5-5.5-2.1
				C281.1,113.5,280.2,116.6,282.2,117.2L282.2,117.2z"/>
		</g>
		<g>
			<path class="st0" d="M288.8,98.5c2.4,1.5,5.1,1.5,7.8,1.5c2.1,0,2.1-3.2,0-3.2c-2.1,0-4.4,0.1-6.2-1.1
				C288.7,94.7,287.1,97.5,288.8,98.5L288.8,98.5z"/>
		</g>
		<g>
			<path class="st0" d="M319,77c1.3,0,2.6,0,3.8,0c2.1,0,2.1-3.2,0-3.2c-1.3,0-2.6,0-3.8,0C317,73.8,317,77,319,77L319,77z"/>
		</g>
		<g>
			<path class="st0" d="M375,64c2,0.9,4.1,1.4,6.1,2.1c2,0.6,2.8-2.4,0.8-3.1c-1.8-0.6-3.7-1-5.4-1.8C374.8,60.4,373.2,63.2,375,64
				L375,64z"/>
		</g>
		<g>
			<path class="st0" d="M386.3,52.1c2.4,0.8,4.9,1.3,7.4,1.3c2.1,0,2.1-3.2,0-3.2c-2.3,0-4.4-0.5-6.6-1.2
				C385.2,48.4,384.3,51.4,386.3,52.1L386.3,52.1z"/>
		</g>
		<g>
			<path class="st0" d="M411.6,47c2.6,0,5.1,0,7.7,0c2.1,0,2.1-3.2,0-3.2c-2.6,0-5.1,0-7.7,0C409.6,43.8,409.6,47,411.6,47L411.6,47
				z"/>
		</g>
		<g>
			<path class="st0" d="M393.5,38c1.7-0.5,3.5-0.6,5.3-0.6c2.1,0,2.1-3.2,0-3.2c-2.1,0-4.2,0.1-6.2,0.7
				C390.7,35.6,391.5,38.6,393.5,38L393.5,38z"/>
		</g>
		<g>
			<path class="st0" d="M392.5,27.9c1.9,0,3.8,0,5.7,0c2.1,0,2.1-3.2,0-3.2c-1.9,0-3.8,0-5.7,0C390.4,24.7,390.4,27.9,392.5,27.9
				L392.5,27.9z"/>
		</g>
		<g>
			<path class="st0" d="M388,20.8c2,0,3.9,0.6,5.6,1.7c1.7,1.1,3.3-1.7,1.6-2.8c-2.1-1.4-4.7-2.1-7.2-2.1
				C385.9,17.6,385.9,20.8,388,20.8L388,20.8z"/>
		</g>
		<g>
			<path class="st0" d="M413.4,28.3c1.8,0.9,3.5,2,5.5,2.7c1.9,0.7,2.8-2.4,0.8-3.1c-1.7-0.6-3.2-1.6-4.7-2.4
				C413.1,24.6,411.5,27.3,413.4,28.3L413.4,28.3z"/>
		</g>
		<g>
			<path class="st0" d="M435.7,38.5c1.4,0.8,2.4,2.6,3.3,3.9c1.1,1.7,3.9,0.1,2.8-1.6c-1.2-1.8-2.4-4-4.4-5
				C435.5,34.8,433.9,37.5,435.7,38.5L435.7,38.5z"/>
		</g>
		<g>
			<path class="st0" d="M424.3,41.1c0.8,1.5,2.3,2.4,3.4,3.5c1.5,1.4,3.7-0.8,2.3-2.3c-1-0.9-2.3-1.7-2.9-2.9
				c-0.4-0.8-1.5-1-2.2-0.6C424.1,39.4,423.9,40.4,424.3,41.1L424.3,41.1z"/>
		</g>
		<g>
			<path class="st0" d="M422.6,60.6c0.1,0.1,0.1,0.1,0.2,0.2c0.3,0.3-0.2-0.3,0.1,0.2c0.2,0.2,0.3,0.4,0.5,0.7
				c0.4,0.5,0.7,1.1,1.2,1.5c0.6,0.6,1.7,0.6,2.3,0c0.6-0.6,0.6-1.6,0-2.3c-0.1-0.1-0.1-0.1-0.2-0.2c-0.3-0.3,0.2,0.3-0.1-0.2
				c-0.2-0.2-0.3-0.4-0.5-0.7c-0.4-0.5-0.7-1.1-1.2-1.5c-0.6-0.6-1.7-0.6-2.3,0C422,59,422,60,422.6,60.6L422.6,60.6z"/>
		</g>
		<g>
			<path class="st0" d="M350.8,82.9c-1.2,2.7,1.1,4.6,3.1,6c0.7,0.5,1.8,0.1,2.2-0.6c0.5-0.8,0.1-1.7-0.6-2.2
				c-0.6-0.4-1.1-0.8-1.6-1.2c-0.2-0.2-0.3-0.3-0.4-0.5c0,0.1,0,0.1,0-0.1c0,0.1,0,0.1,0,0.2c0.3-0.8,0.2-1.7-0.6-2.2
				C352.3,82,351.2,82.1,350.8,82.9L350.8,82.9z"/>
		</g>
		<g>
			<path class="st0" d="M365.1,75.3c1.7,1.6,3.6,2.8,5.8,3.6c1.9,0.7,2.8-2.4,0.8-3.1c-1.7-0.6-3.1-1.6-4.4-2.8
				C365.9,71.6,363.7,73.9,365.1,75.3L365.1,75.3z"/>
		</g>
		<g>
			<path class="st0" d="M365.6,100c1.8,0,3.6-0.1,5.3-0.9c0.8-0.4,1-1.5,0.6-2.2c-0.5-0.8-1.4-0.9-2.2-0.6c-1.1,0.5-2.5,0.4-3.7,0.4
				C363.6,96.8,363.6,100,365.6,100L365.6,100z"/>
		</g>
		<g>
			<path class="st0" d="M388.6,96.8c2.1,0,4.3,0,6.4,0c2.1,0,2.1-3.2,0-3.2c-2.1,0-4.3,0-6.4,0C386.6,93.6,386.6,96.8,388.6,96.8
				L388.6,96.8z"/>
		</g>
		<g>
			<path class="st0" d="M389.5,78.9c2,0.6,4.1,0.7,6.2,0.7c2.1,0,2.1-3.2,0-3.2c-1.8,0-3.6,0-5.3-0.6
				C388.4,75.2,387.5,78.3,389.5,78.9L389.5,78.9z"/>
		</g>
		<g>
			<path class="st0" d="M403.1,61.5c1.2,0.6,2.6,0.7,3.8,1.3c0.8,0.4,1.7,0.2,2.2-0.6c0.4-0.7,0.2-1.8-0.6-2.2
				c-1.2-0.6-2.6-0.7-3.8-1.3c-0.8-0.4-1.7-0.2-2.2,0.6C402.2,60,402.4,61.1,403.1,61.5L403.1,61.5z"/>
		</g>
		<g>
			<path class="st0" d="M409.1,77c1,0,2.1,0,3,0.4c0.8,0.4,1.7,0.2,2.2-0.6c0.4-0.7,0.2-1.8-0.6-2.2c-1.5-0.7-3-0.9-4.6-0.9
				C407,73.8,407,77,409.1,77L409.1,77z"/>
		</g>
		<g>
			<path class="st0" d="M322.8,135.1c1.3,0,2.6,0,3.8,0c2.1,0,2.1-3.2,0-3.2c-1.3,0-2.6,0-3.8,0C320.8,132,320.8,135.1,322.8,135.1
				L322.8,135.1z"/>
		</g>
		<g>
			<path class="st0" d="M335.5,115.1c1.7,0.8,3.5,0.9,5.3,0.9c2.1,0,2.1-3.2,0-3.2c-1.2,0-2.6,0.1-3.7-0.4c-0.8-0.4-1.7-0.2-2.2,0.6
				C334.5,113.6,334.7,114.8,335.5,115.1L335.5,115.1z"/>
		</g>
		<g>
			<path class="st0" d="M359.2,125.6c1.9,0,3.8,0,5.7,0c2.1,0,2.1-3.2,0-3.2c-1.9,0-3.8,0-5.7,0
				C357.2,122.4,357.2,125.6,359.2,125.6L359.2,125.6z"/>
		</g>
		<g>
			<path class="st0" d="M344.7,150.3c1.7-1.1,3.5-1.8,5.4-2.4c1.9-0.6,1.1-3.7-0.8-3.1c-2.1,0.7-4.2,1.5-6.1,2.7
				C341.4,148.6,343,151.4,344.7,150.3L344.7,150.3z"/>
		</g>
		<g>
			<path class="st0" d="M302,161.9c2,0.7,4,1.3,6.2,1.3c2.1,0,2.1-3.1,0-3.2c-1.8,0-3.6-0.6-5.3-1.2
				C300.9,158.2,300,161.3,302,161.9L302,161.9z"/>
		</g>
		<g>
			<path class="st0" d="M340.1,167.1c1.5,0,3,0,4.5,0c2.1,0,2.1-3.2,0-3.2c-1.5,0-3,0-4.5,0C338,163.9,338,167.1,340.1,167.1
				L340.1,167.1z"/>
		</g>
		<g>
			<path class="st0" d="M404.4,156.8c2.2-0.6,4.3-1.2,6.6-1.2c2.1,0,2.1-3.2,0-3.2c-2.6,0-5,0.7-7.4,1.3
				C401.5,154.2,402.4,157.3,404.4,156.8L404.4,156.8z"/>
		</g>
		<g>
			<path class="st0" d="M409.1,140.9c2.7,0,5.4-0.1,8.1-0.7c2-0.5,1.2-3.5-0.8-3.1c-2.4,0.6-4.8,0.6-7.2,0.6
				C407,137.7,407,140.9,409.1,140.9L409.1,140.9z"/>
		</g>
		<g>
			<path class="st0" d="M439.9,130.8c1.5,1.5,3.1,2.9,5.2,3.6c1.9,0.7,2.8-2.4,0.8-3.1c-1.5-0.5-2.6-1.7-3.8-2.8
				C440.7,127.1,438.4,129.4,439.9,130.8L439.9,130.8z"/>
		</g>
		<g>
			<path class="st0" d="M435.7,144.5c1,0.5,1.4,1.5,2,2.6c0.4,0.8,1.5,1,2.2,0.6c0.8-0.5,1-1.4,0.6-2.2c-0.7-1.5-1.6-3-3.1-3.8
				c-0.8-0.4-1.7-0.2-2.2,0.6C434.7,143.1,434.9,144.1,435.7,144.5L435.7,144.5z"/>
		</g>
		<g>
			<path class="st0" d="M420.6,116c1.8,0,3.6-0.1,5.3-0.9c0.8-0.4,1-1.5,0.6-2.2c-0.5-0.8-1.4-0.9-2.2-0.6c-1.1,0.5-2.5,0.4-3.7,0.4
				C418.5,112.8,418.5,116,420.6,116L420.6,116z"/>
		</g>
		<g>
			<path class="st0" d="M446.7,107c2.2,0,4.4,0.1,6.6,0.6c2,0.5,2.9-2.6,0.8-3.1c-2.5-0.6-4.9-0.7-7.4-0.7
				C444.7,103.9,444.7,107,446.7,107L446.7,107z"/>
		</g>
		<g>
			<path class="st0" d="M439.1,120.5c1.6,0,3.1-0.2,4.6-0.9c0.8-0.4,1-1.5,0.6-2.2c-0.5-0.8-1.4-0.9-2.2-0.6c-0.9,0.4-2,0.4-3,0.4
				C437,117.3,437,120.5,439.1,120.5L439.1,120.5z"/>
		</g>
		<g>
			<path class="st0" d="M471.5,127c1.1-1.1,2.3-1.7,3.8-2.1c1.9-0.7,1.1-3.7-0.8-3.1c-1.9,0.7-3.7,1.5-5.2,3
				C467.8,126.2,470,128.5,471.5,127L471.5,127z"/>
		</g>
		<g>
			<path class="st0" d="M484.9,111.7c1.4-1.4,3.1-2.3,5-2.8c2-0.5,1.1-3.6-0.8-3.1c-2.4,0.6-4.6,1.8-6.5,3.6
				C481.2,110.9,483.4,113.1,484.9,111.7L484.9,111.7z"/>
		</g>
		<g>
			<path class="st0" d="M473.1,98c3.1,0.8,6,1.2,9.2,0.6c2-0.4,1.2-3.4-0.8-3.1c-2.6,0.5-5,0-7.5-0.6C472,94.5,471.1,97.6,473.1,98
				L473.1,98z"/>
		</g>
		<g>
			<path class="st0" d="M446.2,78.5c1.3,1.3,2.6,2.6,3.8,3.8c1.5,1.5,3.7-0.8,2.3-2.3c-1.3-1.3-2.6-2.6-3.8-3.8
				C447,74.8,444.8,77,446.2,78.5L446.2,78.5z"/>
		</g>
		<g>
			<path class="st0" d="M438.3,89c1.3,1.9,2.6,3.8,3.8,5.7c1.1,1.7,3.9,0.1,2.8-1.6c-1.3-1.9-2.6-3.8-3.8-5.7
				C440,85.7,437.2,87.3,438.3,89L438.3,89z"/>
		</g>
		<g>
			<path class="st0" d="M463.7,79.7c0.9,2.6,2.3,5.1,4.2,7.1c1.4,1.5,3.7-0.8,2.3-2.3c-1.6-1.6-2.7-3.6-3.4-5.7
				C466.1,76.9,463,77.7,463.7,79.7L463.7,79.7z"/>
		</g>
		<g>
			<path class="st0" d="M458.4,67.4c2.6,0.9,5.3,1.9,8.1,2c2.1,0.1,2.1-3.1,0-3.2c-2.5-0.1-4.9-1.1-7.2-1.9
				C457.3,63.7,456.5,66.7,458.4,67.4L458.4,67.4z"/>
		</g>
		<g>
			<path class="st0" d="M465.3,53.4c1.3,0,2.5,0.5,3.7,1.1c1.8,0.9,3.5-1.9,1.6-2.8c-1.6-0.8-3.4-1.4-5.3-1.5
				C463.2,50.2,463.2,53.3,465.3,53.4L465.3,53.4z"/>
		</g>
		<g>
			<path class="st0" d="M484.1,68.8c1.4,3.5,3.3,6.7,5.3,10c1.1,1.8,3.8,0.2,2.8-1.6c-1.8-3-3.6-6-4.9-9.2
				C486.5,66.1,483.4,66.9,484.1,68.8L484.1,68.8z"/>
		</g>
		<g>
			<path class="st0" d="M473.2,65.2c0,1.9,0.2,4.2,2.1,5.2c1.8,1,3.4-1.7,1.6-2.8c-0.2-0.1-0.2-0.1-0.1-0.1
				c-0.1-0.1-0.2-0.2-0.1-0.1c-0.1-0.2-0.1-0.4-0.2-0.7c-0.1-0.4-0.1-1.1-0.1-1.6C476.4,63.2,473.2,63.2,473.2,65.2L473.2,65.2z"/>
		</g>
		<g>
			<path class="st0" d="M481.1,83.8c2.1,1.4,4.2,2.7,6.4,3.8c1.8,0.9,3.4-1.8,1.6-2.8c-2.2-1.1-4.3-2.5-6.4-3.8
				C480.9,79.9,479.3,82.7,481.1,83.8L481.1,83.8z"/>
		</g>
		<g>
			<path class="st0" d="M496.2,90.1c0,3,0.8,5.8,1.3,8.7c0.4,2,3.5,1.2,3.1-0.8c-0.5-2.6-1.2-5.2-1.2-7.9
				C499.4,88.1,496.2,88.1,496.2,90.1L496.2,90.1z"/>
		</g>
		<g>
			<path class="st0" d="M216.8,29.8c2,0,4,0.1,6,0.6c2,0.5,2.9-2.6,0.8-3.1c-2.3-0.5-4.5-0.7-6.8-0.7
				C214.8,26.6,214.8,29.8,216.8,29.8L216.8,29.8z"/>
		</g>
		<g>
			<path class="st0" d="M241.3,37.6c1.7,1.7,3.4,3.4,5.4,4.7c1.7,1.2,3.3-1.6,1.6-2.8c-1.8-1.2-3.3-2.7-4.8-4.2
				C242.1,33.9,239.8,36.2,241.3,37.6L241.3,37.6z"/>
		</g>
		<g>
			<path class="st0" d="M256.9,34.7c1.1,0.6,2,1.9,3.2,2.6c0.8,0.4,1.7,0.2,2.2-0.6c0.4-0.7,0.2-1.8-0.6-2.2c-1.1-0.6-2-1.9-3.2-2.6
				c-0.8-0.4-1.7-0.2-2.2,0.6C255.9,33.2,256.1,34.3,256.9,34.7L256.9,34.7z"/>
		</g>
		<g>
			<path class="st0" d="M242.4,6.1c2.6,0,5.1,0,7.7,0c2.1,0,2.1-3.2,0-3.2c-2.6,0-5.1,0-7.7,0C240.3,3,240.3,6.1,242.4,6.1
				L242.4,6.1z"/>
		</g>
		<g>
			<path class="st0" d="M250.6,13c0.6,1.3,1.3,2.6,1.9,3.8c0.4,0.8,1.5,1,2.2,0.6c0.8-0.5,1-1.4,0.6-2.2c-0.6-1.3-1.3-2.6-1.9-3.8
				c-0.4-0.8-1.5-1-2.2-0.6C250.4,11.3,250.2,12.2,250.6,13L250.6,13z"/>
		</g>
		<g>
			<path class="st0" d="M178.5,9.3c1.9,0,3.8,0,5.7,0c2.1,0,2.1-3.2,0-3.2c-1.9,0-3.8,0-5.7,0C176.5,6.1,176.5,9.3,178.5,9.3
				L178.5,9.3z"/>
		</g>
		<g>
			<path class="st0" d="M154.5,31.6c1.8,0.6,3.2,2,4.7,3c1.7,1.2,3.3-1.6,1.6-2.8c-1.8-1.2-3.4-2.6-5.5-3.4
				C153.4,27.9,152.6,30.9,154.5,31.6L154.5,31.6z"/>
		</g>
		<g>
			<path class="st0" d="M141.5,31.1c1.5,0,3,0,4.5,0c2.1,0,2.1-3.2,0-3.2c-1.5,0-3,0-4.5,0C139.4,27.9,139.4,31.1,141.5,31.1
				L141.5,31.1z"/>
		</g>
		<g>
			<path class="st0" d="M144,14.5c3.2,0,6.3-0.1,9.4-0.7c2-0.4,1.2-3.5-0.8-3.1c-2.8,0.5-5.7,0.6-8.5,0.6
				C142,11.3,142,14.5,144,14.5L144,14.5z"/>
		</g>
		<g>
			<path class="st0" d="M320.5,24c2.4,0.8,4.9,1.3,7.4,1.3c2.1,0,2.1-3.2,0-3.2c-2.3,0-4.4-0.5-6.6-1.2
				C319.4,20.3,318.6,23.3,320.5,24L320.5,24z"/>
		</g>
		<g>
			<path class="st0" d="M314.5,10.6c1.7,0,3.4-0.6,5.1-0.6c2.1,0,2.1-3.2,0-3.2c-1.7,0-3.4,0.6-5.1,0.6
				C312.5,7.5,312.5,10.7,314.5,10.6L314.5,10.6z"/>
		</g>
		<g>
			<path class="st0" d="M300.4,29.6c1,1.8,2.9,2.7,4.8,3.3c2,0.7,2.8-2.4,0.8-3.1c-0.7-0.2-1.3-0.5-1.9-0.8c-0.5-0.3-0.7-0.5-0.9-1
				C302.2,26.2,299.4,27.8,300.4,29.6L300.4,29.6z"/>
		</g>
		<g>
			<path class="st0" d="M371.8,59.7c2.8-0.7,5.5-1.5,8-2.7c1.9-0.9,0.2-3.6-1.6-2.8c-2.3,1.1-4.8,1.8-7.3,2.4
				C369,57.2,369.8,60.2,371.8,59.7L371.8,59.7z"/>
		</g>
		<g>
			<path class="st0" d="M382.7,43.8c2.2-0.7,4.3-1.2,6.6-1.2c2.1,0,2.1-3.2,0-3.2c-2.5,0-5,0.5-7.4,1.3
				C379.9,41.3,380.7,44.4,382.7,43.8L382.7,43.8z"/>
		</g>
		<g>
			<path class="st0" d="M399.2,47.8c0.8,2.3,2.5,4.1,4.2,5.8c1.5,1.5,3.7-0.8,2.3-2.3c-1.3-1.3-2.8-2.7-3.4-4.4
				C401.6,45,398.5,45.8,399.2,47.8L399.2,47.8z"/>
		</g>
		<g>
			<path class="st0" d="M416.7,52.1c1.7,0,3.4,0,5.1,0c2.1,0,2.1-3.2,0-3.2c-1.7,0-3.4,0-5.1,0C414.7,48.9,414.7,52.1,416.7,52.1
				L416.7,52.1z"/>
		</g>
		<g>
			<path class="st0" d="M405.6,34.4c0.9,2.5,3.1,4.1,5.6,4.9c1.9,0.7,2.8-2.4,0.8-3.1c-1.3-0.5-2.8-1.3-3.4-2.7
				C408,31.6,404.9,32.4,405.6,34.4L405.6,34.4z"/>
		</g>
		<g>
			<path class="st0" d="M402.2,22.1c1.7,0.6,3.4,1.3,5.1,1.9c2,0.7,2.8-2.4,0.8-3.1c-1.7-0.6-3.4-1.3-5.1-1.9
				C401.1,18.3,400.3,21.4,402.2,22.1L402.2,22.1z"/>
		</g>
		<g>
			<path class="st0" d="M429.7,30.4c3.1,1.3,5.9,3,8.6,4.9c1.7,1.2,3.2-1.5,1.6-2.8c-2.9-2.1-6-3.9-9.3-5.3
				C428.7,26.5,427.8,29.6,429.7,30.4L429.7,30.4z"/>
		</g>
		<g>
			<path class="st0" d="M459,44c1.2,1.2,2.6,2.3,4.3,2.4c0.9,0,1.6-0.8,1.6-1.6c0-0.9-0.7-1.6-1.6-1.6c-0.3,0-0.6-0.2-1-0.5
				c-0.3-0.2-0.7-0.6-1-0.9C459.8,40.3,457.6,42.5,459,44L459,44z"/>
		</g>
	</g>
	<g>
		<g>
			<path class="st1" d="M26.4,151.6c1.2,2.2,3.7,3.7,5.7,5c1.7,1.2,3.3-1.6,1.6-2.8c-1.5-1-3.6-2.2-4.5-3.9
				C28.2,148.2,25.4,149.8,26.4,151.6L26.4,151.6z"/>
		</g>
		<g>
			<path class="st1" d="M18.6,159.1c0.1,3.8,1.2,7.2,2.6,10.6c0.8,1.9,3.8,1.1,3.1-0.8c-1.3-3.2-2.4-6.3-2.5-9.8
				C21.7,157,18.5,157,18.6,159.1L18.6,159.1z"/>
		</g>
		<g>
			<path class="st1" d="M32.8,170c1.4,0.8,2.4,2.6,3.3,3.9c1.1,1.7,3.9,0.1,2.8-1.6c-1.2-1.8-2.4-4-4.4-5
				C32.6,166.3,31,169.1,32.8,170L32.8,170z"/>
		</g>
		<g>
			<path class="st1" d="M35.3,189.2c3.3,1.9,6.9,3.2,10.2,5.1c1.8,1,3.4-1.7,1.6-2.8c-3.3-1.9-6.9-3.2-10.2-5.1
				C35.1,185.4,33.5,188.2,35.3,189.2L35.3,189.2z"/>
		</g>
		<g>
			<path class="st1" d="M64.2,200.9c3.2,0,6.4,0,9.6,0c2.1,0,2.1-3.2,0-3.2c-3.2,0-6.4,0-9.6,0C62.2,197.7,62.2,200.9,64.2,200.9
				L64.2,200.9z"/>
		</g>
		<g>
			<path class="st1" d="M52.7,186.2c3.1,0,6.1,0,9.2,0.6c2,0.4,2.9-2.7,0.8-3.1c-3.3-0.6-6.6-0.7-10-0.7
				C50.7,183,50.7,186.2,52.7,186.2L52.7,186.2z"/>
		</g>
		<g>
			<path class="st1" d="M50,169.6c2.6-0.6,5.2-1.3,7.4-2.7c1.7-1.1,0.1-3.9-1.6-2.8c-2,1.3-4.4,1.8-6.6,2.4
				C47.1,167,48,170.1,50,169.6L50,169.6z"/>
		</g>
		<g>
			<path class="st1" d="M73.6,175.2c2.9,1.5,5.4,3.6,7.3,6.1c1.3,1.6,3.5-0.7,2.3-2.3c-2.1-2.7-4.9-5.1-8-6.6
				C73.4,171.5,71.8,174.2,73.6,175.2L73.6,175.2z"/>
		</g>
		<g>
			<path class="st1" d="M72.7,186.4c1.7,1.7,3.4,3.4,5.4,4.7c1.7,1.2,3.3-1.6,1.6-2.8c-1.8-1.2-3.3-2.7-4.8-4.2
				C73.5,182.7,71.2,184.9,72.7,186.4L72.7,186.4z"/>
		</g>
		<g>
			<path class="st1" d="M83.8,220c2.8-0.7,5.5-1.5,8-2.7c1.9-0.9,0.2-3.6-1.6-2.8c-2.3,1.1-4.8,1.8-7.3,2.4
				C81,217.4,81.8,220.5,83.8,220L83.8,220z"/>
		</g>
		<g>
			<path class="st1" d="M68.7,211.1c1.3,0,2.6,0,3.8,0c2.1,0,2.1-3.2,0-3.2c-1.3,0-2.6,0-3.8,0C66.6,207.9,66.6,211.1,68.7,211.1
				L68.7,211.1z"/>
		</g>
		<g>
			<path class="st1" d="M94,204.7c2.6-0.6,5.2-0.6,7.9-0.6c2.1,0,2.1-3.2,0-3.2c-2.9,0-5.9,0-8.7,0.7C91.2,202.1,92,205.2,94,204.7
				L94,204.7z"/>
		</g>
		<g>
			<path class="st1" d="M95.7,189.4c2.8,0.7,5.5,1.4,8.3,1.9c2,0.4,2.9-2.7,0.8-3.1c-2.8-0.6-5.5-1.2-8.3-1.9
				C94.6,185.8,93.7,188.9,95.7,189.4L95.7,189.4z"/>
		</g>
		<g>
			<path class="st1" d="M112.3,187.7c1.3,1.2,3.3,1.1,5,1.1c2.1,0,2.1-3.2,0-3.2c-0.6,0-1.1,0-1.7,0c-0.2,0-0.4,0-0.6-0.1
				c-0.2,0-0.5-0.2-0.4-0.1c-0.7-0.6-1.6-0.6-2.3,0C111.7,186,111.6,187.1,112.3,187.7L112.3,187.7z"/>
		</g>
		<g>
			<path class="st1" d="M138.9,204.1c2.4,0,4.9,0,7.2,0.6c2,0.5,2.9-2.6,0.8-3.1c-2.7-0.6-5.4-0.7-8.1-0.7
				C136.9,200.9,136.9,204.1,138.9,204.1L138.9,204.1z"/>
		</g>
		<g>
			<path class="st1" d="M117.2,215.6c2.3,0,4.7,0,7,0c2.1,0,2.1-3.2,0-3.2c-2.3,0-4.7,0-7,0C115.2,212.4,115.2,215.6,117.2,215.6
				L117.2,215.6z"/>
		</g>
		<g>
			<path class="st1" d="M112.6,225c2.7,2,5.4,3.9,8.7,4.6c2,0.5,2.9-2.6,0.8-3.1c-3-0.7-5.5-2.5-7.9-4.3
				C112.5,221,111,223.7,112.6,225L112.6,225z"/>
		</g>
		<g>
			<path class="st1" d="M146.2,232.2c2.5,0.6,5.1,0.7,7.7,1.3c2,0.5,2.9-2.6,0.8-3.1c-2.5-0.6-5.1-0.7-7.7-1.3
				C145,228.6,144.2,231.7,146.2,232.2L146.2,232.2z"/>
		</g>
		<g>
			<path class="st1" d="M159.4,216.9c2.1,0,4.2-0.6,6.4-0.6c2.1,0,2.1-3.2,0-3.2c-2.2,0-4.2,0.6-6.4,0.6
				C157.3,213.7,157.3,216.9,159.4,216.9L159.4,216.9z"/>
		</g>
		<g>
			<path class="st1" d="M177.9,206c2.1,0,4.2-0.1,6.2-0.7c2-0.6,1.1-3.7-0.8-3.1c-1.7,0.5-3.5,0.6-5.3,0.6
				C175.8,202.8,175.8,206,177.9,206L177.9,206z"/>
		</g>
		<g>
			<path class="st1" d="M149.1,193.3c2.1,0,4.3,0,6.4,0c2.1,0,2.1-3.2,0-3.2c-2.1,0-4.3,0-6.4,0
				C147.1,190.1,147.1,193.3,149.1,193.3L149.1,193.3z"/>
		</g>
		<g>
			<path class="st1" d="M215.4,228.8c2.4,1.1,5.7,1.5,8.3,0.8c2-0.6,1.1-3.7-0.8-3.1c-1.7,0.5-4.2,0.3-5.8-0.5
				C215.1,225.2,213.5,227.9,215.4,228.8L215.4,228.8z"/>
		</g>
		<g>
			<path class="st1" d="M183.5,235.2c2.9,2.1,6.5,3.3,10,4c2,0.4,2.9-2.7,0.8-3.1c-3.3-0.7-6.5-1.7-9.2-3.7
				C183.4,231.2,181.8,234,183.5,235.2L183.5,235.2z"/>
		</g>
		<g>
			<path class="st1" d="M195.1,220.1c2.7-0.1,5-1.3,7.2-2.8c1.7-1.1,0.1-3.9-1.6-2.8c-1.7,1.2-3.4,2.3-5.6,2.3
				C193.1,216.9,193.1,220.1,195.1,220.1L195.1,220.1z"/>
		</g>
		<g>
			<path class="st1" d="M218.1,205.4c3.2,0,6.4-0.6,9.6-0.6c2.1,0,2.1-3.2,0-3.2c-3.2,0-6.4,0.6-9.6,0.6
				C216.1,202.2,216.1,205.4,218.1,205.4L218.1,205.4z"/>
		</g>
		<g>
			<path class="st1" d="M255.6,206.5c2.2,1.4,4.7,2.1,7,3.2c1.8,0.9,3.5-1.9,1.6-2.8c-2.3-1.1-4.8-1.8-7-3.2
				C255.5,202.6,253.9,205.4,255.6,206.5L255.6,206.5z"/>
		</g>
		<g>
			<path class="st1" d="M248.3,221.9c1.3,0.4,2.8,0.5,4.1,1.1c0.8,0.4,1.7,0.2,2.2-0.6c0.4-0.7,0.2-1.8-0.6-2.2
				c-1.5-0.7-3.2-0.9-4.9-1.4C247.2,218.2,246.4,221.3,248.3,221.9L248.3,221.9z"/>
		</g>
		<g>
			<path class="st1" d="M247.7,241.6c1.3-0.6,2.9-0.4,4.3-0.4c2.1,0,2.1-3.2,0-3.2c-2,0-4,0-5.9,0.9c-0.8,0.4-1,1.5-0.6,2.2
				C245.9,241.8,246.9,241.9,247.7,241.6L247.7,241.6z"/>
		</g>
		<g>
			<path class="st1" d="M299.9,220.7c2.6,0,5-0.7,7.4-1.3c2-0.5,1.1-3.6-0.8-3.1c-2.2,0.6-4.3,1.2-6.6,1.2
				C297.8,217.6,297.8,220.8,299.9,220.7L299.9,220.7z"/>
		</g>
		<g>
			<path class="st1" d="M4.6,129.5c0.8,2.2,2,4.1,2.6,6.4c0.5,2,3.6,1.1,3.1-0.8c-0.6-2.2-1.8-4.2-2.6-6.4
				C7,126.7,3.9,127.6,4.6,129.5L4.6,129.5z"/>
		</g>
		<g>
			<path class="st1" d="M52.1,179.2c3.5,0,6.8-0.7,10-2c1.9-0.7,1.1-3.8-0.8-3.1c-3,1.1-6,1.8-9.2,1.9C50,176,50,179.2,52.1,179.2
				L52.1,179.2z"/>
		</g>
		<g>
			<path class="st1" d="M44.9,183.8c1.4-1.6,1.6-4,1-6c-0.6-2-3.7-1.1-3.1,0.8c0.3,0.9,0.3,2.3-0.2,2.9
				C41.3,183.1,43.5,185.4,44.9,183.8L44.9,183.8z"/>
		</g>
		<g>
			<path class="st1" d="M52.6,198.2c1.3,2.7,1.9,5.6,3.2,8.3c0.9,1.9,3.6,0.2,2.8-1.6c-1.3-2.7-1.9-5.6-3.2-8.3
				C54.5,194.7,51.7,196.4,52.6,198.2L52.6,198.2z"/>
		</g>
		<g>
			<path class="st1" d="M80.2,209.9c2.6,0,5.1,0,7.7,0c2.1,0,2.1-3.2,0-3.2c-2.6,0-5.1,0-7.7,0C78.1,206.7,78.1,209.9,80.2,209.9
				L80.2,209.9z"/>
		</g>
		<g>
			<path class="st1" d="M81.5,200.3c3.2,0,6.4-0.8,8.8-3c1.5-1.4-0.8-3.7-2.3-2.3c-1.7,1.6-4.2,2.1-6.5,2.1
				C79.4,197.1,79.4,200.3,81.5,200.3L81.5,200.3z"/>
		</g>
		<g>
			<path class="st1" d="M89.4,188.9c0.6-2.3,1.1-4.6,2.4-6.6c1.1-1.7-1.7-3.3-2.8-1.6c-1.4,2.2-2.1,4.9-2.7,7.4
				C85.8,190,88.9,190.9,89.4,188.9L89.4,188.9z"/>
		</g>
		<g>
			<path class="st1" d="M97.8,198.3c2.3-0.7,5-1.2,7.5-0.6c2,0.4,2.9-2.6,0.8-3.1c-3-0.6-6.3-0.3-9.2,0.6
				C95,195.8,95.9,198.9,97.8,198.3L97.8,198.3z"/>
		</g>
		<g>
			<path class="st1" d="M100.7,216.7c1.5-2,3.6-3.7,6.1-4.4c2-0.5,1.1-3.6-0.8-3.1c-3.3,0.9-5.9,3.2-8,5.8
				C96.7,216.8,99.5,218.3,100.7,216.7L100.7,216.7z"/>
		</g>
		<g>
			<path class="st1" d="M101.3,225.2c2.1,0,2.1-3.2,0-3.2S99.2,225.2,101.3,225.2L101.3,225.2z"/>
		</g>
		<g>
			<path class="st1" d="M101.9,225.2c1.3,0,2.6,0,3.8,0c2.1,0,2.1-3.2,0-3.2c-1.3,0-2.6,0-3.8,0C99.8,222,99.8,225.2,101.9,225.2
				L101.9,225.2z"/>
		</g>
		<g>
			<path class="st1" d="M110.8,203.5c2.4,0,4.8,0.4,6.9,1.7c1.8,1.1,3.4-1.7,1.6-2.8c-2.5-1.6-5.6-2.1-8.5-2.1
				C108.8,200.3,108.8,203.4,110.8,203.5L110.8,203.5z"/>
		</g>
		<g>
			<path class="st1" d="M124.9,195.2c2.6,0,5.1,0,7.7,0c2.1,0,2.1-3.2,0-3.2c-2.6,0-5.1,0-7.7,0C122.8,192,122.8,195.2,124.9,195.2
				L124.9,195.2z"/>
		</g>
		<g>
			<path class="st1" d="M133.8,213.1c2.4,0,4.7,0.6,7,0.6c2.1,0,2.1-3.2,0-3.2c-2.4,0-4.7-0.6-7-0.6
				C131.8,209.8,131.8,213,133.8,213.1L133.8,213.1z"/>
		</g>
		<g>
			<path class="st1" d="M131.5,225.8c1.7,0.6,3.2,1.4,4.7,2.4c1.7,1.1,3.3-1.6,1.6-2.8c-1.7-1.1-3.5-2-5.5-2.7
				C130.4,222,129.5,225.1,131.5,225.8L131.5,225.8z"/>
		</g>
		<g>
			<path class="st1" d="M160,225.8c1.6,0,3.1-0.2,4.6-0.9c0.8-0.4,1-1.5,0.6-2.2c-0.5-0.8-1.4-0.9-2.2-0.6c-0.9,0.4-2,0.4-3,0.4
				C157.9,222.6,157.9,225.8,160,225.8L160,225.8z"/>
		</g>
		<g>
			<path class="st1" d="M162.6,204.1c-0.3-0.1-0.4-0.1-0.2,0c-0.1,0-0.2-0.1-0.3-0.1c0.1,0.1,0.1,0-0.2-0.1c0.1,0.1,0.2,0.2,0.3,0.3
				c0.5,0.4,1,0.6,1.6,0.7c0.9,0,1.6-0.8,1.6-1.6c0-0.9-0.7-1.6-1.6-1.6c0.3,0.1,0.4,0.1,0.2,0c0.1,0,0.2,0.1,0.3,0.1
				c-0.1-0.1-0.1,0,0.2,0.1c-0.1-0.1-0.2-0.2-0.3-0.3c-0.5-0.4-1-0.6-1.6-0.7c-0.9,0-1.6,0.8-1.6,1.6
				C161,203.4,161.7,204.1,162.6,204.1L162.6,204.1z"/>
		</g>
		<g>
			<path class="st1" d="M144.5,221.8c1.9,0.9,3.8,1.5,5.9,1.5c2.1,0,2.1-3.1,0-3.2c-1.5,0-3-0.4-4.3-1.1
				C144.3,218.1,142.7,220.9,144.5,221.8L144.5,221.8z"/>
		</g>
		<g>
			<path class="st1" d="M349,195.8c1.9,0,3.8,0,5.7,0c2.1,0,2.1-3.2,0-3.2c-1.9,0-3.8,0-5.7,0C347,192.6,347,195.8,349,195.8
				L349,195.8z"/>
		</g>
		<g>
			<path class="st1" d="M362.9,227.9c1.3-1.3,2.6-2.6,3.8-3.8c1.5-1.5-0.8-3.7-2.3-2.3c-1.3,1.3-2.6,2.6-3.8,3.8
				C359.2,227.1,361.5,229.4,362.9,227.9L362.9,227.9z"/>
		</g>
		<g>
			<path class="st1" d="M328.9,234.4c0-0.1,0-0.2,0-0.3c0,0.5,0,0.1,0,0c0.1-0.4-0.1,0.2,0,0c0.2-0.4-0.2,0.2,0,0
				c0.2-0.2-0.3,0.2-0.1,0.1c0.3-0.2-0.3,0.1,0,0c0.1,0,0.2-0.1,0.3-0.1c-0.5,0.1-0.1,0,0.1,0c0.9,0,1.6-0.7,1.6-1.6
				c0-0.9-0.7-1.6-1.6-1.6c-1,0-1.9,0.3-2.6,0.9c-0.7,0.7-0.9,1.6-0.9,2.6c0,0.9,0.7,1.6,1.6,1.6C328.2,236,328.9,235.3,328.9,234.4
				L328.9,234.4z"/>
		</g>
		<g>
			<path class="st1" d="M408.6,194.5c1.6,0.5,3.2,1,4.7,1.8c1.8,0.9,3.5-1.9,1.6-2.8c-1.8-0.9-3.6-1.5-5.5-2.1
				C407.5,190.7,406.7,193.8,408.6,194.5L408.6,194.5z"/>
		</g>
		<g>
			<path class="st1" d="M426.7,180.4c1.9-0.6,3.9-0.7,5.7-1.3c2-0.6,1.1-3.7-0.8-3.1c-1.9,0.6-3.9,0.7-5.7,1.3
				C423.9,178,424.8,181,426.7,180.4L426.7,180.4z"/>
		</g>
		<g>
			<path class="st1" d="M39.1,202c1.9,1.3,3.8,2.6,5.4,4.2c1.5,1.4,3.7-0.8,2.3-2.3c-1.8-1.8-3.9-3.3-6.1-4.7
				C39,198.1,37.4,200.8,39.1,202L39.1,202z"/>
		</g>
		<g>
			<path class="st1" d="M25.4,186.1c2-2.6,4.4-5,6.4-7.7c1.2-1.6-1.5-3.2-2.8-1.6c-2,2.6-4.4,5-6.4,7.7
				C21.4,186.1,24.1,187.7,25.4,186.1L25.4,186.1z"/>
		</g>
		<g>
			<path class="st1" d="M39.9,161.3c2.2,0.1,3.8,1.3,5.3,2.7c1.5,1.4,3.7-0.8,2.3-2.3c-2.1-2.1-4.5-3.6-7.5-3.7
				C37.9,158.1,37.9,161.3,39.9,161.3L39.9,161.3z"/>
		</g>
		<g>
			<path class="st1" d="M62.3,195.2c1.9,0,3.8,0,5.7,0c2.1,0,2.1-3.2,0-3.2c-1.9,0-3.8,0-5.7,0C60.2,192,60.2,195.2,62.3,195.2
				L62.3,195.2z"/>
		</g>
		<g>
			<path class="st1" d="M68.3,181.9c0.6-2.5,0.7-5.1,1.3-7.7c0.5-2-2.6-2.9-3.1-0.8c-0.6,2.5-0.7,5.1-1.3,7.7
				C64.8,183,67.8,183.9,68.3,181.9L68.3,181.9z"/>
		</g>
		<g>
			<path class="st1" d="M96.8,183c2,0,4,0,6,0.6c2,0.6,2.8-2.5,0.8-3.1c-2.2-0.7-4.5-0.7-6.8-0.7C94.7,179.8,94.7,183,96.8,183
				L96.8,183z"/>
		</g>
		<g>
			<path class="st1" d="M71.2,217.5c2.6,0,5.1,0,7.7,0c2.1,0,2.1-3.2,0-3.2c-2.6,0-5.1,0-7.7,0C69.2,214.3,69.2,217.5,71.2,217.5
				L71.2,217.5z"/>
		</g>
	</g>
</g>
<g>
</g>
<g>
</g>
<g>
</g>
<g>
</g>
<g>
</g>
<g>
</g>
<g>
</g>
<g>
</g>
<g>
</g>
<g>
</g>
<g>
</g>
</svg>
