<?xml version="1.0" encoding="utf-8"?>
<!-- Generator: Adobe Illustrator 26.0.1, SVG Export Plug-In . SVG Version: 6.00 Build 0)  -->
<svg version="1.1" id="Layer_1" xmlns="http://www.w3.org/2000/svg" xmlns:xlink="http://www.w3.org/1999/xlink" x="0px" y="0px"
	 viewBox="0 0 521.2 292.5" style="enable-background:new 0 0 521.2 292.5;" xml:space="preserve">
<style type="text/css">
	.st0{fill:#FFA944;}
	.st1{fill:#EAE8A9;}
	.st2{opacity:0.7;fill:#FFC050;}
	.st3{fill:#F68D32;}
	.st4{opacity:0.2;fill:#FFC050;}
</style>
<g>
	<path class="st0" d="M2.4,199.8c0,0,23.9,91.2,260.2,92.7c234.9,1.4,257.4-95.6,257.4-95.6s2.4-38,0.5-53.8
		C514.8,95.8,476.3,1.1,259,0C58.6-1,11.7,83.3,1.8,134.8C-2.6,157.4,2.4,199.8,2.4,199.8z"/>
	<path class="st1" d="M422.4,60.7c-0.3,1.3,5.2,5.7,7.4,6.3c3.1,0.8,11-0.9,10.7-2.9c-0.3-2-4.5-5.8-7.6-6.6
		C430.1,56.7,423.1,57.5,422.4,60.7z"/>
	<path class="st2" d="M30.2,215.8c2,10.2,30,25.1,50.6,36c20.6,10.9,96.4,30.5,106.3,28.3c17.5-3.9,13.8-45,5-61.8
		c-7.4-14.2-43.1-55.3-72.5-60.5c-29.4-5.1-82.5-12.9-88.1,0.6C25.8,172,26.5,197.1,30.2,215.8z"/>
	<path class="st3" d="M518.9,140.6C512.2,92.6,471.3,1.1,257.8,0C64-1,14.8,78.4,2.7,130.2c1.4,3.2,1.8,5.5,3,7.4
		c6.8,10,14.4,18.4,25.3,23.5c21.8,10.1,47.4,0.6,69.2,11.5c22.5,11.3,37.5,33.1,60.5,44.9c30.7,15.8,62.7,15.1,94.2,1.4
		c29.5-12.8,55.9-13.5,87.2-7.3c26.7,5.3,63.9,7.6,87.3-11.6c8.4-6.9,9.5-18.5,16.9-26.4c7.8-8.5,19.9-12.6,30.9-15.6
		C494.9,153.3,509.4,151,518.9,140.6z"/>
	<path class="st1" d="M118.9,120.7c1,0.9,7.3-2.1,8.9-3.9c2.1-2.4,4.4-10.4,2.5-11.1c-1.9-0.6-7.1,1.4-9.2,3.9
		C119.1,111.8,116.5,118.6,118.9,120.7z"/>
	<path class="st1" d="M86.4,81.4c1,0.9,7.3-2.1,8.9-3.9c2.1-2.4,4.4-10.4,2.5-11.1c-1.9-0.6-7.1,1.4-9.2,3.9
		C86.6,72.6,84,79.4,86.4,81.4z"/>
	<path class="st1" d="M212.2,45.2c-0.1,1.3,5.8,5,8.1,5.3c3.2,0.4,10.8-2.3,10.2-4.2c-0.6-2-5.2-5.2-8.4-5.6
		C219.4,40.3,212.5,42,212.2,45.2z"/>
	<path class="st1" d="M158.1,32.5c-1,0.9,0.9,7.8,2.4,9.6c2,2.5,9.4,6,10.3,4.2c0.9-1.8-0.3-7.5-2.4-10
		C166.6,34,160.4,30.4,158.1,32.5z"/>
	<path class="st1" d="M214.7,10.3c-0.5-1.2-7.4-1.8-9.6-1c-3,1.1-8.7,7-7.3,8.5c1.3,1.5,6.9,2.3,9.9,1.2
		C210.4,18,215.8,13.3,214.7,10.3z"/>
	<path class="st1" d="M188.6,84.9c-0.6,1.2,3.7,6.9,5.7,8c2.8,1.6,10.9,2,11-0.1c0.2-2-3-6.8-5.8-8.4C197,83.1,190,82.1,188.6,84.9z
		"/>
	<path class="st1" d="M117.4,28.9c0.2,1.3,6.8,3.4,9.2,3.1c3.2-0.4,9.9-4.9,8.9-6.7c-1-1.8-6.3-3.8-9.4-3.3
		C123.2,22.3,116.9,25.7,117.4,28.9z"/>
	<path class="st1" d="M319.2,20.8c0.7-1.1-2.9-7.2-4.8-8.6c-2.6-1.9-10.6-3.2-11-1.2c-0.4,2,2.3,7.1,4.9,9
		C310.7,21.7,317.5,23.5,319.2,20.8z"/>
	<path class="st1" d="M249.8,18.9c-0.7,1.1,2.8,7.3,4.7,8.7c2.6,1.9,10.5,3.3,11,1.3c0.4-2-2.1-7.1-4.7-9
		C258.4,18.2,251.5,16.3,249.8,18.9z"/>
	<path class="st1" d="M397.8,127.2c1.1-0.6,0.9-7.8-0.1-9.9c-1.4-3-7.7-8.1-9-6.6c-1.3,1.5-1.5,7.3-0.1,10.3
		C389.9,123.6,395,128.6,397.8,127.2z"/>
	<path class="st1" d="M262.6,72.4c1,0.9,7.3-2.1,8.9-3.9c2.1-2.4,4.4-10.4,2.5-11.1c-1.9-0.6-7.1,1.4-9.2,3.9
		C262.9,63.6,260.3,70.4,262.6,72.4z"/>
	<path class="st1" d="M238.9,134.7c1,0.9,7.3-2.1,8.9-3.9c2.1-2.4,4.4-10.4,2.5-11.1c-1.9-0.6-7.1,1.4-9.2,3.9
		C239.1,125.8,236.5,132.6,238.9,134.7z"/>
	<path class="st1" d="M338,64.4c0.7-1.1-2.9-7.2-4.9-8.6c-2.6-1.9-10.6-3.1-11-1.1c-0.4,2,2.3,7.1,4.9,8.9
		C329.4,65.3,336.3,67.1,338,64.4z"/>
	<path class="st1" d="M335.6,106.1c-0.4-1.3-7.2-2.3-9.5-1.7c-3.1,0.9-9.2,6.3-7.9,7.9c1.2,1.6,6.7,2.8,9.8,1.9
		C330.7,113.4,336.5,109.1,335.6,106.1z"/>
	<path class="st1" d="M392.4,34.2c0.5-1.2-4-6.7-6.1-7.7c-2.9-1.4-10.9-1.4-11,0.6c-0.1,2,3.3,6.6,6.2,8.1
		C384,36.4,391.1,37.1,392.4,34.2z"/>
	<path class="st4" d="M246.5,36.4c-10.6-3.8-21.8-6.6-33-7.2c-12.3-0.7-24.8,3.4-36.3,5.9c-23.3,5.1-47.3,16.1-70.2,24.8
		c-18.2,6.9-37.5,14.4-50.8,30.2c-2.9,3.5-5.3,7.4-7.3,11.1v5.1c-4.5,13.6,5.3,17.3,16.3,22.4c6.8,3.1,13.7,3.6,20.8,5.3
		c8.4,2,16.4,5.8,24.3,9c14.6,5.9,25.7,15.3,39.2,22.7c9.1,5,19.8,11.8,30,12.1c29.6,0.7,29-38,41.9-56.6c6.4-9.3,15.6-18.1,25-24.6
		c10.2-7,24.4-12.3,32.4-21.9C294.3,56.2,259,40.9,246.5,36.4z"/>
</g>
<g>
</g>
<g>
</g>
<g>
</g>
<g>
</g>
<g>
</g>
<g>
</g>
<g>
</g>
<g>
</g>
<g>
</g>
<g>
</g>
<g>
</g>
</svg>
