<?xml version="1.0" encoding="utf-8"?>
<!-- Generator: Adobe Illustrator 26.0.1, SVG Export Plug-In . SVG Version: 6.00 Build 0)  -->
<svg version="1.1" id="Layer_1" xmlns="http://www.w3.org/2000/svg" xmlns:xlink="http://www.w3.org/1999/xlink" x="0px" y="0px"
	 viewBox="0 0 538.4 288.2" style="enable-background:new 0 0 538.4 288.2;" xml:space="preserve">
<style type="text/css">
	.st0{fill:#FFA944;}
	.st1{fill:#FFEAB7;}
	.st2{fill:#FFD38D;}
	.st3{fill:#EAC083;}
	.st4{opacity:0.7;fill:#FFC050;enable-background:new    ;}
	.st5{fill:#F68D32;}
	.st6{opacity:0.2;fill:#FFC050;enable-background:new    ;}
</style>
<g>
	<path class="st0" d="M27.4,94.8c-16,13.5-33.7,60.4-25.3,80.6s33.7,110.6,261,112.8c260.1,2.5,275.3-108.6,275.3-125.4
		s-17.7-53.6-37-67.1C482.6,82.6,118.1,18.5,27.4,94.8z"/>
	<path class="st1" d="M249.9,3C83.1,7.4,22.6,62,19.2,129.3c-3.3,67.4,65.7,74.7,255.9,73c186.9-1.7,226.5-20,232.4-56.2
		C519.1,74.8,443.5-2,249.9,3z"/>
	<g>
		<path class="st2" d="M44.7,143.3c7.8,0,16,0.2,23.5-2.7c4.2-1.6,2.4-9.7-1.8-8.1c-6.9,2.7-14.5,2.4-21.7,2.4
			C40.3,134.9,40.3,143.3,44.7,143.3L44.7,143.3z"/>
	</g>
	<g>
		<path class="st2" d="M99.6,124.2c5.5-1.3,10.9-2.3,16.6-2.4c5.4-0.1,5.4-8.5,0-8.4c-6.4,0.1-12.6,1.2-18.8,2.7
			C92.1,117.4,94.3,125.5,99.6,124.2L99.6,124.2z"/>
	</g>
	<g>
		<path class="st2" d="M63.4,108.4c3.7,0,7.4,0,11.1,0c3.4,0,6.2-1.9,6.2-4.2c0-2.3-2.8-4.2-6.2-4.2c-3.7,0-7.4,0-11.1,0
			c-3.4,0-6.2,1.9-6.2,4.2C57.2,106.4,60,108.4,63.4,108.4L63.4,108.4z"/>
	</g>
	<g>
		<path class="st2" d="M142.7,85.2c8,0,15.9-0.2,23.8-1.4c5.4-0.8,3.1-8.9-2.2-8.1c-7.1,1.1-14.4,1.1-21.6,1.1
			C137.3,76.8,137.3,85.2,142.7,85.2L142.7,85.2z"/>
	</g>
	<g>
		<path class="st2" d="M96,72.6c3.4,0,6.6-0.4,9.7-1.8c2.1-1,2.6-3.9,1.5-5.8c-1.2-2.1-3.7-2.5-5.8-1.5c-1.7,0.8-3.6,0.7-5.5,0.7
			c-2.3,0-4.2,1.9-4.2,4.2C91.8,70.7,93.7,72.6,96,72.6L96,72.6z"/>
	</g>
	<g>
		<path class="st2" d="M153.6,45.5c1.8-0.8,4.6-0.7,6.7-0.7c5.4,0,5.4-8.4,0-8.4c-3.8,0-7.5,0.2-11,1.8c-2.1,1-2.6,3.9-1.5,5.8
			C149.1,46.1,151.6,46.4,153.6,45.5L153.6,45.5z"/>
	</g>
	<g>
		<path class="st2" d="M250,68.8c6.7,0,13.5,0,20.2,0c5.4,0,5.4-8.4,0-8.4c-6.7,0-13.5,0-20.2,0C244.6,60.4,244.6,68.8,250,68.8
			L250,68.8z"/>
	</g>
	<g>
		<path class="st2" d="M198.2,111.7c5.9,0,11.7-0.3,17.5-1.4c5.3-1,3.1-9.1-2.2-8.1c-5.1,1-10.1,1.1-15.3,1.1
			C192.8,103.3,192.8,111.7,198.2,111.7L198.2,111.7z"/>
	</g>
	<g>
		<path class="st2" d="M205.4,56.8c2.2-1,6.5-1.7,9.4-0.8c5.2,1.5,7.4-6.6,2.2-8.1c-5.1-1.5-11.1-0.5-15.9,1.7
			C196.2,51.9,200.5,59.1,205.4,56.8L205.4,56.8z"/>
	</g>
	<g>
		<path class="st2" d="M231.1,29.6c3.8,0,7.6,0,11.4,0c5.4,0,5.4-8.4,0-8.4c-3.8,0-7.6,0-11.4,0C225.6,21.2,225.6,29.6,231.1,29.6
			L231.1,29.6z"/>
	</g>
	<g>
		<path class="st2" d="M324.7,56c8.6,2.6,17.6,1.6,26.4,2.7c5.4,0.7,5.3-7.7,0-8.4c-8-1-16.3,0-24.1-2.4
			C321.7,46.3,319.5,54.4,324.7,56L324.7,56z"/>
	</g>
	<g>
		<path class="st2" d="M306.8,107.9c3.8,0,7.6,0,11.4,0c5.4,0,5.4-8.4,0-8.4c-3.8,0-7.6,0-11.4,0
			C301.4,99.5,301.4,107.9,306.8,107.9L306.8,107.9z"/>
	</g>
	<g>
		<path class="st2" d="M238.6,164.8c4.6,0,9.3,0,13.9,0c5.4,0,5.4-8.4,0-8.4c-4.6,0-9.3,0-13.9,0
			C233.2,156.3,233.2,164.8,238.6,164.8L238.6,164.8z"/>
	</g>
	<g>
		<path class="st2" d="M113.6,171.1c1.7,0,3.4,0,5.1,0c2.3,0,4.2-1.9,4.2-4.2s-1.9-4.2-4.2-4.2c-1.7,0-3.4,0-5.1,0
			c-2.3,0-4.2,1.9-4.2,4.2C109.4,169.2,111.3,171.1,113.6,171.1L113.6,171.1z"/>
	</g>
	<g>
		<path class="st2" d="M160.4,154.7c5.4,0,5.4-8.4,0-8.4C154.9,146.2,154.9,154.7,160.4,154.7L160.4,154.7z"/>
	</g>
	<g>
		<path class="st2" d="M195.7,178c3.8,0,7.6,0,11.4,0c5.4,0,5.4-8.4,0-8.4c-3.8,0-7.6,0-11.4,0C190.3,169.6,190.3,178,195.7,178
			L195.7,178z"/>
	</g>
	<g>
		<path class="st2" d="M342.2,170.4c5.9-0.1,11.8-1.2,17.7-1.3c5.4-0.1,5.4-8.5,0-8.4c-5.9,0.1-11.8,1.2-17.7,1.3
			C336.8,162.1,336.8,170.5,342.2,170.4L342.2,170.4z"/>
	</g>
	<g>
		<path class="st2" d="M314.4,155.9c3.8,0,7.6,0,11.4,0c5.4,0,5.4-8.4,0-8.4c-3.8,0-7.6,0-11.4,0C309,147.5,309,155.9,314.4,155.9
			L314.4,155.9z"/>
	</g>
	<g>
		<path class="st2" d="M425.4,172.2c9.2-1.2,18.6-1.3,27.8-2.5c5.4-0.7,3.1-8.8-2.2-8.1c-9.2,1.2-18.6,1.3-27.8,2.5
			C417.8,164.8,420.1,172.9,425.4,172.2L425.4,172.2z"/>
	</g>
	<g>
		<path class="st2" d="M371.1,130.5c4.6-1.2,9.2-2.3,14-2.4c5.4-0.1,5.4-8.5,0-8.4c-5.5,0.1-10.9,1.3-16.3,2.7
			C363.6,123.7,365.8,131.8,371.1,130.5L371.1,130.5z"/>
	</g>
	<g>
		<path class="st2" d="M447,116.8c3.4,0,6.7,0,10.1,0c5.4,0,5.4-8.4,0-8.4c-3.4,0-6.7,0-10.1,0C441.6,108.4,441.6,116.8,447,116.8
			L447,116.8z"/>
	</g>
	<g>
		<path class="st2" d="M392.4,79.2c6.1-1.5,12.3-1.8,18.4-1c4.2,0.6,5.4-7.8,1.2-8.3c-6.6-0.9-13.5-0.6-20.2,1.1
			C387.6,72,388.1,80.3,392.4,79.2L392.4,79.2z"/>
	</g>
	<g>
		<path class="st2" d="M310.6,27.1c3.8,0,7.5-0.2,11-1.8c2.1-1,2.6-3.9,1.5-5.8c-1.2-2.1-3.7-2.5-5.8-1.5c-1.8,0.8-4.6,0.7-6.7,0.7
			C305.2,18.7,305.2,27.1,310.6,27.1L310.6,27.1z"/>
	</g>
	<g>
		<path class="st2" d="M404.1,48.6c2.9,0,5.9,0,8.8,0c5.4,0,5.4-8.4,0-8.4c-2.9,0-5.9,0-8.8,0C398.6,40.2,398.6,48.6,404.1,48.6
			L404.1,48.6z"/>
	</g>
	<g>
		<g>
			<path class="st3" d="M213.3,130.2c0,0.4-0.3,0.8-0.7,1.2c0.2-0.2-0.6,0.2-0.1,0.1c-0.7,0.2-0.2,0,0,0s0.3,0,0.5,0
				c1.1,0,2.1-1,2.1-2.1c0-1.1-1-2.1-2.1-2.1c-0.8,0-1.6,0.1-2.3,0.4c-1,0.5-1.4,1.5-1.5,2.5c-0.1,1.1,1,2.1,2.1,2.1
				C212.3,132.3,213.2,131.3,213.3,130.2L213.3,130.2z"/>
		</g>
		<g>
			<path class="st3" d="M265.9,117.1c1.4,0,2.8,0,4.2,0c2.7,0,2.7-4.2,0-4.2c-1.4,0-2.8,0-4.2,0
				C263.2,112.9,263.2,117.1,265.9,117.1L265.9,117.1z"/>
		</g>
		<g>
			<path class="st3" d="M237.1,87.9C236.8,88.1,237.4,87.8,237.1,87.9c0.2-0.1,0.6-0.2,0.7-0.2c0.7-0.1,1.3-0.1,2-0.1
				c2.7,0,2.7-4.2,0-4.2c-2,0-4.1,0-5.7,1.5c-0.9,0.8-0.8,2.2,0,3C234.9,88.7,236.2,88.6,237.1,87.9L237.1,87.9z"/>
		</g>
		<g>
			<path class="st3" d="M336.6,79.2c1.1,0,2.2,0,3.4,0c1.1,0,2.1-1,2.1-2.1s-1-2.1-2.1-2.1s-2.2,0-3.4,0c-1.1,0-2.1,1-2.1,2.1
				C334.5,78.3,335.4,79.2,336.6,79.2L336.6,79.2z"/>
		</g>
		<g>
			<path class="st3" d="M301.2,41.3c1.4,0,2.8,0,4.2,0c2.7,0,2.7-4.2,0-4.2c-1.4,0-2.8,0-4.2,0C298.5,37.1,298.5,41.3,301.2,41.3
				L301.2,41.3z"/>
		</g>
		<g>
			<path class="st3" d="M359.3,42.2c0.3,0,0.6,0,0.8,0c1.1,0,2.1-1,2.1-2.1s-1-2.1-2.1-2.1c-0.3,0-0.6,0-0.8,0c-1.1,0-2.1,1-2.1,2.1
				C357.2,41.2,358.2,42.2,359.3,42.2L359.3,42.2z"/>
		</g>
		<g>
			<path class="st3" d="M141.3,58.2c1.1,0,2.2,0,3.4,0c1.1,0,2.1-1,2.1-2.1s-1-2.1-2.1-2.1s-2.2,0-3.4,0c-1.1,0-2.1,1-2.1,2.1
				S140.1,58.2,141.3,58.2L141.3,58.2z"/>
		</g>
		<g>
			<path class="st3" d="M186.1,35.2c1.3-0.6,2.6-0.6,4-0.6c2.7,0,2.7-4.2,0-4.2c-2.2,0-4.1,0.2-6.1,1.1c-1,0.5-1.3,2-0.8,2.9
				C183.9,35.5,185.1,35.6,186.1,35.2L186.1,35.2z"/>
		</g>
		<g>
			<path class="st3" d="M111.8,38c2.4,0,4.8-0.1,7-1.1c1-0.5,1.3-2,0.8-2.9c-0.6-1.1-1.8-1.2-2.9-0.8c-1.5,0.7-3.3,0.6-4.8,0.6
				C109.1,33.8,109.1,38,111.8,38L111.8,38z"/>
		</g>
		<g>
			<path class="st3" d="M56.5,78.1c1.3-0.6,2.6-0.6,4-0.6c2.7,0,2.7-4.2,0-4.2c-2.2,0-4.1,0.2-6.1,1.1c-1,0.5-1.3,2-0.8,2.9
				C54.2,78.4,55.4,78.6,56.5,78.1L56.5,78.1z"/>
		</g>
		<g>
			<path class="st3" d="M95,83.4c0.7,0,1.3-0.2,2-0.4c0.3-0.1,0.6-0.2,0.9-0.3c0.2-0.1,0.3-0.1,0.5-0.1c0.5-0.1-0.5,0,0,0
				c1.1-0.1,2.1-0.9,2.1-2.1c0-1.1-1-2.2-2.1-2.1c-0.7,0-1.3,0.2-2,0.4c-0.3,0.1-0.6,0.2-0.9,0.3c-0.2,0.1-0.3,0.1-0.5,0.1
				c-0.5,0.1,0.5,0,0,0c-1.1,0.1-2.1,0.9-2.1,2.1C92.9,82.4,93.8,83.5,95,83.4L95,83.4z"/>
		</g>
		<g>
			<path class="st3" d="M41.9,112.9c1.9,0,3.5-0.3,5.3-1.1c1-0.5,1.3-1.9,0.8-2.9c-0.6-1-1.8-1.3-2.9-0.8c-1.2,0.6-1.8,0.6-3.1,0.6
				C39.2,108.7,39.2,112.9,41.9,112.9L41.9,112.9z"/>
		</g>
		<g>
			<path class="st3" d="M298.7,143.2c1.4,0,2.8,0,4.2,0c2.7,0,2.7-4.2,0-4.2c-1.4,0-2.8,0-4.2,0C296,139,296,143.2,298.7,143.2
				L298.7,143.2z"/>
		</g>
		<g>
			<path class="st3" d="M372.2,144.8c2.4,0.8,4.8,0.9,7.3,0.9c2.7,0,2.7-4.2,0-4.2c-2.1,0-4.1-0.1-6.2-0.8
				C370.8,139.9,369.7,144,372.2,144.8L372.2,144.8z"/>
		</g>
		<g>
			<path class="st3" d="M386.3,101.1c2,0,4.1,0,5.7-1.5c0.9-0.8,0.8-2.2,0-3s-2.1-0.8-3,0c0.3-0.2-0.3,0.1,0,0
				c-0.2,0.1-0.6,0.2-0.7,0.2c-0.7,0.1-1.3,0.1-2,0.1C383.5,96.9,383.5,101.1,386.3,101.1L386.3,101.1z"/>
		</g>
		<g>
			<path class="st3" d="M449.1,104.4c2.3-0.7,4.6-0.8,7-0.8c2.7,0,2.7-4.2,0-4.2c-2.8,0-5.5,0.1-8.1,0.9S446.5,105.2,449.1,104.4
				L449.1,104.4z"/>
		</g>
		<g>
			<path class="st3" d="M425,74.2c1.4,0,2.8,0,4.2,0c2.7,0,2.7-4.2,0-4.2c-1.4,0-2.8,0-4.2,0C422.3,70,422.3,74.2,425,74.2L425,74.2
				z"/>
		</g>
		<g>
			<path class="st3" d="M429.2,53.1c0.3,0,0.6,0,0.9,0c0.1,0,1.1,0.1,0.5,0c0.1,0,0.8,0.2,0.2,0c0.1,0,0.2,0.1,0.3,0.1
				c0.4,0.3-0.3-0.3,0.1,0.1c0.8,0.8,2.2,0.8,3,0s0.8-2.2,0-3c-1.4-1.3-3-1.5-4.9-1.5c-1.1,0-2.1,1-2.1,2.1
				C427.1,52.2,428.1,53.1,429.2,53.1L429.2,53.1z"/>
		</g>
		<g>
			<path class="st3" d="M473.8,94.4c2.2,0,4.5,0,6.7,0c2.7,0,2.7-4.2,0-4.2c-2.2,0-4.5,0-6.7,0C471.1,90.2,471.1,94.4,473.8,94.4
				L473.8,94.4z"/>
		</g>
		<g>
			<path class="st3" d="M461.4,68c1.7-0.8,3.9-0.6,5.7-0.6c2.7,0,2.7-4.2,0-4.2s-5.3,0-7.8,1.1c-1,0.5-1.3,2-0.8,2.9
				C459.2,68.3,460.4,68.5,461.4,68L461.4,68z"/>
		</g>
		<g>
			<path class="st3" d="M40.3,163.4c1.4,0,2.8,0,4.2,0c2.7,0,2.7-4.2,0-4.2c-1.4,0-2.8,0-4.2,0C37.5,159.2,37.5,163.4,40.3,163.4
				L40.3,163.4z"/>
		</g>
		<g>
			<path class="st3" d="M100.9,138.2c2,0,4.1,0,5.7-1.5c0.9-0.8,0.8-2.2,0-3s-2.1-0.8-3,0c0.3-0.2-0.3,0.1,0,0
				c-0.2,0.1-0.6,0.2-0.7,0.2c-0.7,0.1-1.3,0.1-2,0.1C98.2,133.9,98.2,138.2,100.9,138.2L100.9,138.2z"/>
		</g>
		<g>
			<path class="st3" d="M146.3,101.1c2,0,3.9,0,5.9,0c2.7,0,2.7-4.2,0-4.2c-2,0-3.9,0-5.9,0C143.6,96.9,143.6,101.1,146.3,101.1
				L146.3,101.1z"/>
		</g>
		<g>
			<path class="st3" d="M182.5,59.9c0.6,0,1.1,0,1.7,0c1.1,0,2.1-1,2.1-2.1s-1-2.1-2.1-2.1c-0.6,0-1.1,0-1.7,0c-1.1,0-2.1,1-2.1,2.1
				S181.4,59.9,182.5,59.9L182.5,59.9z"/>
		</g>
		<g>
			<path class="st3" d="M208.6,16.1c2.4,0,4.8-0.1,7-1.1c1-0.5,1.3-2,0.8-2.9c-0.6-1.1-1.8-1.2-2.9-0.8c-1.5,0.7-3.3,0.6-4.8,0.6
				C205.9,11.9,205.9,16.1,208.6,16.1L208.6,16.1z"/>
		</g>
		<g>
			<path class="st3" d="M276,14.4c1.1,0,2.2,0,3.4,0c1.1,0,2.1-1,2.1-2.1s-1-2.1-2.1-2.1s-2.2,0-3.4,0c-1.1,0-2.1,1-2.1,2.1
				S274.8,14.4,276,14.4L276,14.4z"/>
		</g>
		<g>
			<path class="st3" d="M149.7,159.8c1.1,0,2.2,0,3.4,0c1.1,0,2.1-1,2.1-2.1s-1-2.1-2.1-2.1s-2.2,0-3.4,0c-1.1,0-2.1,1-2.1,2.1
				C147.6,158.9,148.6,159.8,149.7,159.8L149.7,159.8z"/>
		</g>
		<g>
			<path class="st3" d="M297.9,174.1c0.3,0,0.6,0,0.8,0c1.1,0,2.1-1,2.1-2.1s-1-2.1-2.1-2.1c-0.3,0-0.6,0-0.8,0
				c-1.1,0-2.1,1-2.1,2.1C295.8,173.2,296.7,174.1,297.9,174.1L297.9,174.1z"/>
		</g>
		<g>
			<path class="st3" d="M381.4,170.7c1.3-0.6,2.6-0.6,4-0.6c2.7,0,2.7-4.2,0-4.2c-2.2,0-4.1,0.2-6.1,1.1c-1,0.5-1.3,2-0.8,2.9
				C379.2,171,380.4,171.2,381.4,170.7L381.4,170.7z"/>
		</g>
		<g>
			<path class="st3" d="M410.7,159c0.3,0,0.6,0,0.8,0c1.1,0,2.1-1,2.1-2.1s-1-2.1-2.1-2.1c-0.3,0-0.6,0-0.8,0c-1.1,0-2.1,1-2.1,2.1
				S409.5,159,410.7,159L410.7,159z"/>
		</g>
		<g>
			<path class="st3" d="M477.4,134.5c1.6-0.8,3.4-0.9,5.1-1.7c1-0.5,1.3-2,0.8-2.9c-0.6-1.1-1.8-1.2-2.9-0.8
				c-1.6,0.8-3.4,0.9-5.1,1.7c-1,0.5-1.3,2-0.8,2.9C475.1,134.8,476.4,135,477.4,134.5L477.4,134.5z"/>
		</g>
	</g>
	<path class="st4" d="M178.1,214.9c-6.1-10.3-17.4-11.5-28-12.6c-14.1-1.5-36.6-5.8-50.5-9.7c-39.6-11.2-56-35.4-61.9-35.4
		c-14.3,0-14.9,17-11.8,32.4c2.7,13.6,9.1,28,19.4,38.1c24.2,23.9,55.9,31.4,87.5,37.7c12.9,2.6,29,2.6,38.5-8.6
		C178.9,248.1,184.3,225.3,178.1,214.9z"/>
	<path class="st5" d="M538.4,162.8c0-6-2.3,20-6.1,4.3c-1.1,0.7-2.1,1.6-3,2.7c-3.3,4.4-2.1-26-2.9-20.5c-1.1,8.1-3.8,12.1-8.8,18.8
		c-8.8,11.6-15.5,24-27.8,32.9c-12.8,9.2-28,20.4-43.3,25.2c-20.2,6.3-41.3,9.7-62,13.9c-19.3,3.9-36.3,13.6-55.5,18.1
		c-41.4,9.6-91.8,9.7-132.2-5.5c-21.3-8-42.3-17.7-63.1-26.9C111,215.6,87,209.5,64.3,199.2c-23.2-10.5-40.3-19.2-51-43
		c-2.3-5.1-3.5-11.9-8.8-15.1c-1-0.6-2.1-1.1-3.2-1.3c-1.8,15.7-1.8,29.1,0.9,35.6c8.4,20.2,33.7,110.6,261,112.8
		C523.3,290.7,538.4,179.6,538.4,162.8z"/>
	<path class="st6" d="M132.7,265.7c12.9,2.6,29,2.6,38.5-8.6c2.4-2.8,4.6-7.1,6.3-11.9c-14.8-6.2-29.4-12.8-43.9-19.3
		c-22.8-10.1-46.7-16.2-69.4-26.5c-15.7-7.1-28.6-13.4-38.6-24c-0.7,4.5-0.8,9.2,0.2,14.6c2.7,13.6,9.1,28,19.4,38.1
		C69.4,252,101,259.5,132.7,265.7z"/>
</g>
</svg>
