<?xml version="1.0" encoding="utf-8"?>
<!-- Generator: Adobe Illustrator 26.0.1, SVG Export Plug-In . SVG Version: 6.00 Build 0)  -->
<svg version="1.1" id="Layer_1" xmlns="http://www.w3.org/2000/svg" xmlns:xlink="http://www.w3.org/1999/xlink" x="0px" y="0px"
	 viewBox="0 0 476.8 282.5" style="enable-background:new 0 0 476.8 282.5;" xml:space="preserve">
<style type="text/css">
	.st0{fill:#FFDD33;}
	.st1{fill:#EF9C07;}
	.st2{opacity:0.5;fill:#F9ED98;}
</style>
<g>
	<path class="st0" d="M218.6,0C201.8-1.8-9.7,125,0.3,141.9c4.5,7.6,54.5,36.7,110.5,66.4c10.2-8.8,22.5-15.8,35.2-17.1
		c16.6-1.7,30,7.2,27,25.5c-1,6-3.8,13.1-7.6,19.8c51.3,25.7,96.9,46.4,105.9,45.7c16.3-1.2,15.2-24.6,38.8-45.7
		c42.9-38.2,90.9-82.6,125.6-105.8c12.9-8.6,39.6-15.7,40-28.6C476.3,85.2,256.1,4.1,218.6,0z M152.3,120.1
		c-2.9,4.9-20.8,14.6-42.6,14.1c-21.8-0.5-36.3-4.8-33.8-11.7c5.1-14.1,26.9-18.1,34.3-18.9C136.1,100.7,156.9,112.3,152.3,120.1z
		 M189.7,106.4c-7.3,1.3-17.9,2.6-21.2-2c-3.3-4.6,5.4-11.8,11.2-13.9c9.3-3.3,25.8,0,26.5,4.6C206.9,99.8,197,105.1,189.7,106.4z
		 M224.1,41.6c-6-8.6,0.9-15.9,4.6-17.9c9.9-5.3,30,2.8,46.3,11.2c20.5,10.6,11.2,31.1-7.3,31.1S230,50.2,224.1,41.6z M302.8,182.1
		c-2.6,11.5-23.8,18.5-42.6,22.6c-23.6,5.2-34.4-19.1-21.1-32c13.2-12.9,40.4-12.6,52-9.3C302.5,166.7,303.8,177.8,302.8,182.1z
		 M373.5,112.3c-10.5,12.1-18.5,17.9-32.4,11.2c-7.9-3.7-7.5-16.6-5.5-23.6c3.1-11.1,9.1-18.6,25.9-14.5
		C371.6,87.9,382.1,102.4,373.5,112.3z M401,100.4c-6.3,1.3-15.4,2.6-18.3-2c-2.9-4.6,4.6-11.8,9.7-13.9c8-3.3,22.2,0,22.8,4.6
		C415.8,93.8,407.2,99.1,401,100.4z"/>
	<path class="st1" d="M476.8,102.3c0-1.3-1.2-3-3.6-5c-1.4,1.5,0.3,6.1-1.4,7.6c-12.8,11.8-27.3,15.5-42.6,24.6
		c-37,21.9-69.8,51.1-102.2,80.1c-12.7,11.4-22.7,22.1-34.1,35.6c-6.2,7.3-8.4,25.8-24.8,29.2c-2.2,0.5-7-0.7-22.8-0.7
		c14.2,6.1,17.6,9.1,27.1,8.7c16.3-0.8,15.2-24.6,38.8-45.7c42.9-38.2,90.9-82.6,125.6-105.8C449.7,122.4,476.4,115.3,476.8,102.3z"
		/>
	<path class="st1" d="M77.8,125.8c5.1-14.1,26.9-18.1,34.3-18.9c18.8-2.1,35,3.4,40.6,9.6c-2-7.3-20.4-15.4-42.6-12.9
		c-7.4,0.8-29.2,4.9-34.3,18.9c-0.7,1.9,0,3.6,1.7,5.1C77.5,127.1,77.6,126.4,77.8,125.8z"/>
	<path class="st1" d="M182.4,93.2c7.1-2.5,18.5-1.2,23.7,1.7c-1.3-4.5-17.3-7.6-26.4-4.3c-5.9,2.1-14.5,9.3-11.2,13.9
		c0.5,0.8,1.3,1.4,2.2,1.8C168.9,101.6,176.9,95.1,182.4,93.2z"/>
	<path class="st1" d="M395.6,87.7c5.7-2.4,14.6-1.3,19.5,1.1c-0.9-4.5-14.9-7.7-22.8-4.4c-5.1,2.1-12.5,9.3-9.7,13.9
		c0.7,1.1,1.7,1.8,2.9,2.3C384.1,96,390.9,89.7,395.6,87.7z"/>
	<path class="st1" d="M337.6,103.6c3.1-11.1,9.1-18.6,25.9-14.5c4.1,1,8.4,4.1,11.3,8c-2.5-6.1-8.3-11.3-14-12.6
		c-16.8-4.1-22.8,3.4-25.9,14.5c-1.7,6-2.2,16.3,2.6,21.4C335.7,115,336.3,108.1,337.6,103.6z"/>
	<path class="st1" d="M226.4,43.9c-6-8.6,0.9-15.9,4.6-17.9c9.9-5.3,30,2.8,46.3,11.2c1.9,1,3.6,2.1,5,3.2c-1.9-2.4-4.6-4.6-8.3-6.5
		c-16.3-8.4-36.4-16.5-46.3-11.2c-3.7,2-10.6,9.3-4.6,17.9c1.5,2.1,3.7,4.7,6.6,7.3C228.3,46.4,227.2,45.1,226.4,43.9z"/>
	<path class="st1" d="M241.4,176.2c13.2-12.9,40.4-12.6,52-9.3c3.4,1,6,2.7,7.8,4.6c-1.7-3.6-4.8-7-10.4-8.6
		c-11.5-3.3-38.7-3.7-52,9.3c-7.7,7.5-7.3,18.7-1.1,25.9C234.2,191.2,235,182.4,241.4,176.2z"/>
	<path class="st2" d="M118.1,61.8c-3.2,0-9.1,4.5-10.1,4l-4.4,4.4c-8,2.5-15.3,10.1-22.5,14.4C70.6,91,61.2,99.6,50.5,106
		c-9.6,5.7-45.6,25.4-26.8,38.7c4.1,2.9,9.9,4,14.5,5.8c6.2,2.4,12.3,5.7,18.2,8.7c10.7,5.4,21.2,10.1,30.9,17.2
		c2.9,2.1,18.1,15.1,20.3,7c1.5-5.7-12.1-14-16-16.2c-9.3-5.1-17.3-12.3-26.5-17.6c-6.8-4-18.2-8.3-16.3-17.7
		c1.3-6.7,7.8-16.1,12.4-20.7c7.6-7.6,17.2-12.8,26-18.8c10.8-7.4,21.7-14.3,32.1-21.8C124.3,66.9,125.7,61.8,118.1,61.8z"/>
</g>
<g>
</g>
<g>
</g>
<g>
</g>
<g>
</g>
<g>
</g>
<g>
</g>
<g>
</g>
<g>
</g>
<g>
</g>
<g>
</g>
<g>
</g>
</svg>
