<?xml version="1.0" encoding="utf-8"?>
<!-- Generator: Adobe Illustrator 26.0.1, SVG Export Plug-In . SVG Version: 6.00 Build 0)  -->
<svg version="1.1" id="Layer_1" xmlns="http://www.w3.org/2000/svg" xmlns:xlink="http://www.w3.org/1999/xlink" x="0px" y="0px"
	 viewBox="0 0 588.4 368.1" style="enable-background:new 0 0 588.4 368.1;" xml:space="preserve">
<style type="text/css">
	.st0{fill:#89ED29;}
	.st1{fill:#DBFF81;}
	.st2{opacity:0.4;fill:#DBFF81;enable-background:new    ;}
	.st3{fill:#69CC2F;}
</style>
<g>
	<path class="st0" d="M568.5,5.4c-12.1,7.6-69.3,49.3-69.3,49.3c-33,15.1-72.2-4-104.7-13.3c-24.8-7.1-73-39.5-98.1-19.2
		c-3.6,2.9-5.3,11.3-8.2,13.1c-3.4,2.1-12.9,1.2-17.2,1.5c-13.2,1.2-21.5,2.8-31.1,12.3c-10.3,10.2-14.3,10.9-29.2,11.6
		c-18.8,0.8-19.4,3.9-31.7,16.4c-7.3,7.5-6,6.7-17,5.9c-9.9-0.7-20.3-2.5-30.4-0.6c-15.2,2.8-38,17.1-42.3,33.2
		c-11.3-1-22.2,1.2-31.3,8.2c-12.2,9.3-11.5,19.8-17.7,31.6c-5,9.4-18.5,11.6-27,21C2,188.5-0.4,206.5,6.6,221.7
		c3,6.4,6.8,6.6,9.8,11.3c4.8,7.5-18.6,38.4-16.2,46.9C6,300,31.1,307.4,51.8,310.1c5,0.7,28.4-16.8,31.9-12.7
		c2.7,3.2,0.9,15.7,3.4,20.7c11.1,22.6,43.1,29,65.7,30.6c10.7,0.7,21.9,0.8,32.4-2c4.8-1.3,15.3-8.4,20.4-7
		c7.1,1.9,13.2,14.6,21,18.9c27.2,14.9,59.2,13.4,80.9-11.7c6.2-7.2,10.3-19.5,19.3-23.9c8.6-4.2,12.3,0.7,21,1.2
		c20.8,1.1,26.2-16,31.9-32.5c16.1,6.9,18.1,11.2,38.8,5.5c23-6.3,32-17.8,40.3-39.2c5.8-15.1,1.5-21.3,17.9-21.1
		c14.9,0.2,19.6-1,25.7-16.4c5.4-13.6,4.6-27.5,3.8-41.6c-0.4-7.6-3.2-21.2,2.2-28.2c2.4-3.1,9.1-2,12.2-5.6c3.5-4.1,3.1-8.9,2.8-14
		c-0.7-11.6-4.4-18.9-1.9-30.7c4.3-20.5,21.7-38.2,37.6-52c6.1-5.4,23.8-12.8,24.4-21.8C583.8,20.3,572.3,9.2,568.5,5.4z"/>
	<path class="st1" d="M564.4,4.1c0,0-99.5,81.7-224.8,137.3c-157.4,69.9-243.7,88.8-234.9,93.8s99.9-27.6,205.9-66.3
		C538,85.9,588.4,28,588.4,28s-2.6-10.1-11.4-17.6C568.2,2.8,564.4,4.1,564.4,4.1z"/>
	<g>
		<path class="st2" d="M123,239l-1.3,1.3c-3.7,3.3-6.4,8.4-10.1,12c-4.2,4.1-8.7,7.7-12.7,12c-5.9,6.1-20.1,13.8-9.3,22.5
			c8.7,7,14.4-9.9,18.4-16.2c5.2-8,13.2-16.4,16.7-25.2C125.7,242.8,127.8,237,123,239z"/>
		<path class="st2" d="M213,275.7c0-18.3-3.5-39.2-10.9-55.5c-0.7,0.2-0.5,0.7-1.1,1.2c0.2,27.2-2.1,55.1-8.7,81.2
			c-2.8,11.3-3.6,18.8,7.9,24.1c4.2,1.9,9.2,2.5,12.6,6.3c3.3,3.7,6.4,13.3,9.6,3.7c2.5-7.4-1.8-20.1-3.8-27.1
			C215.3,297.8,213,288,213,275.7z"/>
		<path class="st2" d="M178.4,235.8c-5,6.4-5.6,17.2-9,24.6c-5.1,11.2-12,21.2-17.6,32.1c-4.1,7.9-24.3,38-16.1,46.5
			c1.2,0.1,0.6-0.8,1.1-1.2l3.8,3.8c9.9,3.1,24.8-1.3,29.5-11.3c5.2-11.1-2.3-26.1-1.2-38c1.2-13,5.5-26,10.2-38.3
			c1.9-4.9,5.7-10.4,6.2-15.7C186,231.3,182.4,230.7,178.4,235.8z"/>
		<path class="st2" d="M322,264.4c-7.2-16.8-12.3-33.7-11.3-52.3c0.7-12.8,5-28,2.4-40.4c-1.6,0.7-1.3,1.6-2.6,3.1
			c-12.3,14.3-7.8,43.2-8.6,61.2c-0.7,15.4,0.5,30.8,1.9,46c1.4,15.5,1,30.5,6.3,45.2l2.5-1.3c1-0.3,2-2.7,3.6-4.5
			c4.1-4.9,8-7.1,14-8c5.6-0.9,9.6-0.1,9.5-7.1c-0.1-5.7-4.3-12.6-6.8-17.5C328.7,280.8,325.5,272.6,322,264.4z"/>
		<path class="st2" d="M379.9,209.4c-0.6-12.3,1.3-25.2,3.2-37.1c0.8-4.9,8.8-27.6,6.3-29.7C377,153,377,179.9,374.1,194.9
			c-2.8,14.9-4.9,30.1-4.9,45.5c0,16,2.3,30.5,4.4,45.8l3.8-1.3c1.4,2,12.4,4.4,14.3,1.1c3.7-6.2-6.4-28.2-7.4-35.1
			C382.2,237.2,380.6,223.4,379.9,209.4z"/>
		<path class="st2" d="M485.1,110.5c1.3-4.5,2.4-11.6-3.9-7.7c-3.3,2-5.6,8.8-6.9,12.1c-3.9,9.7-7.7,19.4-10.7,29.1
			c-4.4,14.6-7.3,30.3-8,45.4c-0.6,12.4-2.5,30.1,4.4,40.8h3.8c6.9,0.2,14.8-2.5,15.1-11.3c0.4-10.4-3-23-4.4-33.5
			c-1.6-12-3.3-24.8-1.4-37C475,134.8,481.3,123.4,485.1,110.5z"/>
		<path class="st2" d="M85.3,218.8C74,218.3,62,219.7,51,217.1c-6.6-1.6-13.1-4.5-20-3.8c-3.7,0.4-15.4,6.1-10.1,10.6l3.1,1.9
			c5.8,4.6,15.2,4.6,22.2,5.5c8.4,1.1,17.5,2.9,25.7,0.8c9.7-2.5,27.8-2.4,35.3-10.1C103.4,217.9,91,219.1,85.3,218.8z"/>
		<path class="st2" d="M198,193c-7.3-6-23-7.3-32.3-10.6c-14.1-5-26.3-12.3-39.4-19.1c-6.4-3.3-13.5-6.6-18.9-11.3
			c-4.6-4-5.6-8.8-8.8-13.9c-5.2-8.3-19.5-18.2-29.6-14.3c-3.1,1.2-6.7,4.3-9,6.8c-2,2.1-4.8,7.9-5.7,8.2l1.3,1.9
			C56.2,154,80,166.5,90.1,171c13.4,6,28.3,9.2,42.4,13.4c12.2,3.6,24.1,7.1,36.5,9.3C176,194.9,193.3,201.2,198,193z"/>
		<path class="st2" d="M294.3,147.2c-6.4-1.3-12.8-2.6-19.4-4.1c-26.7-6-57.4-14.8-80.3-30.1c-11.2-7.5-20.9-19.1-33.2-24.6
			c-11.4-5-29.9-5.6-40.3,0.6v2c1.1,13.2,22.7,24.2,32.9,28.8c14.2,6.5,29.8,11.3,44.5,16.5c22.4,7.9,46,13.8,69.3,16.4
			c7.9,0.9,24.4,4.6,31.5,0.8C307,149.4,299.2,148.2,294.3,147.2z"/>
		<path class="st2" d="M281,119.5c-18.6-9.6-33.3-20.4-48.5-34.8c-5.8-5.5-21.1-21.9-29.6-17.6l-4.4-1.3c-4,1.4-6.5,7.8-5.7,12
			c1.1,5.6,6.6,7.8,11.4,10.2c11.4,5.8,22.7,11.1,33.4,18.3c19.5,13.1,43,28.8,66.8,31.4c6.8,0.7,31,4.9,35.3-0.7
			c-7.3-5.3-21.3-4.9-30.2-7C299.5,127.4,290.4,124.3,281,119.5z"/>
		<path class="st2" d="M413.4,89.9c-6.9,0.3-13.8,0.6-20.8,0c-15.7-1.3-33.7-4.6-48.5-10.1c-11.8-4.3-28-10.3-36.1-20.3
			c-6.5-8.1-13.6-16-23.9-19.5c-5.5-1.9-15.8-0.1-20.8,1.9l-2.5,2.5c-18,20.5,73.8,45.7,85,49.8c14.1,5.1,28.1,5.8,42.8,4.4
			c5.7-0.6,11.4-1.1,17-1.9c4-0.5,11.7,0.8,15.1-1.7C427.7,89.8,417.6,89.7,413.4,89.9z"/>
	</g>
	<g>
		<path class="st3" d="M108.7,273.9c-2.6,5.9-5.9,10.9-9.9,16.1c-4.1,5.3-9.4,9.2-10.4,16.3c-0.8,5.8,1.3,15,7.6,16.5v2.7
			c3.7,2.4,9.6,9.5,12.1,1.6c1.9-5.9,0.3-15.2,1.1-21.4c1.1-8.7,1.9-17.5,4.5-25.8c2.1-6.7,6-12.5,5.2-19.7
			C113,262.6,111,268.6,108.7,273.9z"/>
		<path class="st3" d="M238.2,287.8c-6.5-12.2-7.4-25.2-10.6-38.2c-1.2-5-2.2-9.8-3.4-14.7c-0.8-3.3-1-9.2-2.6-12.1
			c-0.2-0.4-0.5-2-0.6-2.6c-1.5-0.2-1.9,0.5-2.7,1.5v-1.6c-1.9,13,2,26.2,3.3,39.1c1.7,16.7,3.3,33.6,6.5,50
			c2,10.2,4.4,20.2,8.2,29.6c4.1,10.2,7.8,15.3,18.8,16.9c5.5,0.8,14.1,3.4,19.1,0.4c3.4-10.3-6.8-19.3-12.5-27.2
			C252.8,316.7,245.4,301.3,238.2,287.8z"/>
		<path class="st3" d="M330.9,194.8c0.2-3.8,6.3-29.2-1.6-25.3l-1.6-0.5c-5.8,20.5-13.5,43.7-8.8,65.5c1.1,5.3,9.1,34.9,17.6,29.6
			c6.8-4.3-1-23.4-2.2-28.7C331.2,222.2,330.2,208.5,330.9,194.8z"/>
		<path class="st3" d="M97.9,243c1.3-3.2-1.6-6-4.8-4.8l-2.2-1.1c-10.9,3.1-22.5,6.4-34,7.1c-4.9,0.3-9.8,0.9-14.7,0.4
			c-4.2-0.4-8.8-2.2-13.3-1.5c-9.6,1.4-11.6,11.6-15.5,19.1c-3,5.8-12.2,21.7,2.8,18.7c7.8-1.6,15.6-11.3,22.2-15.3
			c9.5-5.8,20-10.6,30.8-13.2c7.2-1.7,14.8-2.6,21.8-5.1C93,246.7,97,245.4,97.9,243z"/>
		<path class="st3" d="M191.5,238.2c-6.5-1.7-8.1,20.4-8.7,23.7c-1.9,10.2-7.7,19.7-9.5,29.7c-1.6,9,0.3,17.7,1.1,26.4
			c0.3,3.4,1.7,26.6,8.2,19.8l4.4-0.5c13.3,1.5,1.6-11.5-1.2-16.5c-4.2-7.4-5.1-17.5-3.6-25.9C183.3,288.4,199.4,240.2,191.5,238.2z
			"/>
		<path class="st3" d="M517.5,89.9c1.4-2.9,7.6-11.5,7.3-12.1l-5.5,2.7c-6.9,2.2-13.9,16.5-16.6,22.9c-3.6,8.6-6,19.3-3.7,28.7
			c2.2,9,19.2,13.2,14.4,3.1c-2.4-5-5.4-5.5-5.6-11.9c-0.2-4.9,0.4-9.2,1.5-13.7C511,102.6,514.3,96.5,517.5,89.9z"/>
		<path class="st3" d="M280,185.6c-0.2,0.3-0.4,0.5-0.6,0.8l0.4,0.2C279.8,186,281,185.8,280,185.6z"/>
		<path class="st3" d="M278.2,281.6c-1.9-10.1-6.2-20.5-7-30.7c-1.1-12.6-0.5-25.1,1.6-37.4c1.2-7,2.5-20.8,6.6-27.1l-1.8-0.9
			c-7.1,9.5-10.2,21.7-11.5,33.5c-1.9,17.7-3.4,35.2-2.8,53.3c0.5,15.4,4.7,31.8,10,46.3c3.1,8.5,6.4,26,16.9,27.9
			c24.3,4.3,3.5-32.3-1.3-39.9C283.9,298.2,280,291.1,278.2,281.6z"/>
		<path class="st3" d="M415.3,272.2c-6.4-10.4-5.4-25.7-4.7-38.1c0.3-5.7,3-15.3,0-20.6c-4.5-7.8-5.8,4.3-6.5,9.1
			c-2,13.5-6.1,25.9-6.6,39.5c-0.2,6.2,4.4,34.1,15.7,26.4h3.3c4.6,1.5,7.1-3.5,5.8-8.3C421.3,277.5,416.8,274.7,415.3,272.2z"/>
		<path class="st3" d="M463.9,113.9c-3.2,0.7-5.3,3.7-7.3,6.5c-15.4,21.8-9.7,54.5-13,79.9c-2.1,16.4-6.2,32.9-6.8,49.4
			c-0.2,4.4-1.1,17.8,5.8,16.5c4.6-0.9,7.5-14.2,7.4-16.5l4.1-6.6c-4.3-2.9-2.1-22.1-2.5-29.7c-0.5-11-0.8-22.5-0.8-33.8
			c0-11.6-0.2-24.4,2.7-35.4C456,134.8,465.3,123.6,463.9,113.9z"/>
	</g>
</g>
</svg>
