<?xml version="1.0" encoding="utf-8"?>
<!-- Generator: Adobe Illustrator 26.0.1, SVG Export Plug-In . SVG Version: 6.00 Build 0)  -->
<svg version="1.1" id="Layer_1" xmlns="http://www.w3.org/2000/svg" xmlns:xlink="http://www.w3.org/1999/xlink" x="0px" y="0px"
	 viewBox="0 0 459.3 312.3" style="enable-background:new 0 0 459.3 312.3;" xml:space="preserve">
<style type="text/css">
	.st0{fill:#5F8C3B;}
	.st1{fill:#5EB53E;}
	.st2{fill:#80CE36;}
</style>
<g>
	<path class="st0" d="M286.2,199.8c6.4-21.8,13.4-41.9,19-63.8c6.5-25.3,18.8-38.6,41.8-51c10.3-5.6,20.2-11.7,30.5-17.7
		c6-3.5,28.7-9.6,29.9-17.5c0.7-0.5,1.2-1.2,1.5-2.1c-12.8-4-38.3,11.9-50.5,17.9l-37.4,20.4c-47.1,26.3-99.5-33.7-141.9-47
		c-12.3-3.9-35.4-11.7-11.9,11.6c7.2,7.2,20.7,11.4,29.4,16.6c13.5,7.9,74.7,22.1,68.4,39.4c-2.9,8-31.2,9.4-39.7,7.4
		c-16.8-4-27.1-9.5-39.6-21.6c-18.1-17.5-31.3-32.7-53.1-43.8c-8-4.1-33.5-6.1-36.7-0.2c-2.1,3.8,23.3,23.2,30.2,28.5
		c18.9,14.5,41.3,23.1,61.3,35.9c7.6,4.8,51.7,19.9,16.2,26.3c-10.8,1.9-19.4,6.1-27.1,4.9c-41.3-6.7-115.9-91.8-122.1-77.2
		c-8.8,21.2,97.9,84.5,99.1,89.3c3.5,14.3-23.8,7.4-30.7,5.8c-17.2-4-30.7-4.1-48.4-5c-20.8-1.1-44.9,1.3-61.9,15
		c-35.2,28.2,12.7,35.9,36.4,29.8c18.3-4.7,92.5-31.8,111.5-23.9c6.3,2.6-0.6,13.4-8.3,24.4c-3.5,5-62.8,78.9-46.6,78.8
		c31.4-6.3,57.9-90.5,85.9-114.2c5.6-4.7,38.7-25,44.2-14.3c4.6,8.9-18.1,32.5-22.4,38.8c-8.2,11.8-31.5,55.6-31.5,65.5
		c-0.1,26,39.9-33.7,43.8-42.4c10.9-24.2,19.2-44.8,34.3-66.5c3-4.4,15.8-26.1,23.3-18.2c6.7,6.9-0.7,30.9-4,36.4
		c-7.7,12.9-18.5,49.6-16.6,68.4C265,259.4,283.2,210,286.2,199.8z"/>
	<path class="st1" d="M412.8,178.8c-3.9-21-6.5-40.9-11.1-61.7c-5.3-24.1-0.1-39.9,15.4-58.8c6.9-8.5,13.2-17.3,20-26.1
		c3.9-5.2,30.3-19.6,19.9-28.1c-18.1-16.8-29.6,24-38.2,33.5l-25.1,31c-31.3,39.5-105.9,6.9-150.6,10.7c-13,1.1-22.5,7.5-5.7,14.2
		c9.7,3.9,24,2.4,34.3,3.6c15.8,1.9,78.2-7.9,80.1,9.2c0.9,7.9-24.3,19.3-33,20.7c-17.1,2.6-29,1.6-45.9-4.3
		c-24.3-8.5-46.7-15.3-71.6-17c-9.1-0.6-22.9-1.3-19.1,10.9c2.9,9.3,20.6,12.3,29.3,14.4c23.7,5.7,48,5,72.1,8.8
		c9.1,1.4,56.2-1.5,26.5,16.7c-9,5.6-15,12.3-22.6,13.9c-40.7,9.1-56.3-15-86.9-19.6c-10.6-1.6-66.6-17.2-59.1-2.8
		c9.9,19,127.3,37.4,130.5,41.1c9.5,11-23.7,20.9-30.6,22c-17.5,2.8-72.4,32.9-85.3,48.4c-32,38.4,14.6,17.8,39.1,7.7
		c22.2-9.3,47.4-25.8,66.2-43.9c6.9-6.6,38.5-43.4,30.1,5.8c-0.9,5.6-23.3,74.7-13.1,83.3c34.8-21.9,18.1-97.3,33.2-127.8
		c3-6,24.2-35.4,34-28.2c8.2,6-2,34.5-3.2,41.4c-2.2,13.1-3.9,59.1,0.5,67.6c11.5,22.3,21.4-43.3,21.1-52.2
		c-0.9-24.7-2.5-45.4,1.6-69.5c0.8-4.8,2.8-28.1,13.1-24c9.2,3.6,13.2,26.8,12.6,32.7c-1.3,13.8,5.2,49.3,15.4,64.8
		C420,237.6,414.6,188.6,412.8,178.8z"/>
	<g>
		<g>
			<path class="st2" d="M446.2,3.2c-4.5,2.1-9.1,13.1-12.1,17c-4.1,5.3-5.6,12.2-9.9,17.4c-9.1,10.9-18.1,22-27.2,32.9
				c-19,22.8-40.3,43.7-60.8,65.1c-19.3,20.2-39.2,39.9-60.4,58.1c-21.6,18.5-45.1,35-68.9,50.6c-15.4,10.1-30.9,20.7-48,27.8
				c-1.3,0.6-11.7,5.3-11.2,6.4c0.5,1.1,11.3-3,12.7-3.6c24.9-10.3,47.4-25.3,69.4-40.7c23.3-16.2,45.5-33.3,66.4-52.6
				c20.7-19,40.1-39.4,59.4-59.8c10.2-10.7,20.7-21.2,30.6-32.1c9.6-10.6,18.5-21.8,27.6-32.8c6.1-7.4,12.4-14.6,18.4-22
				c5.1-6.2,16-16.2,20.9-22.5C455.2,10.1,446.2,3.2,446.2,3.2z"/>
		</g>
		<g>
			<path class="st2" d="M397.7,71.9c-4.2,1-4.7,7.3-5.3,10.8c-1,6.1-1.3,12.2-1.9,18.4c-1.8,18.3,6.8,59,16.2,75
				c1.5,2.5-5.3-18.6-6.4-24.5c-3.3-16.6-6-29.6-5.5-46.3c0.2-5,0.7-10.1,1.2-15.1c0.3-2.7,0.6-5.4,1.1-8
				C397.3,80.9,400.5,71.3,397.7,71.9L397.7,71.9z"/>
		</g>
		<g>
			<path class="st2" d="M376.9,94.9c-7.5-1.8-15.1-2.8-22.8-3.2c-3-0.2-32.9-0.1-29.9,0.1c7.3,0.4,44.2,5.8,51.3,7.5
				C378.3,100,379.8,95.6,376.9,94.9L376.9,94.9z"/>
		</g>
		<g>
			<path class="st2" d="M338.9,131.4c-6,1.1-12,1.2-18.1,1.5c-2.9,0.2-28.1,3.5-25.1,3.3c6.4-0.3,37.8,0.9,44.1-0.3
				C342.7,135.3,341.8,130.8,338.9,131.4L338.9,131.4z"/>
		</g>
		<g>
			<path class="st2" d="M352.8,118.3c-5.3,14.8-2.9,43.9,3.3,58.1c1.2,2.7,0.3-8.7-0.2-14.1c-1.1-14.3-3.7-28.9,1.3-42.6
				C358.1,117,353.8,115.5,352.8,118.3L352.8,118.3z"/>
		</g>
		<g>
			<path class="st2" d="M305.5,167c-4.8,15-9,45.1-8.1,60.9c0.2,2.9,3.3-12.2,3.2-15.2c-0.9-15.3,4.7-29.6,9.3-44.2
				C310.8,165.7,306.4,164.2,305.5,167L305.5,167z"/>
		</g>
		<g>
			<path class="st2" d="M291.8,178.4c-7.9-1.4-16,0.8-23.8-1.4c-1.4-0.4-17.4-3.7-17.8-2.6c-0.4,1.1,14.8,5,16.3,5.4
				c8.2,2.2,16.7,1.7,25,3.2C294.5,183.5,294.7,178.9,291.8,178.4L291.8,178.4z"/>
		</g>
	</g>
</g>
<g>
</g>
<g>
</g>
<g>
</g>
<g>
</g>
<g>
</g>
<g>
</g>
<g>
</g>
<g>
</g>
<g>
</g>
<g>
</g>
<g>
</g>
</svg>
