<?xml version="1.0" encoding="utf-8"?>
<!-- Generator: Adobe Illustrator 26.0.1, SVG Export Plug-In . SVG Version: 6.00 Build 0)  -->
<svg fill='currentColor' version="1.1" id="Layer_1" xmlns="http://www.w3.org/2000/svg" xmlns:xlink="http://www.w3.org/1999/xlink" x="0px" y="0px"
	 viewBox="0 0 1533.1 247.8"  xml:space="preserve">
<g>
	<g>
		<path class="st0" d="M147.2,0.1c-4.1,1.3-7.6,3.3-10.5,6.4c-0.7,0.7-1.4,1.6-1.9,2.5c-0.9,1.6-0.3,3.1,1.4,3.8
			c0.7,0.3,1.5,0.5,2.3,0.6c4.1,0.2,8.2-0.2,11.9-2.1c2.9-1.5,4.8-3.8,5.2-7.1c0.1-1-0.1-2-0.2-3.3c24.4,1.3,46.9,8.5,67.7,21.6
			c-0.9,0.3-1.6,0.4-2.3,0.7c-3.4,1.7-4.3,5.8-1.6,8.7c4.3,4.5,9.7,6.2,15.8,5.2c1.9-0.3,3.3-1.5,4.4-3.1c2,2,4,3.8,5.8,5.8
			c6.7,7.2,12.3,15.2,16.2,24.2c4.9,11.4,6.7,23.2,3.7,35.4c-3.9,16.3-14.2,27.3-30.1,32.2c-9.1,2.8-18.6,4.8-28.2,5.9
			c-8.4,1-16.8,2.4-25.3,3.1c-10.5,0.9-21,1.7-31.5,1.9c-12.3,0.2-24.6,0-36.9-0.6c-18.3-1-36.6-3.2-54.3-8.3
			c-10.1-2.9-19.9-6.5-28.9-12.1c-12-7.5-17.5-18.4-17.8-32.3c-0.3-15,5-28.3,13.6-40.3c11.9-16.5,28-27.6,46.4-35.7
			c13.2-5.8,27.1-9.4,41.3-11.3c10.8-1.5,21.7-2,32.6-1.7C146.7,0.1,147,0.1,147.2,0.1z M192,70.7c-0.3-1.2-0.4-2.4-0.8-3.6
			c-1.6-4.7-4.2-8.8-8.9-11c-3.9-1.9-6.9,0.1-6.5,4.4c0.5,6.4,3.8,11.3,9.3,14.5C188.8,77,191.8,75,192,70.7z M67.9,65.5
			c2.9,0,5.7-0.5,8.2-1.8c1.8-1,3.6-2.2,3.5-4.5c0-2.3-1.8-3.5-3.7-4.4c-3.7-1.6-7.5-1.9-11.5-1C62,54.3,59.7,55.1,58,57
			c-1.5,1.7-1.5,3.7,0.1,5.3c0.7,0.7,1.5,1.2,2.3,1.6C62.7,65.1,65.2,65.5,67.9,65.5z M229.4,56.3c-0.1-0.7,0-1.9-0.3-2.9
			c-0.7-2.1-1.3-4.4-2.5-6.2c-1.7-2.6-4.5-2.5-6.5-0.1c-0.5,0.6-0.9,1.2-1.2,1.9c-1.8,3.7-2,7.6-1.3,11.5c0.4,1.9,1.1,3.7,2.1,5.3
			c2.1,3.3,5.2,3.1,7.4-0.1C228.8,62.9,229.3,59.9,229.4,56.3z M113.2,61.2c0.4,4.4,2.9,8.7,7,12.1c1.2,1,2.7,1.7,4.2,2.2
			c2.2,0.7,4-0.5,4.6-2.8c0.2-0.9,0.3-1.8,0.2-2.7c-0.8-6.1-3.9-10.9-9.3-13.9C116.2,54.1,113.2,56,113.2,61.2z M68.5,37.5
			c2.2,0.1,4.2-0.3,5.2-2.5c1-2.2-0.5-3.6-1.7-4.9c-3.2-3.4-7.2-5.4-11.8-6.1c-1.5-0.2-3.2-0.2-4.8,0c-2.4,0.3-4.7,3.5-2.1,6.3
			C57.4,34.7,62.4,37.3,68.5,37.5z M93.2,11.9c-0.5,0-1,0-1.6,0.1c-1.7,0.2-3.1,0.9-3.8,2.5c-0.7,1.6,0,2.9,1,4.1
			c4.3,5,9.8,7.4,16.4,7.1c1.6-0.1,3-0.6,3.7-2.1c0.7-1.6,0.1-3.1-0.9-4.3C104.3,14.5,99.2,12.4,93.2,11.9z M151,61
			c0.6,0,1.3,0,1.9-0.1c3-0.5,4.5-3.6,2.6-5.9c-4.5-5.6-10.4-8.3-17.6-7.7c-1.5,0.1-2.7,0.9-3.2,2.4c-0.6,1.5-0.1,2.7,0.8,3.8
			C139.6,58.2,144.7,60.9,151,61z M187.6,11.8c-1,0.1-1.7,0.1-2.4,0.2c-1.7,0.3-2.9,1.3-3.4,3c-0.5,1.5,0.4,2.6,1.3,3.7
			c0.4,0.4,0.8,0.8,1.2,1.2c4.1,3.9,9.1,5.7,14.7,5.8c1.9,0,3.4-0.8,4.2-2.5c0.8-1.6-0.1-2.9-1-4.1
			C198.3,14.4,193.2,12.4,187.6,11.8z M187.2,35.5c-0.5,0-0.9,0-1.4,0c-1.6,0.1-2.9,0.8-3.6,2.3c-0.7,1.5-0.4,2.9,0.6,4.1
			c1,1.2,2.1,2.3,3.4,3.2c3.8,2.8,8.1,4.3,12.8,4.2c1.9,0,3.4-0.8,4.2-2.6c0.8-1.7,0-3.1-1.2-4.3C198,38.1,193.1,35.7,187.2,35.5z
			 M162.9,23.7c-6,0.5-11.2,2.4-15.3,7c-2.5,2.7-0.9,5.5,1.7,6.3c1.7,0.5,3.3,0.7,5.1,0.3c5-1.1,9.6-2.8,12.8-7.1
			c1.8-2.3,1.1-5-1.7-6C164.7,23.8,163.8,23.8,162.9,23.7z M121.2,40c0-2.6-1.9-4.5-4.3-4.5c-6.5,0-12.2,2.1-16.6,7.2
			c-2,2.4-1.1,5.1,1.9,6c1.9,0.6,3.7,0.4,5.6,0c4.7-0.9,8.8-2.8,11.9-6.5C120.5,41.5,120.9,40.5,121.2,40z"/>
		<path class="st0" d="M13.4,183.4c2.8,2.4,5.3,4.7,8,6.8c6.5,5,13.9,8.6,21.5,11.4c10.9,4.1,22.3,6,33.7,7.7
			c19.6,2.8,39.3,3.2,59,3.2c11.4,0,22.8-0.1,34.2-0.5c16.3-0.6,32.5-1.9,48.4-5.4c11-2.4,21.8-5.4,31.6-11.2
			c5-2.9,9.8-6.3,13.8-10.5c0.4-0.4,0.6-1.1,0.9-1.6c0.3,0.2,0.6,0.3,0.8,0.5c0.3,2.4,0.8,4.7,1,7.1c0.5,10.2-1.4,19.8-7.5,28.3
			c-5.2,7.2-12.2,11.9-20.2,15.5c-9.9,4.5-20.4,7.1-31.2,8.9c-16.9,2.7-33.9,3.9-51,4.1c-12.5,0.2-25.1-0.1-37.6-0.2
			c-12.1-0.1-24.2-0.8-36.3-2.2c-12.2-1.5-24.3-3.7-36-7.9c-8.9-3.2-17.1-7.6-23.7-14.7c-6-6.5-9.3-14.2-10.1-23
			c-0.3-3.3-0.3-6.7-0.2-10C12.6,187.6,13.1,185.6,13.4,183.4z"/>
		<path class="st0" d="M10.5,121.5c3.4,3.1,6.5,6.3,10,9.1c7.7,6.2,16.5,10.3,25.9,13.3c14.4,4.5,29.2,6.8,44.1,8
			c19.1,1.5,38.1,2.1,57.3,1.8c14.3-0.2,28.6-0.5,42.8-1.9c15.8-1.5,31.4-4.2,46.4-9.6c10.1-3.6,19.3-8.8,26.9-16.5
			c0.7-0.7,1.4-1.5,2.1-2.3c0.7-0.7,1.3-1.5,2.1-2.3c2.5,3.6,3.9,7.5,3.6,11.8c-0.1,1.6-1.1,2.8-2.6,3.4
			c-6.3,2.6-10.2,7.3-12.4,13.7c-4.1,11.6-12.7,17.8-24.4,20.5c-11.1,2.5-22.2,2-33.2-0.5c-7.3-1.7-14.5-3.3-21.9-4.4
			c-18.4-2.8-36.5-0.8-54.1,5c-5.5,1.8-10.9,3.8-16.4,5.3c-8.6,2.3-17.1,1.2-25.4-1.7c-7.5-2.6-14.2-6.7-20.8-11.1
			c-6.2-4.1-12.5-7.9-19.7-10.2c-6-1.9-12.2-1.8-18.3-0.7c-3.7,0.6-7.4,0.8-11.1,0.2c-8.8-1.6-13.5-10-10.2-18.3
			C3.1,129.1,6.6,125.1,10.5,121.5z"/>
		<path class="st0" d="M16.1,165.6c9.1-3.2,17.8-2.9,26.4,0.8c5.4,2.3,10,5.8,14.8,9c7.9,5.2,16.1,9.6,25.4,11.8
			c12.1,2.9,23.9,1.9,35.5-2.3c7.1-2.6,14.2-5.1,21.6-6.6c11.9-2.4,23.8-2.9,35.7-1c8.1,1.3,16.1,3.3,24.2,5.2
			c9.2,2.1,18.3,2,27.6,0.9c7.1-0.9,14-2.4,20.5-5.7c3.7-1.9,7.1-4.3,10.2-7.1c0.4-0.4,1-0.5,1.5-0.8c-0.1,0.6-0.2,1.2-0.5,1.7
			c-2.9,4.8-7.1,8.4-11.8,11.5c-8.9,5.8-18.8,9.2-29.1,11.5c-11.5,2.5-23.1,4-34.8,5c-22,1.9-43.9,1.7-65.9,1
			c-10.9-0.3-21.8-0.9-32.6-2C69.7,197,54.9,194,40.9,188c-8.6-3.7-15.9-9-21.5-16.5c-0.8-1-1.4-2.1-2-3.2
			C16.9,167.4,16.6,166.6,16.1,165.6z"/>
	</g>
	<g>
		<path class="st0" d="M426,160.4c0,16.8-13.9,26.7-40.1,26.7h-52.6V89.7h49.8c25.6,0,38.1,10.4,38.1,25.5c0,9.3-4.7,16.8-13.1,21.2
			C419.1,140.2,426,148.6,426,160.4z M360.5,109.6v18.8h18.9c9.2,0,13.9-3.2,13.9-9.5c0-6.1-4.7-9.3-13.9-9.3H360.5z M398.1,157.3
			c0-6.7-5-9.9-14.5-9.9h-23.1v19.8h23.1C393.1,167.2,398.1,164,398.1,157.3z"/>
		<path class="st0" d="M439.5,143.7v-54H467v53.2c0,16.7,7,23.4,18.5,23.4c11.4,0,18.4-6.7,18.4-23.4V89.7h27.1v54
			c0,29.1-17,45.4-45.8,45.4S439.5,172.8,439.5,143.7z"/>
		<path class="st0" d="M592.3,161.2h-15v25.9h-27.6V89.7h44.5c26.6,0,43.3,13.8,43.3,36.1c0,14.3-7,24.9-19.1,30.8l21,30.6H610
			L592.3,161.2z M592.6,111.4h-15.3v28.5h15.3c11.4,0,17.1-5.3,17.1-14.2C609.7,116.7,604,111.4,592.6,111.4z"/>
		<path class="st0" d="M718,136.3h24.4v40.4c-11.3,8.1-26.7,12.4-40.9,12.4c-31,0-53.7-21-53.7-50.7c0-29.7,22.7-50.7,54.3-50.7
			c18.2,0,33,6.3,42.6,17.8l-17.5,15.9c-6.7-7.4-14.3-10.9-23.7-10.9c-16.7,0-27.8,11-27.8,27.8c0,16.4,11.1,27.8,27.6,27.8
			c5.2,0,10-1,14.9-3.2V136.3z"/>
		<path class="st0" d="M838.2,165.8v21.3h-78.2V89.7h76.4V111h-49.1v16.4h43.3V148h-43.3v17.8H838.2z"/>
		<path class="st0" d="M896.1,161.2h-15v25.9h-27.6V89.7H898c26.6,0,43.3,13.8,43.3,36.1c0,14.3-7,24.9-19.1,30.8l21,30.6h-29.5
			L896.1,161.2z M896.3,111.4H881v28.5h15.3c11.4,0,17.1-5.3,17.1-14.2C913.5,116.7,907.8,111.4,896.3,111.4z"/>
		<path class="st0" d="M1063.8,89.7v97.4h-9.9v-78l-38.3,65.6h-4.9l-38.3-65.1v77.5h-9.9V89.7h8.5l42.3,72.2l41.9-72.2H1063.8z"/>
		<path class="st0" d="M1156.7,161.1h-54.3l-11.7,26H1080l44.5-97.4h10.2l44.5,97.4h-10.9L1156.7,161.1z M1152.9,152.7l-23.4-52.3
			l-23.4,52.3H1152.9z"/>
		<path class="st0" d="M1186,175.3l4-7.9c7,6.8,19.3,11.8,32.2,11.8c18.2,0,26.2-7.7,26.2-17.3c0-26.7-60-10.3-60-46.4
			c0-14.3,11.1-26.7,35.9-26.7c11,0,22.4,3.2,30.2,8.6l-3.5,8.2c-8.4-5.4-18.1-8.1-26.7-8.1c-17.8,0-25.8,7.9-25.8,17.7
			c0,26.7,60,10.6,60,46.1c0,14.3-11.4,26.6-36.3,26.6C1207.6,188,1193.3,182.8,1186,175.3z"/>
		<path class="st0" d="M1298.5,98.6h-34.2v-8.9h78.8v8.9h-34.2v88.5h-10.3V98.6z"/>
		<path class="st0" d="M1428.4,178.2v8.9h-68.9V89.7h66.8v8.9h-56.5v34.7h50.4v8.8h-50.4v36.2H1428.4z"/>
		<path class="st0" d="M1519.2,187.1l-22.3-31.3c-2.5,0.3-5,0.4-7.8,0.4h-26.2v30.9h-10.3V89.7h36.5c24.8,0,39.8,12.5,39.8,33.4
			c0,15.3-8.1,26-22.3,30.6l23.8,33.4H1519.2z M1518.6,123.1c0-15.6-10.3-24.5-29.8-24.5h-25.9v48.9h25.9
			C1508.3,147.4,1518.6,138.4,1518.6,123.1z"/>
	</g>
</g>
</svg>
