<?xml version="1.0" encoding="utf-8"?>
<!-- Generator: Adobe Illustrator 26.0.1, SVG Export Plug-In . SVG Version: 6.00 Build 0)  -->
<svg version="1.1" id="Layer_1" xmlns="http://www.w3.org/2000/svg" xmlns:xlink="http://www.w3.org/1999/xlink" x="0px" y="0px"
	 viewBox="0 0 404.8 244.6" style="enable-background:new 0 0 404.8 244.6;" xml:space="preserve">
<style type="text/css">
	.st0{fill:#634E40;}
	.st1{fill:#8C735B;}
	.st2{fill:#A5896A;}
	.st3{opacity:0.6;}
	.st4{fill:#D1AC88;}
</style>
<g>
	<g>
		<path class="st0" d="M15.9,79.9c6.3-20.1,34-23.7,53.7-34.6c13.4-7.4,30.6-15.4,46.2-18.7c8.2-1.8,16.1-3.4,24.5-3.3
			c5.9,0.1,11.8,1.5,17.3,1.4l22.5-0.9c13.1,13.7-2.2,26.4-17.9,35.3c-10.3,5.8-12.2-1.4-17.7-1.3c-6.5,0.1-9.8,3.4-11.8,8.9
			c-2.8,7.6,17.4,9.5,24,12.1c6.3,2.4,15.8,5.3,18.5,11.1c4,8.5-5.1,15.9-12.5,20.3c-7.2,4.3-16.6,7.9-26.3,8.6
			c-9.3,0.6-11.9-1.5-18.7-5.8c-11.1-6.9-18.2-12.7-30.3-18c0,1.6-9.3,4.3-10.2,7.2c-0.9,2.9,6.7,6,6.1,7.6
			c-3,7.7-25.3,18.3-43.3,15.9c-8.4-1.1-29-0.7-37.9-21.3C-1.5,96.1,13.2,88.4,15.9,79.9z"/>
		<path class="st1" d="M31.8,77.3C43.2,57.5,65.7,43.9,89.4,35c16.5-6.2,39.2-17.5,57.2-12.4c5.3,1.5,11.7,5.5,14.2,9.7
			c1.7,2.9,1.9,10.2-0.9,11.4l-2.1,2.9c-3.5-1.1-9.1-0.8-12.9,1c-1,0.5-3.6,3-4.6,3.7c-2,1.3-3.2,1.3-5.1,2.9
			c-1.3,1.1-1.3,3.1-3.2,4.5c-1.9,1.3-5,1.1-7,2.7c-4,3.3-1.2,7.1-5.5,9.8c-4,2.5-10.9,1.4-14.2,4.4c-1.5,1.4-0.3,3.4-1.9,4.9
			c-1.5,1.4-5.1,2.2-7.1,3c-4.5,1.7-9.4,2.7-12.8,5.6c-1.5,1.3-1.7,3.3-3.8,4.6c-2,1.2-5.3,0.5-7.3,1.6c-2.4,1.2-2.6,2.8-4.5,4.1
			c-2.6,1.8-4.1,1.5-7,2.7c-2.2,1-3.3,2.8-5.7,3.8c-2.3,1-5.5,0.7-8,1.3c-8.1,1.9-14.7,4.9-20.5-2.1C19.3,96.3,26.8,86.1,31.8,77.3z
			"/>
		<path class="st2" d="M173.8,88.1c-7.5-14.8-61.6-28-60.1-34.8c1.4-6.9,24.9-18.1,36.6-15.3c11.8,2.8-8.4,11,1.9,16.6
			c4.5,2.5,48.7-22.7,20.6-37.4C148.5,4.5,103.3,2.7,46.1,39.5C-3.3,71.3-8.4,97.3,9.3,110c30.4,22,68.6-3.8,67.6-6.2
			c-2.1-5.1-22,7.9-32.1-4.3c-4.6-5.6,15.5-21.8,31.8-18.1c11.7,2.6,49.7,36.9,61.1,33.1C149,110.8,178.8,98,173.8,88.1z"/>
		<g class="st3">
			<path class="st4" d="M165.2,20.5L165.2,20.5C165.4,20.6,165.3,20.5,165.2,20.5z"/>
			<path class="st4" d="M30.9,64.2c5.4-6.3,14.3-12.1,21.3-17C68.7,35.5,85.5,27,105.6,21.4c16.8-4.7,43.3-7.9,58.4-1.3
				c0.2,0.1,0.9,0.4,1.2,0.5l1.5,5.4c1.1,7.1-22.7,5.4-28,5.9c-10.1,1-24.7,2.6-32.6,8.5c-10.4,7.8-8.2,16.7,0.6,23.3
				c4.1,3,11.4,6.3,7.5,11.8c-3,4.2-10.6,4.2-15.4,3.8c-11.4-1-20.9-9.6-32.6-8.4C55.7,72,49.6,80.5,39.6,81.6
				C26.9,82.7,25,71.1,30.9,64.2z"/>
		</g>
	</g>
	<g>
		<path class="st0" d="M384.8,131.1c-10.3-26-41.4-25.2-65-35.8c-16-7.3-36.3-14.6-54-15.9c-9.3-0.7-18.3-1.3-27.5,0.6
			c-6.4,1.3-12.7,4.5-18.8,5.5L194.6,89c-12.1,21.2,6.9,35.3,25.8,44.1c12.3,5.7,13.2-4.4,19.2-5.4c7.2-1.2,11.4,2.6,14.5,9.7
			c4.3,9.7-17.6,16.5-24.4,21.3c-6.5,4.6-16.4,10.4-18.5,18.9c-3,12.4,8.3,20.5,17.3,24.9c8.7,4.3,19.6,7.3,30.4,6.2
			c10.3-1,12.8-4.5,19.5-11.6c11-11.7,17.8-20.9,30.3-30.6c0.3,2.2,11,3.9,12.5,7.6c1.5,3.7-6.4,9.5-5.4,11.6
			c4.7,9.9,31,19.6,50.3,12.6c9-3.2,31.8-6.9,38.1-36.7C406.7,149.6,389.2,142.2,384.8,131.1z"/>
		<path class="st1" d="M366.8,131c-15.9-24.6-42.9-38.3-70.6-45.5c-19.2-5-46.1-15.7-65.1-5c-5.6,3.2-12,9.9-14,16.1
			c-1.4,4.3-0.3,14.2,2.9,15.2l2.8,3.5c3.7-2.2,9.8-2.9,14.3-1.2c1.1,0.4,4.4,3.3,5.7,4c2.5,1.3,3.8,1.1,6.1,2.9
			c1.6,1.3,1.9,4,4.3,5.4c2.3,1.4,5.6,0.4,8.2,2.3c5,3.6,2.5,9.3,7.8,12.1c4.8,2.5,12.3-0.3,16.4,3.1c1.9,1.5,0.9,4.6,2.9,6.3
			c1.9,1.6,6,1.9,8.3,2.6c5.2,1.4,10.8,1.7,15.1,5c1.9,1.5,2.5,4.1,5,5.4c2.4,1.2,5.9-0.4,8.3,0.6c2.9,1.2,3.3,3.2,5.7,4.7
			c3.2,1.9,4.7,1.2,8.1,2.3c2.6,0.9,4.1,3.1,6.9,4c2.7,0.9,6.2-0.1,9,0.1c9.2,0.9,17,3.7,22.2-7.1C383.9,154,373.8,141.8,366.8,131z
			"/>
		<path class="st2" d="M212.5,174.7c5.7-21.6,63-50.5,60.2-59.5s-30.4-19.4-42.9-13.1c-12.5,6.2,11.1,13.1,0.7,22.8
			c-4.6,4.2-57.4-20.8-29.1-46.4c24.6-22.2,74-33.9,143.2,4.2c59.8,32.9,69.8,67.1,52.6,87.9c-29.8,36-76.1,9-75.4,5.5
			c1.5-7.3,25.6,6.2,34.6-12.5c4.1-8.5-20.8-26.3-38.1-18c-12.4,6-48.4,60.2-61.6,57.4C243.6,200.3,208.7,189.1,212.5,174.7z"/>
		<g class="st3">
			<path class="st4" d="M210.4,81.3L210.4,81.3C210.2,81.5,210.3,81.5,210.4,81.3z"/>
			<path class="st4" d="M365.6,113c-7.1-7.5-17.8-13.4-26.3-18.7c-20.1-12.5-40.1-20.5-63.2-24c-19.3-3-49-1.8-64.5,10.2
				c-0.2,0.1-0.9,0.7-1.2,0.9l-0.7,7.6c0,9.9,25.9,2.6,31.8,2.2c11.3-0.7,27.6-1.6,37.3,4.8c12.8,8.5,11.9,20.9,3.3,31.7
				c-3.9,5-11.4,10.9-6.3,17.5c4,5.1,12.4,3.5,17.6,1.9c12.3-3.7,21.4-17.3,34.4-18c11.7-0.7,19.9,9.6,31.1,9
				C373.2,137.3,373.4,121.1,365.6,113z"/>
		</g>
	</g>
	<g>
		<path class="st0" d="M33.5,163.4c11.2-23.1,38.7-20,60.5-28.1c14.8-5.5,33.4-10.7,49.2-10.6c8.3,0,16.3,0.2,24.4,2.5
			c5.6,1.6,10.9,5.1,16.3,6.5l21.9,5c9.2,20.4-8.8,31.9-26.3,38.6c-11.4,4.3-11.4-5-16.6-6.3c-6.3-1.6-10.3,1.6-13.7,7.8
			c-4.6,8.6,14.3,16.5,20,21.4c5.5,4.7,13.8,10.8,15,18.7c1.7,11.6-9,18.2-17.2,21.6c-8,3.3-18,5.3-27.5,3.5
			c-9.1-1.7-11-5.1-16.5-12.1c-8.9-11.5-14.2-20.5-24.5-30.3c-0.4,2-10.1,2.8-11.6,6.1c-1.6,3.3,4.9,9.2,3.9,11
			c-4.9,8.7-29,15.7-45.7,7.9c-7.8-3.6-27.7-8.7-31-36.5C12.7,178.8,28.8,173.2,33.5,163.4z"/>
		<path class="st1" d="M49.5,164.6c16-21.4,41.1-32,66.2-36.6c17.5-3.2,42.2-11,58.2,0.2c4.7,3.3,9.9,9.9,11.2,15.8
			c0.9,4-0.8,13-3.8,13.8l-2.7,3c-3.1-2.3-8.5-3.4-12.6-2.2c-1,0.3-4.2,2.7-5.4,3.3c-2.3,1.1-3.4,0.7-5.6,2.2
			c-1.5,1.1-2,3.5-4.2,4.6s-5,0-7.4,1.5c-4.7,2.9-2.9,8.4-7.8,10.6c-4.4,2-10.9-1.2-14.8,1.6c-1.8,1.3-1.2,4.1-3.1,5.5
			c-1.8,1.3-5.5,1.3-7.6,1.7c-4.7,0.9-9.7,0.8-13.8,3.5c-1.8,1.2-2.5,3.6-4.8,4.6c-2.2,0.9-5.2-0.8-7.5,0c-2.7,0.9-3.2,2.7-5.4,3.9
			c-3,1.5-4.3,0.7-7.4,1.5c-2.4,0.6-3.9,2.5-6.5,3.2c-2.4,0.6-5.5-0.6-8-0.5c-8.3,0.2-15.4,2.1-19.2-8.1
			C32.6,184.5,42.4,174,49.5,164.6z"/>
		<path class="st2" d="M183.2,216.2c-3.4-20.3-52.1-51-48.9-59.1c3.2-8.1,28.5-15.5,39.1-8.9s-10.8,11.3-2.4,20.9
			c3.7,4.2,52.6-14.8,29.4-40.4c-20.1-22.2-63.2-36.6-127.6-6.8c-55.6,25.8-67.2,56.4-53.5,76.8c23.8,35.3,67,13.9,66.7,10.7
			c-0.7-6.8-23.2,3.8-29.8-14c-3-8.1,20.5-22.6,35.2-13.7c10.6,6.4,38.4,58.9,50.3,57.3C153.6,237.4,185.5,229.7,183.2,216.2z"/>
		<g class="st3">
			<path class="st4" d="M192.3,130.6L192.3,130.6C192.4,130.7,192.4,130.7,192.3,130.6z"/>
			<path class="st4" d="M52,148.2c6.8-6.3,16.8-11,24.8-15.2c18.9-10,37.2-15.9,58-17.4c17.3-1.3,43.6,2,56.5,14.2
				c0.1,0.1,0.7,0.7,1,0.9v7c-0.8,9.1-23.2,0.5-28.4-0.3c-10-1.5-24.4-3.5-33.5,1.7c-12,6.8-12.2,18.3-5.4,28.8
				c3.1,4.8,9.3,10.9,4.2,16.5c-3.9,4.4-11.3,2.3-15.8,0.5c-10.7-4.3-17.7-17.4-29.2-19.1c-10.4-1.5-18.4,7.3-28.4,6
				C43.4,169.9,44.5,155.1,52,148.2z"/>
		</g>
	</g>
</g>
</svg>
