<?xml version="1.0" encoding="utf-8"?>
<!-- Generator: Adobe Illustrator 26.0.1, SVG Export Plug-In . SVG Version: 6.00 Build 0)  -->
<svg version="1.1" id="Layer_1" xmlns="http://www.w3.org/2000/svg" xmlns:xlink="http://www.w3.org/1999/xlink" x="0px" y="0px"
	 viewBox="0 0 586.9 321.6" style="enable-background:new 0 0 586.9 321.6;" xml:space="preserve">
<style type="text/css">
	.st0{fill:#994575;}
	.st1{fill:#ECCEED;}
	.st2{fill:#C1599A;}
</style>
<g>
	<g>
		<path class="st0" d="M374.1,185.7l-61.5-22.2l-86.7,0.5l-62.2,18.5l-33.8,35.6l8.3,25.2c0,0-1.9-13,10.8-26.6
			c12.7-13.6,28.5-31.4,75.1-34.3c54.4-3.4,96.2-2.1,119.7,6.3c20.2,7.2,43.4,25.4,43.8,28.2s6.1-6.8,6.1-6.8L374.1,185.7z"/>
		<path class="st0" d="M401.6,207.7l-16.5,44.1l-61.4,38.7l-86.4,4.5l-68-17.7l-29.4-18.8L123,228.7l-4.6,24.8c0,0-2,12.7,21.6,33.9
			c19.9,17.9,100.2,41.6,158.1,31.9c124.4-20.8,111.6-84.8,111.6-84.8L401.6,207.7z"/>
		<path class="st1" d="M235.3,158.5c-42.7,3.7-115.4,26.6-112,74.2c3.1,42.7,63.1,62.5,123.1,68.5c76,7.6,142.3-31.7,155.5-66.1
			C417.6,194.4,358.9,147.7,235.3,158.5z M385.3,233.4c-12.4,32-63.3,57.5-137.9,53.3c-56-3.1-108.8-16.2-111.7-56
			c-3.2-44.3,63.6-60.1,103.4-63.6C354.3,157.1,399.9,195.4,385.3,233.4z"/>
		<g>
			<g>
				<path class="st2" d="M157.6,281.3c0.6,4.5-2.1,8.7-1.5,13.3c0.2,1.8,2.9,1.2,2.7-0.5c-0.6-4.5,2.1-8.7,1.5-13.3
					C160.1,279,157.4,279.5,157.6,281.3L157.6,281.3z"/>
			</g>
			<g>
				<path class="st2" d="M177.7,289.8c-0.9,4.1-2.1,8-3.1,12.1c-0.4,1.7,2.2,2.7,2.6,0.9c1-4,2.2-8,3.1-12.1
					C180.7,289,178.1,288,177.7,289.8L177.7,289.8z"/>
			</g>
			<g>
				<path class="st2" d="M193.4,295.2c-0.3,4.5-0.2,9.1-1.5,13.5c-0.5,1.7,2.1,2.7,2.6,0.9c1.4-4.6,1.3-9.4,1.6-14.2
					C196.3,293.6,193.6,293.4,193.4,295.2L193.4,295.2z"/>
			</g>
			<g>
				<path class="st2" d="M229.3,302.2c0.2,4.3,0.5,8.6,0.2,12.9c-0.1,1.8,2.7,2,2.8,0.2c0.3-4.3,0-8.6-0.2-12.9
					C231.9,300.6,229.2,300.4,229.3,302.2L229.3,302.2z"/>
			</g>
			<g>
				<path class="st2" d="M271.1,305.9c1.7,2.9,1,6.7,2,9.9c0.5,1.7,3.2,1.2,2.7-0.5c-1-3.4-0.4-7.4-2.2-10.5
					C272.7,303.1,270.2,304.3,271.1,305.9L271.1,305.9z"/>
			</g>
			<g>
				<path class="st2" d="M305.8,301.5c-0.2,3.5-0.5,7.1,0.4,10.5c0.5,1.7,3.2,1.2,2.7-0.5c-0.9-3.2-0.6-6.5-0.4-9.7
					C308.8,299.9,306,299.7,305.8,301.5L305.8,301.5z"/>
			</g>
			<g>
				<path class="st2" d="M333.1,295.4c0.5,3.1,0.1,6.4,0.4,9.5c0.2,1.8,2.9,1.2,2.7-0.5c-0.4-3.2,0-6.4-0.4-9.5
					C335.6,293.1,332.9,293.7,333.1,295.4L333.1,295.4z"/>
			</g>
			<g>
				<path class="st2" d="M369.1,275.8c-0.3,4.1-0.6,8.2-0.9,12.2c-0.1,1.8,2.7,2,2.8,0.2c0.3-4.1,0.6-8.2,0.9-12.2
					C372,274.2,369.2,274,369.1,275.8L369.1,275.8z"/>
			</g>
			<g>
				<path class="st2" d="M123.3,251.7c-0.3,4.3-1.2,8.5-2,12.7c-0.3,1.8,2.4,1.9,2.8,0.2c0.8-4.2,1.7-8.4,2-12.7
					C126.3,250.1,123.5,249.9,123.3,251.7L123.3,251.7z"/>
			</g>
			<g>
				<path class="st2" d="M135,268.7c-0.2,3-0.4,6.1-1.2,9c-0.4,1.7,2.2,2.7,2.6,0.9c0.8-3.2,1.1-6.5,1.3-9.8
					C137.9,267.1,135.1,266.9,135,268.7L135,268.7z"/>
			</g>
			<g>
				<path class="st2" d="M146.8,277.5c1,2.9-0.1,6.9-0.3,9.9c-0.1,1.8,2.6,2,2.8,0.2c0.3-3.7,1.3-7.7,0.1-11.3
					C148.7,274.6,146.3,275.8,146.8,277.5L146.8,277.5z"/>
			</g>
			<g>
				<path class="st2" d="M168.9,288c-0.8,3.4-1.1,6.9-1.3,10.3c-0.1,1.8,2.7,2,2.8,0.2c0.2-3.2,0.5-6.4,1.2-9.6
					C171.9,287.2,169.3,286.3,168.9,288L168.9,288z"/>
			</g>
			<g>
				<path class="st2" d="M185.2,294.4c0.8,3.5,0.6,7.1,0.9,10.7c0.1,1.8,2.9,1.2,2.7-0.5c-0.3-3.6-0.1-7.2-0.9-10.7
					C187.5,292.1,184.8,292.7,185.2,294.4L185.2,294.4z"/>
			</g>
			<g>
				<path class="st2" d="M200.5,298.3c0.7,4.1,0,8.3,0.2,12.5c0.1,1.8,2.8,2,2.8,0.2c-0.2-4.4,0.6-8.9-0.2-13.2
					C203,296,200.2,296.5,200.5,298.3L200.5,298.3z"/>
			</g>
			<g>
				<path class="st2" d="M210.4,300.3c-0.3,4.4-0.6,8.9,0.2,13.2c0.3,1.8,3.1,1.2,2.7-0.5c-0.8-4.1-0.5-8.3-0.2-12.5
					C213.3,298.7,210.5,298.5,210.4,300.3L210.4,300.3z"/>
			</g>
			<g>
				<path class="st2" d="M215.8,302.4c-0.2,4,0,8.1,0.3,12.1c0.1,1.8,2.9,1.2,2.7-0.5c-0.3-3.8-0.5-7.6-0.3-11.4
					C218.7,300.8,215.9,300.6,215.8,302.4L215.8,302.4z"/>
			</g>
			<g>
				<path class="st2" d="M310.1,171.1c-0.2,2.8,0.1,5.6,0,8.4c-0.1,1.8,2.7,2,2.8,0.2c0.2-2.8-0.1-5.6,0-8.4
					C313,169.5,310.2,169.3,310.1,171.1L310.1,171.1z"/>
			</g>
			<g>
				<path class="st2" d="M315.7,173.9c0.7,1.8,0.7,4,1.1,5.9c0.4,1.7,3.2,1.2,2.7-0.5c-0.5-2.2-0.6-4.5-1.3-6.6
					C317.5,170.9,315,172.2,315.7,173.9L315.7,173.9z"/>
			</g>
			<g>
				<path class="st2" d="M322.6,175.3c-0.1,1.7-0.2,3.3-0.4,5c-0.1,1.8,2.7,2,2.8,0.2c0.1-1.7,0.2-3.3,0.4-5
					C325.5,173.7,322.8,173.5,322.6,175.3L322.6,175.3z"/>
			</g>
			<g>
				<path class="st2" d="M338,178.6c-0.1,1.8-0.2,3.6,0.2,5.4c0.4,1.7,3.1,1.2,2.7-0.5c-0.4-1.6-0.3-3.1-0.2-4.7
					C340.9,177.1,338.2,176.9,338,178.6L338,178.6z"/>
			</g>
			<g>
				<path class="st2" d="M348,182.3c0.7,1.9,1.2,4,1.7,5.9c0.4,1.7,3.2,1.2,2.7-0.5c-0.6-2.2-1.1-4.5-1.9-6.6
					C349.9,179.4,347.4,180.6,348,182.3L348,182.3z"/>
			</g>
			<g>
				<path class="st2" d="M357.6,186.2c-0.1,1.6-0.1,3.2,0.3,4.9c0.4,1.7,3.2,1.2,2.7-0.5c-0.3-1.4-0.3-2.7-0.2-4.1
					C360.5,184.6,357.7,184.4,357.6,186.2L357.6,186.2z"/>
			</g>
			<g>
				<path class="st2" d="M369.7,195.3c0.4,0.5,0.3,2.3,0,3.1c-0.6,1.7,2,2.6,2.6,0.9c0.7-1.8,0.7-4.3-0.5-5.9
					C370.7,192,368.6,193.9,369.7,195.3L369.7,195.3z"/>
			</g>
			<g>
				<path class="st2" d="M298.5,169.1c-0.2,2.6-0.4,5.2-0.6,7.8c-0.1,1.8,2.7,2,2.8,0.2c0.2-2.6,0.4-5.2,0.6-7.8
					C301.4,167.5,298.6,167.3,298.5,169.1L298.5,169.1z"/>
			</g>
			<g>
				<path class="st2" d="M287.9,171.3c-0.2-0.1-0.1,0-0.1,0.2c0,0.5-0.1,0.9-0.2,1.4c-0.2,1-0.5,2-0.7,2.9c-0.5,1.7,2.2,2.7,2.6,0.9
					c0.6-2.2,2.2-6-0.1-7.7C288,167.9,286.4,170.2,287.9,171.3L287.9,171.3z"/>
			</g>
			<g>
				<path class="st2" d="M280.7,168.6c-0.8,2.8-0.9,5.6-0.6,8.5c0.2,1.8,2.9,1.2,2.7-0.5c-0.3-2.4-0.2-4.8,0.5-7
					C283.8,167.8,281.2,166.9,280.7,168.6L280.7,168.6z"/>
			</g>
			<g>
				<path class="st2" d="M270.5,170.5c-0.1,1.7,0.4,3.3,0.8,4.9c0.5,1.7,3.2,1.2,2.7-0.5c-0.4-1.4-0.8-2.7-0.8-4.2
					C273.3,168.9,270.5,168.7,270.5,170.5L270.5,170.5z"/>
			</g>
			<g>
				<path class="st2" d="M262,171.6c-0.1,2-0.3,4,0.2,6c0.4,1.7,3.1,1.2,2.7-0.5c-0.4-1.7-0.3-3.5-0.1-5.2
					C264.9,170,262.1,169.8,262,171.6L262,171.6z"/>
			</g>
		</g>
	</g>
	<g>
		<path class="st0" d="M250.2,119.2l-63-17.8l-86.3,6.6l-60.8,22.9L8.9,168.8l10,24.5c0,0-2.8-12.8,8.9-27.3s26.2-33.4,72.4-39.6
			c54.1-7.2,95.8-8.9,119.8-2.2c20.7,5.8,45.1,22.3,45.7,25.1s5.6-7.2,5.6-7.2L250.2,119.2z"/>
		<path class="st0" d="M279.2,139.2l-13.4,45.1l-58.5,42.9l-85.8,10.6L52.4,225l-30.6-16.7l-19-28.4L0,205c0,0-1.1,12.8,24,32.3
			c21.2,16.5,102.9,34.4,159.9,20.6c122.6-29.5,105.3-92.5,105.3-92.5L279.2,139.2z"/>
		<path class="st1" d="M109.8,101.9C67.4,108.6-3.5,136.6,3.4,183.8c6.1,42.4,67.4,57.9,127.6,59.6c76.3,2.2,139.7-41.7,150.5-76.9
			C294.2,124.7,232.4,82.4,109.8,101.9z M264.7,166c-10.1,32.8-59.1,61.9-133.7,63c-56.2,0.8-109.7-8.5-115.4-48
			c-6.4-44,59.2-64.5,98.6-70.8C228.4,92.1,276.6,127,264.7,166z"/>
		<g>
			<g>
				<path class="st2" d="M41,229.9c0.9,4.5-1.4,8.8-0.6,13.4c0.3,1.8,3,1,2.7-0.7c-0.9-4.5,1.4-8.8,0.6-13.4
					C43.4,227.4,40.7,228.1,41,229.9L41,229.9z"/>
			</g>
			<g>
				<path class="st2" d="M61.6,236.9c-0.6,4.1-1.5,8.2-2.2,12.3c-0.3,1.8,2.4,2.5,2.7,0.7c0.7-4.1,1.6-8.1,2.2-12.3
					C64.6,235.9,61.9,235.2,61.6,236.9L61.6,236.9z"/>
			</g>
			<g>
				<path class="st2" d="M77.7,241.2c0,4.5,0.5,9.1-0.5,13.6c-0.4,1.8,2.3,2.5,2.7,0.7c1.1-4.7,0.6-9.5,0.6-14.3
					C80.5,239.4,77.7,239.4,77.7,241.2L77.7,241.2z"/>
			</g>
			<g>
				<path class="st2" d="M114,245.7c0.5,4.3,1.1,8.5,1.1,12.8c0,1.8,2.8,1.8,2.8,0c0-4.3-0.6-8.6-1.1-12.8
					C116.5,243.9,113.7,243.9,114,245.7L114,245.7z"/>
			</g>
			<g>
				<path class="st2" d="M156,246.4c1.9,2.8,1.5,6.6,2.6,9.7c0.6,1.7,3.3,1,2.7-0.7c-1.2-3.3-0.9-7.3-2.9-10.4
					C157.4,243.5,154.9,244.9,156,246.4L156,246.4z"/>
			</g>
			<g>
				<path class="st2" d="M190.3,239.5c0,3.5,0,7.1,1.2,10.4c0.6,1.7,3.3,1,2.7-0.7c-1.1-3.1-1.1-6.4-1.1-9.7
					C193.1,237.7,190.3,237.7,190.3,239.5L190.3,239.5z"/>
			</g>
			<g>
				<path class="st2" d="M217.1,231.5c0.7,3.1,0.5,6.3,1.1,9.5c0.3,1.8,3,1,2.7-0.7c-0.6-3.1-0.4-6.4-1.1-9.5
					C219.4,229.1,216.7,229.8,217.1,231.5L217.1,231.5z"/>
			</g>
			<g>
				<path class="st2" d="M251.6,209.4c0,4.1,0,8.2,0,12.3c0,1.8,2.8,1.8,2.8,0c0-4.1,0-8.2,0-12.3
					C254.4,207.6,251.6,207.6,251.6,209.4L251.6,209.4z"/>
			</g>
			<g>
				<path class="st2" d="M4.7,202.8c0,4.3-0.6,8.6-1.1,12.8c-0.2,1.8,2.6,1.8,2.8,0c0.5-4.3,1.1-8.5,1.1-12.8
					C7.5,201,4.8,201,4.7,202.8L4.7,202.8z"/>
			</g>
			<g>
				<path class="st2" d="M17.6,218.9c0,3,0,6.1-0.5,9.1c-0.3,1.8,2.4,2.5,2.7,0.7c0.6-3.3,0.6-6.5,0.6-9.8
					C20.3,217.1,17.6,217.1,17.6,218.9L17.6,218.9z"/>
			</g>
			<g>
				<path class="st2" d="M30,226.9c1.2,2.9,0.4,6.9,0.4,9.9c0,1.8,2.8,1.8,2.8,0c0-3.7,0.8-7.8-0.7-11.3
					C31.7,223.8,29.3,225.2,30,226.9L30,226.9z"/>
			</g>
			<g>
				<path class="st2" d="M52.7,235.8c-0.5,3.5-0.6,6.9-0.6,10.4c0,1.8,2.8,1.8,2.8,0c0-3.2,0-6.5,0.5-9.7
					C55.7,234.8,53,234,52.7,235.8L52.7,235.8z"/>
			</g>
			<g>
				<path class="st2" d="M69.4,241c1.1,3.4,1.1,7.1,1.7,10.6c0.3,1.8,3,1,2.7-0.7c-0.5-3.5-0.6-7.1-1.7-10.6
					C71.6,238.6,68.9,239.3,69.4,241L69.4,241z"/>
			</g>
			<g>
				<path class="st2" d="M85,243.8c1,4.1,0.6,8.3,1.1,12.4c0.2,1.8,3,1.8,2.8,0c-0.5-4.4-0.1-8.9-1.2-13.2
					C87.3,241.3,84.6,242.1,85,243.8L85,243.8z"/>
			</g>
			<g>
				<path class="st2" d="M95,245.1c0,4.4,0,8.9,1.2,13.2c0.5,1.7,3.1,1,2.7-0.7c-1.1-4.1-1.1-8.3-1.1-12.4
					C97.8,243.3,95,243.3,95,245.1L95,245.1z"/>
			</g>
			<g>
				<path class="st2" d="M100.6,246.8c0,4.1,0.6,8.1,1.2,12.1c0.3,1.8,2.9,1,2.7-0.7c-0.5-3.8-1-7.5-1.1-11.3
					C103.4,245,100.6,245,100.6,246.8L100.6,246.8z"/>
			</g>
			<g>
				<path class="st2" d="M185.3,109.1c0,2.8,0.5,5.6,0.6,8.4c0,1.8,2.8,1.8,2.8,0c0-2.8-0.5-5.6-0.6-8.4
					C188.1,107.3,185.3,107.3,185.3,109.1L185.3,109.1z"/>
			</g>
			<g>
				<path class="st2" d="M191.1,111.5c0.8,1.8,0.9,3.9,1.5,5.8c0.5,1.7,3.2,1,2.7-0.7c-0.7-2.1-0.9-4.4-1.8-6.5
					C192.7,108.5,190.3,109.9,191.1,111.5L191.1,111.5z"/>
			</g>
			<g>
				<path class="st2" d="M198.1,112.5c0,1.7,0,3.3,0,5c0,1.8,2.8,1.8,2.8,0c0-1.7,0-3.3,0-5C200.9,110.7,198.1,110.7,198.1,112.5
					L198.1,112.5z"/>
			</g>
			<g>
				<path class="st2" d="M213.7,114.7c0,1.8,0.1,3.6,0.6,5.4c0.5,1.7,3.2,1,2.7-0.7c-0.5-1.5-0.5-3.1-0.5-4.6
					C216.5,112.9,213.7,112.9,213.7,114.7L213.7,114.7z"/>
			</g>
			<g>
				<path class="st2" d="M223.9,117.6c0.9,1.8,1.4,3.9,2.1,5.8c0.6,1.7,3.3,1,2.7-0.7c-0.7-2.2-1.4-4.4-2.4-6.5
					C225.6,114.6,223.2,116,223.9,117.6L223.9,117.6z"/>
			</g>
			<g>
				<path class="st2" d="M233.8,120.8c0,1.7,0.1,3.2,0.6,4.8c0.5,1.7,3.2,1,2.7-0.7c-0.4-1.4-0.5-2.7-0.5-4.1
					C236.6,119,233.8,119,233.8,120.8L233.8,120.8z"/>
			</g>
			<g>
				<path class="st2" d="M246.4,129.1c0.4,0.5,0.5,2.2,0.2,3.1c-0.5,1.7,2.2,2.5,2.7,0.7c0.5-1.8,0.4-4.3-0.9-5.8
					C247.2,125.7,245.3,127.7,246.4,129.1L246.4,129.1z"/>
			</g>
			<g>
				<path class="st2" d="M173.6,108c0,2.6,0,5.2,0,7.8c0,1.8,2.8,1.8,2.8,0c0-2.6,0-5.2,0-7.8C176.4,106.2,173.6,106.2,173.6,108
					L173.6,108z"/>
			</g>
			<g>
				<path class="st2" d="M163.1,110.9c-0.2-0.1-0.1,0-0.1,0.2c0,0.5,0,0.9-0.1,1.4c-0.1,1-0.3,2-0.5,3c-0.4,1.8,2.3,2.5,2.7,0.7
					c0.4-2.2,1.7-6.2-0.6-7.7C163,107.5,161.6,109.9,163.1,110.9L163.1,110.9z"/>
			</g>
			<g>
				<path class="st2" d="M155.8,108.8c-0.6,2.8-0.5,5.7,0,8.5c0.3,1.8,3,1,2.7-0.7c-0.4-2.3-0.5-4.7,0-7.1
					C158.9,107.8,156.2,107,155.8,108.8L155.8,108.8z"/>
			</g>
			<g>
				<path class="st2" d="M145.7,111.4c0,1.7,0.6,3.2,1.2,4.8c0.6,1.7,3.3,1,2.7-0.7c-0.5-1.3-1-2.6-1.1-4.1
					C148.5,109.6,145.7,109.6,145.7,111.4L145.7,111.4z"/>
			</g>
			<g>
				<path class="st2" d="M137.4,113c0,2,0,4,0.6,5.9c0.5,1.7,3.2,1,2.7-0.7c-0.5-1.7-0.5-3.5-0.5-5.2
					C140.2,111.2,137.4,111.2,137.4,113L137.4,113z"/>
			</g>
		</g>
	</g>
	<g>
		<path class="st0" d="M552.3,143.6L491.5,121l-86.5-3.5L342.4,131l-34.7,29.9l7.6,22.7c0,0-1.5-11.6,11.5-23
			c13-11.5,29.3-26.5,75.8-26.9c54.4-0.5,96.1,2.6,119.3,11.1c20,7.3,43,25,43.3,27.5s6-6.2,6-6.2L552.3,143.6z"/>
		<path class="st0" d="M580.3,167.8l-18.7,34.8L499.2,234h-86.3l-67.5-18.8l-28.9-18l-16.1-27.1l-5.2,21.8c0,0-2.3,11.2,20.7,31
			c19.4,16.8,98.9,41.4,157,35.6c124.7-12.6,113.6-69.9,113.6-69.9L580.3,167.8z"/>
		<path class="st1" d="M414.4,113.1c-42.8,1.3-115.9,18.2-113.7,60.5c2,37.9,61.4,58.2,121.1,66.4c75.7,10.3,142.8-21.5,157-51.3
			C595.6,153.3,538.1,109.3,414.4,113.1z M562.2,186.4c-13.2,27.8-64.7,48-139,40.8c-55.9-5.4-108.2-19.4-110-54.7
			c-2.1-39.4,65-50.3,104.9-51.5C533.3,117.4,577.8,153.4,562.2,186.4z"/>
		<g>
			<g>
				<path class="st2" d="M333.7,218.2c0.4,4-2.3,7.6-1.8,11.7c0.2,1.6,2.9,1.2,2.7-0.4c-0.4-4,2.3-7.6,1.8-11.7
					C336.3,216.2,333.5,216.6,333.7,218.2L333.7,218.2z"/>
			</g>
			<g>
				<path class="st2" d="M353.5,226.6c-1,3.5-2.3,7-3.4,10.5c-0.5,1.5,2.1,2.5,2.6,0.9c1.1-3.5,2.4-7,3.4-10.5
					C356.5,226.1,353.9,225.1,353.5,226.6L353.5,226.6z"/>
			</g>
			<g>
				<path class="st2" d="M369.1,232.2c-0.4,4-0.4,8.1-1.8,11.9c-0.6,1.5,2,2.4,2.6,0.9c1.5-4,1.6-8.3,2-12.5
					C372,230.9,369.3,230.6,369.1,232.2L369.1,232.2z"/>
			</g>
			<g>
				<path class="st2" d="M404.7,240c0.1,3.8,0.2,7.6-0.1,11.4c-0.2,1.6,2.6,1.9,2.8,0.3c0.4-3.8,0.3-7.6,0.1-11.4
					C407.4,238.8,404.6,238.4,404.7,240L404.7,240z"/>
			</g>
			<g>
				<path class="st2" d="M446.4,245.2c1.6,2.6,0.9,6,1.7,8.8c0.4,1.5,3.2,1.2,2.7-0.4c-0.9-3.1-0.2-6.5-1.9-9.4
					C448,242.8,445.5,243.8,446.4,245.2L446.4,245.2z"/>
			</g>
			<g>
				<path class="st2" d="M481.2,243c-0.3,3.1-0.7,6.2,0.2,9.3c0.4,1.5,3.2,1.2,2.7-0.4c-0.8-2.8-0.4-5.8-0.1-8.6
					C484.1,241.7,481.3,241.4,481.2,243L481.2,243z"/>
			</g>
			<g>
				<path class="st2" d="M508.6,238.8c0.4,2.8-0.1,5.6,0.2,8.5c0.2,1.6,2.9,1.2,2.7-0.4c-0.3-2.8,0.2-5.6-0.2-8.5
					C511.1,236.9,508.4,237.3,508.6,238.8L508.6,238.8z"/>
			</g>
			<g>
				<path class="st2" d="M545,223.2c-0.4,3.6-0.8,7.2-1.2,10.8c-0.2,1.6,2.6,1.9,2.8,0.3c0.4-3.6,0.8-7.2,1.2-10.8
					C548,221.9,545.2,221.6,545,223.2L545,223.2z"/>
			</g>
			<g>
				<path class="st2" d="M300.3,190.4c-0.5,3.8-1.4,7.5-2.3,11.2c-0.4,1.5,2.4,1.8,2.8,0.3c0.9-3.7,1.9-7.4,2.3-11.2
					C303.2,189.1,300.4,188.8,300.3,190.4L300.3,190.4z"/>
			</g>
			<g>
				<path class="st2" d="M311.4,206c-0.3,2.7-0.5,5.4-1.4,8c-0.5,1.5,2.1,2.5,2.6,0.9c0.9-2.8,1.2-5.7,1.6-8.6
					C314.4,204.7,311.6,204.4,311.4,206L311.4,206z"/>
			</g>
			<g>
				<path class="st2" d="M323,214.3c1,2.7-0.3,6.1-0.6,8.7c-0.2,1.6,2.6,1.9,2.8,0.3c0.4-3.2,1.5-6.8,0.3-10
					C325,211.8,322.5,212.8,323,214.3L323,214.3z"/>
			</g>
			<g>
				<path class="st2" d="M344.8,224.7c-0.9,3-1.3,6-1.6,9.1c-0.2,1.6,2.6,1.9,2.8,0.3c0.3-2.8,0.6-5.7,1.4-8.4
					C347.8,224.1,345.2,223.2,344.8,224.7L344.8,224.7z"/>
			</g>
			<g>
				<path class="st2" d="M360.9,231.1c0.7,3.1,0.4,6.3,0.6,9.5c0.1,1.6,2.8,1.2,2.7-0.4c-0.2-3.2,0.1-6.3-0.6-9.5
					C363.3,229.2,360.5,229.5,360.9,231.1L360.9,231.1z"/>
			</g>
			<g>
				<path class="st2" d="M376.1,235.2c0.6,3.7-0.2,7.4-0.1,11.1c0,1.6,2.8,1.9,2.8,0.3c0-3.9,0.8-7.8,0.1-11.7
					C378.6,233.3,375.8,233.7,376.1,235.2L376.1,235.2z"/>
			</g>
			<g>
				<path class="st2" d="M385.9,237.5c-0.4,3.9-0.8,7.8-0.1,11.7c0.3,1.6,3,1.2,2.7-0.4c-0.7-3.7-0.3-7.4,0.1-11.1
					C388.9,236.2,386.1,235.9,385.9,237.5L385.9,237.5z"/>
			</g>
			<g>
				<path class="st2" d="M391.3,239.6c-0.3,3.6-0.2,7.2,0,10.7c0.1,1.6,2.8,1.2,2.7-0.4c-0.2-3.4-0.3-6.7,0-10.1
					C394.2,238.3,391.4,238,391.3,239.6L391.3,239.6z"/>
			</g>
			<g>
				<path class="st2" d="M488.8,127.7c-0.2,2.5,0,4.9-0.3,7.4c-0.1,1.6,2.6,1.9,2.8,0.3c0.2-2.5,0-4.9,0.3-7.4
					C491.7,126.4,488.9,126.1,488.8,127.7L488.8,127.7z"/>
			</g>
			<g>
				<path class="st2" d="M494.3,130.4c0.6,1.7,0.6,3.6,1,5.3c0.4,1.6,3.1,1.2,2.7-0.4c-0.5-1.9-0.4-4-1.2-5.9
					C496.2,127.9,493.7,128.9,494.3,130.4L494.3,130.4z"/>
			</g>
			<g>
				<path class="st2" d="M501.2,132c-0.2,1.5-0.3,2.9-0.5,4.4c-0.2,1.6,2.6,1.9,2.8,0.3c0.2-1.5,0.3-2.9,0.5-4.4
					C504.1,130.8,501.4,130.5,501.2,132L501.2,132z"/>
			</g>
			<g>
				<path class="st2" d="M516.5,135.7c-0.2,1.6-0.3,3.2,0.1,4.8c0.4,1.6,3.1,1.2,2.7-0.4c-0.3-1.4-0.2-2.7-0.1-4.1
					C519.4,134.4,516.6,134.1,516.5,135.7L516.5,135.7z"/>
			</g>
			<g>
				<path class="st2" d="M526.4,139.4c0.7,1.7,1.1,3.6,1.5,5.3c0.4,1.6,3.1,1.2,2.7-0.4c-0.5-2-0.9-4-1.7-5.9
					C528.3,136.9,525.7,137.9,526.4,139.4L526.4,139.4z"/>
			</g>
			<g>
				<path class="st2" d="M535.8,143.3c-0.2,1.5-0.2,2.9,0.1,4.3c0.4,1.6,3.1,1.2,2.7-0.4c-0.3-1.2-0.2-2.4-0.1-3.7
					C538.8,142,536,141.7,535.8,143.3L535.8,143.3z"/>
			</g>
			<g>
				<path class="st2" d="M547.6,151.9c0.4,0.5,0.2,2-0.1,2.8c-0.7,1.5,1.9,2.4,2.6,0.9c0.7-1.5,0.8-3.8-0.3-5.2
					C548.7,149.1,546.6,150.6,547.6,151.9L547.6,151.9z"/>
			</g>
			<g>
				<path class="st2" d="M477.2,125.4c-0.3,2.3-0.5,4.6-0.8,6.9c-0.2,1.6,2.6,1.9,2.8,0.3c0.3-2.3,0.5-4.6,0.8-6.9
					C480.2,124.2,477.4,123.9,477.2,125.4L477.2,125.4z"/>
			</g>
			<g>
				<path class="st2" d="M466.6,126.8c-0.2-0.1-0.1,0-0.1,0.2c0,0.4-0.1,0.8-0.2,1.2c-0.2,0.9-0.5,1.7-0.8,2.6
					c-0.5,1.5,2.1,2.5,2.6,0.9c0.7-1.9,2.3-5.2,0.1-6.8C466.8,123.8,465.2,125.8,466.6,126.8L466.6,126.8z"/>
			</g>
			<g>
				<path class="st2" d="M459.5,124.2c-0.9,2.4-1.1,5-0.8,7.5c0.2,1.6,2.9,1.2,2.7-0.4c-0.2-2.1-0.1-4.2,0.7-6.2
					C462.7,123.6,460.1,122.7,459.5,124.2L459.5,124.2z"/>
			</g>
			<g>
				<path class="st2" d="M449.2,125.3c-0.1,1.5,0.3,2.9,0.7,4.4c0.4,1.6,3.2,1.2,2.7-0.4c-0.3-1.2-0.8-2.4-0.7-3.7
					C452.1,124.1,449.4,123.8,449.2,125.3L449.2,125.3z"/>
			</g>
			<g>
				<path class="st2" d="M440.7,125.9c-0.2,1.7-0.4,3.5,0,5.3c0.4,1.6,3.1,1.2,2.7-0.4c-0.4-1.5-0.2-3.1,0-4.6
					C443.7,124.6,440.9,124.3,440.7,125.9L440.7,125.9z"/>
			</g>
		</g>
	</g>
</g>
</svg>
