<?xml version="1.0" encoding="utf-8"?>
<!-- Generator: Adobe Illustrator 26.0.1, SVG Export Plug-In . SVG Version: 6.00 Build 0)  -->
<svg version="1.1" id="Layer_1" xmlns="http://www.w3.org/2000/svg" xmlns:xlink="http://www.w3.org/1999/xlink" x="0px" y="0px"
	 viewBox="0 0 383 383.9" >

<g>
	<path class="st0" d="M2,208.7c0-10.5,0-21,0-31.5c0.9-0.4,0.7-1.2,0.8-1.9c0.7-6.6,1.6-13.1,2.9-19.6C20.7,77,86.1,14.5,165.2,3.1
		c4.7-0.7,9.6-0.5,14.2-2.1c9.7,0,19.5,0,29.2,0c0.6,1.2,1.8,0.6,2.7,0.8c6,0.9,12.1,1.4,18.1,2.6c41,8,76.2,27.1,104.4,58
		c40.5,44.3,57,96.8,49.6,156.4c-4.8,38.6-20.7,72.6-46.5,101.5c-30.9,34.6-69.3,55.5-115.2,62.6c-4.3,0.7-8.8,0.4-13,2.1
		c-10.2,0-20.5,0-30.7,0c-3.2-1.6-6.7-1.2-10.1-1.7c-38.5-5.5-72.6-21-101.6-47C32,305.3,11.2,267,4.1,221.4
		C3.5,217.2,3.8,212.7,2,208.7z M117.1,93.1c-3.3-0.1-5.8,1.4-8,3.6c-3.5,3.5-7.1,7.1-10.6,10.6c-6.4,6.5-6.4,11.5,0.1,18
		c21.6,21.6,43.2,43.3,64.9,64.9c2.4,2.4,2.1,3.5-0.1,5.7c-21.6,21.5-43.1,43.1-64.6,64.6c-6.8,6.8-6.7,11.6,0.1,18.5c3,3,6,6,9,9
		c6.7,6.7,11.6,6.7,18.2,0.1c21.5-21.6,43.1-43.1,64.5-64.7c2.3-2.4,3.5-2.6,6-0.1c21.7,21.9,43.5,43.7,65.3,65.5
		c5.6,5.6,11,5.5,16.6,0c3.4-3.3,6.7-6.7,10.1-10.1c6.6-6.6,6.6-11.6-0.1-18.3c-21.5-21.6-43-43.2-64.6-64.6c-2.5-2.5-2.2-3.7,0.1-6
		c21.9-21.7,43.6-43.6,65.4-65.4c5.4-5.4,5.4-11,0.1-16.4c-3.4-3.5-6.9-6.9-10.3-10.3c-6.5-6.5-11.5-6.5-18,0
		c-21.5,21.6-43.1,43.1-64.5,64.7c-2.5,2.6-3.7,2.6-6.3,0c-21.5-21.8-43.1-43.3-64.7-65C123.3,95,120.7,92.9,117.1,93.1z"/>
</g>
</svg>
