<?xml version="1.0" encoding="utf-8"?>
<!-- Generator: Adobe Illustrator 26.0.1, SVG Export Plug-In . SVG Version: 6.00 Build 0)  -->
<svg version="1.1" id="Layer_1" xmlns="http://www.w3.org/2000/svg" xmlns:xlink="http://www.w3.org/1999/xlink" x="0px" y="0px"
	 viewBox="0 0 525.6 331.5" style="enable-background:new 0 0 525.6 331.5;" xml:space="preserve">
<style type="text/css">
	.st0{fill:#E22727;}
	.st1{fill:#FF6A5F;}
	.st2{opacity:0.8;fill:#F9453D;enable-background:new    ;}
	.st3{opacity:0.6;fill:#F9453D;enable-background:new    ;}
	.st4{opacity:0.5;}
	.st5{fill:#F2B981;}
</style>
<g>
	<g>
		<path class="st0" d="M297.4,77.8c5,3.1,51.9-9.9,84,21.8c10.4,10.3,11.9,39.7,3.5,60.1c-8.3,20.4-37.5,40.7-75.5,44.4
			c-71.6,7-120.2-21.5-143-38.2c-35.9-26.3-43.9-86.4-22-118.7c5.1-7.4,15.9-12.4,24.5-17.5c57.1-34.1,94.7-3,108.4,7.2
			C297.4,52,290.3,73.4,297.4,77.8z"/>
		<path class="st1" d="M304.3,60.3c5,3.1,40.8-1.2,72.9,30.5c20.8,20.6,15.2,88.3-60.9,95.7c-71.6,7-120.2-21.5-143-38.2
			c-44.2-32.3-50.2-99.4-4.2-126.9c57.1-34.1,101.4-12.3,115.1-2.1C304.3,34.4,297.3,55.8,304.3,60.3z"/>
		<path class="st2" d="M293.6,69.1c4.4,2.8,41.6-3.6,70.1,24.4c18.5,18.1,13.6,77.7-53.7,84.1c-63.4,6-106.6-19.2-126.8-33.9
			c-39.2-28.6-42.9-86-5.1-114.2c18.4-13.7,35.2-17,49.7-17.8c25.9-1.4,46.2,8.4,54,16.4C297.4,44.1,287.3,65.2,293.6,69.1z"/>
		<path class="st3" d="M295.3,89.3c-8.8,2.6-91.3,31.2-87.4,40.8c3.9,9.5,49.6,39.3,110.2,26c35.3-7.8,45.1-34.7,33-47.5
			C339.1,95.8,305.4,86.3,295.3,89.3z"/>
		<path class="st3" d="M262.2,73.2c-12.7,18-72.2,46.1-77.6,41.4c-5.4-4.7-13.3-29.3-3-58c11.2-31.4,53-35.7,69.4-26.9
			C267.2,38.4,271.4,60.1,262.2,73.2z"/>
		<g class="st4">
			<path class="st5" d="M330.6,109.8c-0.3-4.3,14.7-3,14.7,0.4l-0.3-0.1C342.7,111.1,331.1,116,330.6,109.8z"/>
			<path class="st5" d="M335,123.8c-3-1.9-4.7-6.1,0.5-5.2l-0.3-0.1c3-0.2,8.4,1.1,11,2.5c3.9,2.2,5,5.4-0.1,5.4
				C342.6,126.4,338,125.7,335,123.8z"/>
			<path class="st5" d="M322.8,132.7c-1.5-5.3,2.4-5.5,6.2-4.4c2.4,1.6,6.1,4.3,7.3,7.1c1.8,4.3-1.3,7.1-5.6,5.5
				C328,140,323.7,135.7,322.8,132.7z"/>
			<path class="st5" d="M329.4,128.4c-0.1,0-0.2-0.1-0.3-0.1l0,0L329.4,128.4z"/>
			<path class="st5" d="M315.6,137.1l-0.7-1.4c3.8,2.1,10.3,14.6,1.7,13c-3-0.6-7.8-5.3-7.6-8.4
				C309.1,137.2,313.4,134.6,315.6,137.1z"/>
			<path class="st5" d="M297.1,143.9l1.4-0.7c4.8,1.1,8,12.8,1.5,12.7C295.8,155.8,291.7,145.5,297.1,143.9z"/>
			<path class="st5" d="M285.4,146.1V145c6.2-0.1,3,17.5-4.8,10.6C276,151.4,280.5,137.4,285.4,146.1z"/>
			<path class="st5" d="M265.8,142.8l2.7,0.1c5.7,1.9,3.1,14.4-4,11.6C258.7,152.2,262,143.3,265.8,142.8z"/>
			<path class="st5" d="M253.3,140.1l1.3,0.8c2.9,2.4-3.5,11.9-7.6,8.4C243.1,145.9,249.9,136.9,253.3,140.1z"/>
			<path class="st5" d="M242.8,135.8l0.7,0.2c3.5,4.6-4.7,14.2-9.2,10.1C230.8,142.9,239,133.6,242.8,135.8z"/>
			<path class="st5" d="M230.9,129.9l0.8,1c0.3,0,0.2-0.6,0.8-0.1c1.3,4.2-8.8,10.1-11.3,7C217.7,133.3,228.5,129.6,230.9,129.9z"/>
			<path class="st5" d="M330.1,99.1l0.3,0.1c0.9,4.4-9.8,9.3-10.8,4.3C319,100.3,328,97,330.1,99.1z"/>
			<path class="st5" d="M316.8,93.9l0.6,0.6c-1.1,2.1-10.1,8.4-11.7,4.7C303.3,93.6,315.1,94,316.8,93.9z"/>
			<path class="st5" d="M258.9,63.2c4.7-2.1,4.2,2,3.5,2.1c-1.5,2.4-5.2,4.7-8.1,4.3C253,66.6,256.5,64.2,258.9,63.2z"/>
			<path class="st5" d="M252.6,55.9c-0.2-3.6,9-10.1,9.7-4.2l0.1-0.3C263.4,55.7,252.9,61.3,252.6,55.9z"/>
			<path class="st5" d="M250.8,49.7c-3.6-1.6,2.6-14.7,6.7-10.5l1.1-1.2C260.4,40.7,254.3,51.2,250.8,49.7z"/>
			<path class="st5" d="M245.5,31h1.2c1.8,0.9,0.2,13.6-3.9,12.5C239.4,42.5,240.3,30.4,245.5,31z"/>
			<path class="st5" d="M233.6,28.5l1-0.8c3.1-0.5,5.1,11.3,1.8,12.8C231.5,42.7,229,29.7,233.6,28.5z"/>
			<path class="st5" d="M227.1,37.5l0.5,0.9c1.8,3.8-3.4,2.3-4.9,1.1c-2.2-1.7-3.2-4.3-2.9-6.9C220.4,25.4,227.3,34.3,227.1,37.5z"
				/>
			<path class="st5" d="M207.3,33.8c5.1-0.4,6.7,4.3,9.3,6.6v1.1c4.1,5.1-3.2,3.9-5.8,1.4C208.9,40.9,206.2,36.7,207.3,33.8z"/>
			<path class="st5" d="M207.7,48.3l-0.5,0.2c-1.9,2.3-12.5-3.4-10.8-7.1C198.6,36.8,207.1,45.4,207.7,48.3z"/>
			<path class="st5" d="M201.6,54.4c-1.9,1.7-14.1-1.4-12.7-5.8c1.2-3.9,12,3.3,13.4,4.8L201.6,54.4z"/>
			<path class="st5" d="M198.8,60c0.3,0.7-0.3,0-0.5,0.1l0.5,0.9c-2.9,2.6-13.1,2.9-13.8-2.3C184.1,52,196.6,58,198.8,60z"/>
			<path class="st5" d="M196.4,70.2l-0.7,0.9c-2,4-15.2,3.7-14.3-2C182.3,63.5,194.8,68.5,196.4,70.2z"/>
			<path class="st5" d="M194.6,81l-0.8,1.3c-2.6,2-13.1,3.8-12.7-0.8C181.5,76.4,192.7,78.2,194.6,81z"/>
			<path class="st5" d="M194.3,91.5l-0.3,1c-2.7,3.1-16.8,4.6-13.5-1.2C182.4,88.1,192.8,88.8,194.3,91.5z"/>
			<path class="st5" d="M195.6,101c-1.4,3.2-13.4,9.4-11.9,2.8C184.7,99.4,193.2,100,195.6,101z"/>
		</g>
	</g>
	<g>
		<path class="st0" d="M184.6,118c6.4,2.1,55.4-25.3,100.4,1.2c14.6,8.6,24.4,40.9,20.9,65.9c-3.6,25-30.6,55.6-72.2,70.1
			c-78.3,27.4-140.8,9.1-171.1-3.3c-47.7-19.3-73.6-84.1-58.1-126C8,116.3,18.8,107.8,27,99.7C81.4,46.1,132.4,70.4,150.6,78
			C177.4,89.3,175.5,115.1,184.6,118z"/>
		<path class="st1" d="M187.5,96.6c6.4,2.1,45.4-12.5,90.4,13.9c29.2,17.2,41.8,94.1-41.3,123.3c-78.3,27.4-140.8,9.1-171.1-3.3
			C6.8,206.6-18.8,133.6,25,90.5C79.4,36.9,135.3,49,153.4,56.6C180.3,67.8,178.4,93.6,187.5,96.6z"/>
		<path class="st3" d="M177.9,109.4c5.7,1.9,45.6-15.4,85.5,7.9c25.9,15.1,37.1,82.8-36.6,108.3c-69.4,24.1-124.9,7.9-151.7-3
			c-52-21-72.3-83.9-37.8-125.7C54,76.6,72,68.4,88.1,63.5c28.7-8.7,54.2-3.4,65.2,3.5C175.2,80.5,169.9,106.8,177.9,109.4z"/>
		<path class="st1" d="M185.6,131.4c-9.1,5.3-93.6,59.8-86.5,69.4c7.1,9.5,66.7,30.1,130.9-1.4c37.4-18.4,40.8-51,23.6-61.9
			C236.5,126.6,196.1,125.3,185.6,131.4z"/>
		<path class="st1" d="M143.9,122.5c-9.2,23.5-68,71.2-75.4,67.5s-23.2-29-19.7-63.8c3.8-38,49.4-54.3,70.2-49
			C139.8,82.4,150.6,105.4,143.9,122.5z"/>
		<g class="st4">
			<path class="st5" d="M231,144.5c-1.5-4.7,15.7-7.3,16.6-3.6h-0.4C244.9,142.7,233.2,151.4,231,144.5z"/>
			<path class="st5" d="M239.8,158.9c-3.9-1.3-7-5.5-0.9-6h-0.4c3.3-1,9.7-1.1,13.1-0.2c5,1.3,7.1,4.7,1.4,6.1
				C249.1,159.7,243.7,160.2,239.8,158.9z"/>
			<path class="st5" d="M228.6,172.2c-3.2-5.5,1.1-6.8,5.8-6.6c3.1,1.1,8.1,3.1,10.2,5.9c3.2,4.3,0.6,8.2-4.7,7.7
				C236.5,178.8,230.4,175.3,228.6,172.2z"/>
			<path class="st5" d="M234.8,165.6c-0.1,0-0.3,0-0.4,0l0,0H234.8z"/>
			<path class="st5" d="M221.8,179l-1.2-1.3c4.8,1.3,15.6,13.4,5.6,14c-3.6,0.2-10.2-3.7-10.9-7.2
				C214.5,180.9,218.6,176.8,221.8,179z"/>
			<path class="st5" d="M203,191.7l1.3-1.2c5.7-0.1,12.6,12,5.3,13.7C204.8,205.3,197.3,195,203,191.7z"/>
			<path class="st5" d="M190.4,197.3L190,196c6.9-1.8,8.3,18.7-2.4,13.1C181.4,205.8,182.6,189,190.4,197.3z"/>
			<path class="st5" d="M167.6,199l3-0.7c6.9,0.6,7.5,15.1-1.2,14.1C162.3,211.5,163.4,200.7,167.6,199z"/>
			<path class="st5" d="M152.8,199.4l1.7,0.5c3.9,1.9-0.6,14.2-6.2,11.4C143,208.8,148.1,196.8,152.8,199.4z"/>
			<path class="st5" d="M139.8,197.5h0.8c5.2,4.2-1.3,17-7.5,13.7C128.4,208.8,134.9,196.2,139.8,197.5z"/>
			<path class="st5" d="M124.8,194.2l1.2,0.9c0.4-0.1,0.1-0.8,0.9-0.3c2.7,4.3-7,13.7-10.6,10.9C110.9,201.6,122,194.6,124.8,194.2z
				"/>
			<path class="st5" d="M227.3,132.8h0.4c2.3,4.7-8.4,13.1-10.9,7.7C215.3,137.1,224.4,131,227.3,132.8z"/>
			<path class="st5" d="M211,130.7l0.8,0.5c-0.6,2.6-8.9,12.1-11.8,8.4C195.7,134,209.1,131.1,211,130.7z"/>
			<path class="st5" d="M137.4,112.3c4.7-3.6,5.3,1.1,4.5,1.4c-1,3.1-4.6,6.7-7.9,7C131.8,117.7,135,114.1,137.4,112.3z"/>
			<path class="st5" d="M128.3,105.9c-1.2-3.9,7.2-13.8,9.7-7.4v-0.4C140.3,102.8,130.2,111.9,128.3,105.9z"/>
			<path class="st5" d="M124.5,99.5c-4.5-0.7-1.3-17.1,4.5-13.5l0.9-1.6C132.8,86.8,128.9,100.2,124.5,99.5z"/>
			<path class="st5" d="M113.3,80.2l1.3-0.3c2.3,0.5,4.1,15.1-0.8,15C109.8,94.7,107.4,81,113.3,80.2z"/>
			<path class="st5" d="M99.4,80.7l0.9-1.2c3.4-1.4,8.9,11.1,5.6,13.7C100.9,97,94.5,83.3,99.4,80.7z"/>
			<path class="st5" d="M94.5,92.5l0.8,0.9c3.1,3.7-3.1,3.4-5.2,2.6c-3-1.3-4.8-3.9-5.2-6.8C83.7,80.8,93.9,88.8,94.5,92.5z"/>
			<path class="st5" d="M71.3,93.8c5.6-1.8,8.8,3,12.3,4.7l0.4,1.3c6,4.6-2.4,5.2-6.1,3.1C75.1,101.3,70.9,97.3,71.3,93.8z"/>
			<path class="st5" d="M75.8,109.8l-0.4,0.4c-1.5,3.1-15-0.3-14.1-4.9C62.4,99.5,74.3,106.8,75.8,109.8z"/>
			<path class="st5" d="M70.7,118.2c-1.7,2.4-16.2,2.3-15.9-2.9c0.3-4.7,14.4,0.4,16.4,1.7L70.7,118.2z"/>
			<path class="st5" d="M69.1,125.3c0.6,0.7-0.3,0-0.5,0.3l0.8,0.9c-2.6,3.7-13.8,6.8-16.1,1.2C50.4,120.5,66.1,123.7,69.1,125.3z"
				/>
			<path class="st5" d="M69.3,137.3l-0.5,1.2c-1.1,5-16,8.3-16.6,1.6C51.6,133.7,67,135.8,69.3,137.3z"/>
			<path class="st5" d="M70.3,149.8l-0.5,1.6c-2.4,3-13.6,7.8-14.5,2.6C54.3,148.3,67.4,147.2,70.3,149.8z"/>
			<path class="st5" d="M73,161.6l-0.1,1.2c-2.2,4.2-17.5,9.7-15.4,2.4C58.7,161.1,70.5,159,73,161.6z"/>
			<path class="st5" d="M77.1,171.7c-0.6,4-12.4,14.1-12.6,6.4C64.4,173,74.1,171.3,77.1,171.7z"/>
		</g>
	</g>
	<g>
		<path class="st0" d="M402.7,109.5c6.1,0.2,41.6-36.3,87.5-24.3c14.9,3.9,31.7,29.9,35,52.9s-12.3,56.7-44.7,80.1
			c-61,44-120,43.6-149.5,40.4c-46.3-5.1-85.5-55.6-82.8-96.5c0.6-9.4,7.8-19.6,12.8-28.8c33.5-61,84-52.5,101.7-50.3
			C389,85.9,394,109.2,402.7,109.5z"/>
		<path class="st1" d="M399.7,89.8c6.1,0.2,36.2-22.5,82.1-10.5c29.7,7.8,60.5,72.5-4.3,119.2c-61,44-120,43.6-149.5,40.4
			c-57-6.3-98-64.2-71.1-113.3c33.5-61,85.1-64.5,102.8-62.3C386,66.3,391,89.5,399.7,89.8z"/>
		<path class="st3" d="M394.7,103.5c5.4,0.2,35.7-25.1,76.3-14.6c26.3,6.8,53.5,63.6-4,104.8c-54.1,38.8-106.4,38.5-132.5,35.7
			C284,224,250.2,173.6,269.4,128c9.3-22.1,22.8-34,35.5-42.3c22.7-14.9,46.2-16.6,57.5-13.4C384.8,78.8,387,103.3,394.7,103.5z"/>
		<path class="st1" d="M406.9,121c-6.5,7-65.9,76.4-57.3,83s65.7,9.7,113.3-34.3c27.8-25.7,22.3-55.3,4.7-60.6
			C449.9,103.9,414.5,113,406.9,121z"/>
		<path class="st1" d="M368.5,123.7c-2,23.1-40.8,80-48.2,78.5c-7.4-1.4-27.6-19.7-33.5-51.3c-6.5-34.5,29-60.4,48.4-61
			C354.6,89.4,369.9,107,368.5,123.7z"/>
		<g class="st4">
			<path class="st5" d="M449.7,121.1c-2.5-3.8,11.7-10.4,13.5-7.4l-0.4,0.1C461.3,116,453.4,126.6,449.7,121.1z"/>
			<path class="st5" d="M461.1,131.6c-3.7-0.2-7.5-3.1-2.3-5l-0.4,0.1c2.6-1.7,8.2-3.4,11.3-3.5c4.7-0.1,7.4,2.3,2.7,5
				C469.3,129.9,464.7,131.7,461.1,131.6z"/>
			<path class="st5" d="M454.8,146.1c-4.2-4-0.8-6.3,3.3-7.3c3,0.2,7.8,0.7,10.4,2.6c3.9,2.9,2.6,7.1-2.1,8
				C463.3,150,457.1,148.4,454.8,146.1z"/>
			<path class="st5" d="M458.4,138.7c-0.1,0-0.2,0.1-0.4,0.1l0,0L458.4,138.7z"/>
			<path class="st5" d="M450.6,153.9l-1.4-0.9c4.5-0.1,17,7.9,8.4,10.9c-3.1,1.1-9.8-0.7-11.3-3.6
				C444.8,157.4,447.3,152.7,450.6,153.9z"/>
			<path class="st5" d="M437.5,169.8l0.9-1.4c4.9-1.6,14,7.4,8.1,10.7C442.6,181.3,433.5,174.1,437.5,169.8z"/>
			<path class="st5" d="M428.1,177.9l-0.6-1c5.5-3.4,12,14.4,1.3,12.1C422.4,187.7,419.1,172.6,428.1,177.9z"/>
			<path class="st5" d="M408.6,185.2l2.4-1.3c6.2-1.2,10.4,11.5,2.6,12.7C407.2,197.5,405.4,187.8,408.6,185.2z"/>
			<path class="st5" d="M395.9,189.3h1.6c3.9,0.7,3.2,12.7-2.5,11.6C389.8,200,391.1,188.2,395.9,189.3z"/>
			<path class="st5" d="M384.1,190.9l0.7-0.2c5.6,2.4,3.3,15.4-3,14C377.1,203.7,379.6,191,384.1,190.9z"/>
			<path class="st5" d="M370.2,191.8l1.3,0.5c0.3-0.2-0.1-0.7,0.7-0.5c3.4,3.1-2.6,13.9-6.4,12.3
				C360.1,201.8,367.9,192.8,370.2,191.8z"/>
			<path class="st5" d="M443.5,111.7l0.4-0.1c3.2,3.6-4,13.7-7.5,9.6C434.2,118.6,440.5,110.9,443.5,111.7z"/>
			<path class="st5" d="M428.8,114l0.8,0.2c0.1,2.5-4.6,12.9-8.1,10.4C416.4,120.8,427.3,114.8,428.8,114z"/>
			<path class="st5" d="M360.2,116.4c3.1-4.3,4.9-0.4,4.2,0.1c0,3-2.3,7-5,8.2C356.7,122.5,358.6,118.6,360.2,116.4z"/>
			<path class="st5" d="M350.7,113c-2-3.1,2.8-14,6.5-9l-0.1-0.4C360.3,107.2,353.8,117.8,350.7,113z"/>
			<path class="st5" d="M345.7,108.3c-4.1,0.5-5.5-14.8,0.5-13l0.4-1.7C349.6,95.1,349.7,107.8,345.7,108.3z"/>
			<path class="st5" d="M331,94.1l1-0.6c2.1-0.1,7.4,12.3,3.1,13.4C331.7,107.8,326.1,96.3,331,94.1z"/>
			<path class="st5" d="M319,98.1l0.5-1.3c2.6-2.1,10.6,7.6,8.4,10.7C324.6,112.1,315.5,101.6,319,98.1z"/>
			<path class="st5" d="M317.8,109.7l0.9,0.6c3.6,2.5-1.8,3.8-3.9,3.6c-2.9-0.4-5.2-2.3-6.3-4.7
				C305.4,102.1,316.4,106.7,317.8,109.7z"/>
			<path class="st5" d="M298,116.8c4.4-3,8.4,0.4,11.9,1.1l0.6,1c6.4,2.5-0.8,5.2-4.5,4.3C303.2,122.4,298.6,119.9,298,116.8z"/>
			<path class="st5" d="M306.1,129.7l-0.3,0.5c-0.5,3.2-13.1,3.5-13.5-0.8C291.8,124,304,127.4,306.1,129.7z"/>
			<path class="st5" d="M303.8,138.4c-0.8,2.5-13.5,6.2-14.5,1.4c-0.9-4.2,12.6-3.3,14.7-2.6L303.8,138.4z"/>
			<path class="st5" d="M304.2,145.1c0.7,0.4-0.3,0.1-0.4,0.4l0.9,0.6c-1.3,3.9-10.3,9.5-13.7,5.2
				C286.7,145.5,301.2,144.4,304.2,145.1z"/>
			<path class="st5" d="M307.4,155.6l-0.1,1.2c0.3,4.7-11.7,11.4-14,5.6C291.2,156.9,305.1,154.9,307.4,155.6z"/>
			<path class="st5" d="M311.5,166.4v1.6c-1.3,3.2-9.8,10.4-11.9,5.9C297.3,169.1,308.3,164.8,311.5,166.4z"/>
			<path class="st5" d="M316.9,176.1l0.3,1.1c-0.8,4.3-12.7,13-12.8,6C304.3,179.3,314,174.5,316.9,176.1z"/>
			<path class="st5" d="M323,184c0.5,3.7-7.1,15.6-9.3,8.8C312.3,188.4,320.3,184.4,323,184z"/>
		</g>
	</g>
</g>
</svg>
