<?xml version="1.0" encoding="utf-8"?>
<!-- Generator: Adobe Illustrator 26.0.1, SVG Export Plug-In . SVG Version: 6.00 Build 0)  -->
<svg version="1.1" id="Layer_1" xmlns="http://www.w3.org/2000/svg" xmlns:xlink="http://www.w3.org/1999/xlink" x="0px" y="0px"
	 viewBox="0 0 64.2 54.1" style="enable-background:new 0 0 64.2 54.1;" xml:space="preserve">

<g>
	<path class="st0" d="M54.9,29.2h-5c0.5,1.4,0.8,2.9,0.8,4.4v18.7c0,0.6-0.1,1.3-0.3,1.8h8.2c3.1,0,5.6-2.5,5.6-5.5V38.4
		C64.2,33.4,60,29.2,54.9,29.2z"/>
	<path class="st0" d="M13.4,33.6c0-1.5,0.3-3,0.8-4.4h-5c-5.1,0-9.3,4.1-9.3,9.2v10.2c0,3,2.5,5.5,5.6,5.5h8.2
		c-0.2-0.6-0.3-1.2-0.3-1.8V33.6z"/>
	<path class="st0" d="M37.8,24.4H26.4c-5.1,0-9.3,4.1-9.3,9.2v18.7c0,1,0.8,1.8,1.9,1.8h26.2c1,0,1.9-0.8,1.9-1.8V33.6
		C47,28.6,42.9,24.4,37.8,24.4z"/>
	<path class="st0" d="M32.1,0c-6.1,0-11.1,5-11.1,11.1c0,4.1,2.3,7.8,5.7,9.7c1.6,0.9,3.5,1.4,5.4,1.4s3.8-0.5,5.4-1.4
		c3.4-1.9,5.7-5.5,5.7-9.7C43.2,5,38.2,0,32.1,0z"/>
	<path class="st0" d="M12.5,10.3c-4.6,0-8.3,3.7-8.3,8.3c0,4.6,3.7,8.3,8.3,8.3c1.2,0,2.3-0.2,3.3-0.7c1.7-0.7,3.2-2.1,4.1-3.7
		c0.6-1.2,1-2.5,1-3.9C20.9,14,17.1,10.3,12.5,10.3z"/>
	<path class="st0" d="M51.7,10.3c-4.6,0-8.3,3.7-8.3,8.3c0,1.4,0.4,2.7,1,3.9c0.9,1.7,2.3,3,4.1,3.7c1,0.4,2.1,0.7,3.3,0.7
		c4.6,0,8.3-3.7,8.3-8.3C60,14,56.3,10.3,51.7,10.3z"/>
</g>
</svg>
